<mxfile host="app.diagrams.net" modified="2023-11-25T06:25:42.418Z" agent="Mozilla/5.0 (Windows NT 10.0; Win64; x64; rv:120.0) Gecko/20100101 Firefox/120.0" etag="fGQG5hZtf4xC4U29Cim2" version="22.1.4" type="github">
  <diagram name="Page-1" id="3e8102d1-ef87-2e61-34e1-82d9a586fe2e">
    <mxGraphModel dx="919" dy="434" grid="0" gridSize="10" guides="1" tooltips="1" connect="1" arrows="1" fold="1" page="0" pageScale="1" pageWidth="1100" pageHeight="850" background="none" math="0" shadow="0">
      <root>
        <mxCell id="0" />
        <mxCell id="1" parent="0" />
        <mxCell id="70666756c84bb93c-1" value="" style="ellipse;whiteSpace=wrap;html=1;rounded=0;shadow=0;comic=0;strokeWidth=1;fontFamily=Verdana;fontSize=14;strokeColor=none;fillColor=#0069D1;" parent="1" vertex="1">
          <mxGeometry x="270" y="110" width="500" height="500" as="geometry" />
        </mxCell>
        <mxCell id="70666756c84bb93c-2" value="" style="ellipse;whiteSpace=wrap;html=1;rounded=0;shadow=0;comic=0;strokeWidth=1;fontFamily=Verdana;fontSize=22;strokeColor=none;fillColor=#ffffff;fontColor=#0069D1;fontStyle=1" parent="1" vertex="1">
          <mxGeometry x="400" y="230" width="260" height="260" as="geometry" />
        </mxCell>
        <mxCell id="70666756c84bb93c-5" value="&lt;div&gt;Ambientes&amp;nbsp;&lt;/div&gt;&lt;div&gt;Saludables&lt;/div&gt;" style="shadow=0;dashed=0;html=1;strokeColor=none;fillColor=#ffffff;labelPosition=center;verticalLabelPosition=bottom;verticalAlign=top;shape=mxgraph.office.users.users;rounded=0;comic=0;fontFamily=Verdana;fontSize=14;fontColor=#FFFFFF;" parent="1" vertex="1">
          <mxGeometry x="332" y="350" width="46" height="50" as="geometry" />
        </mxCell>
        <mxCell id="70666756c84bb93c-6" value="&lt;div&gt;Sustentable&lt;/div&gt;&lt;div&gt;&amp;amp; &lt;br&gt;&lt;/div&gt;&lt;div&gt;Sostenible&lt;br&gt;&lt;/div&gt;" style="shadow=0;dashed=0;html=1;strokeColor=none;fillColor=#ffffff;labelPosition=center;verticalLabelPosition=bottom;verticalAlign=top;shape=mxgraph.office.users.call_center_agent;rounded=0;comic=0;fontFamily=Verdana;fontSize=14;fontColor=#FFFFFF;" parent="1" vertex="1">
          <mxGeometry x="654" y="405.49" width="46" height="55" as="geometry" />
        </mxCell>
        <mxCell id="70666756c84bb93c-7" value="&lt;div&gt;Población&lt;/div&gt;&lt;div&gt;&amp;amp; Contaminación&lt;/div&gt;&lt;div&gt;3 R&lt;br&gt;&lt;/div&gt;" style="shadow=0;dashed=0;html=1;strokeColor=none;fillColor=#ffffff;labelPosition=center;verticalLabelPosition=bottom;verticalAlign=top;shape=mxgraph.office.users.response_group;rounded=0;comic=0;fontFamily=Verdana;fontSize=14;fontColor=#FFFFFF;" parent="1" vertex="1">
          <mxGeometry x="331" y="203" width="58" height="54" as="geometry" />
        </mxCell>
        <mxCell id="70666756c84bb93c-9" value="&lt;div&gt;Atención 1era&lt;/div&gt;&lt;div&gt;APA&lt;br&gt;&lt;/div&gt;" style="shadow=0;dashed=0;html=1;strokeColor=none;fillColor=#ffffff;labelPosition=center;verticalLabelPosition=bottom;verticalAlign=top;shape=mxgraph.office.servers.on_premises_server;rounded=0;comic=0;fontFamily=Verdana;fontSize=14;fontColor=#FFFFFF;" parent="1" vertex="1">
          <mxGeometry x="700" y="292" width="44" height="58" as="geometry" />
        </mxCell>
        <mxCell id="70666756c84bb93c-10" value="&lt;div&gt;Medio ambiente &amp;amp;&lt;/div&gt;&lt;div&gt;salud&lt;br&gt;&lt;/div&gt;" style="shadow=0;dashed=0;html=1;strokeColor=none;fillColor=#ffffff;labelPosition=center;verticalLabelPosition=bottom;verticalAlign=top;shape=mxgraph.office.security.token_service;rounded=0;comic=0;fontFamily=Verdana;fontSize=14;fontColor=#FFFFFF;" parent="1" vertex="1">
          <mxGeometry x="402" y="465.8" width="60" height="56" as="geometry" />
        </mxCell>
        <mxCell id="70666756c84bb93c-11" value="ODS" style="shadow=0;dashed=0;html=1;strokeColor=none;fillColor=#ffffff;labelPosition=center;verticalLabelPosition=bottom;verticalAlign=top;shape=mxgraph.office.concepts.on_premises;rounded=0;comic=0;fontFamily=Verdana;fontSize=14;fontColor=#FFFFFF;" parent="1" vertex="1">
          <mxGeometry x="552" y="504" width="34" height="55" as="geometry" />
        </mxCell>
        <mxCell id="70666756c84bb93c-12" value="Normatividad" style="shadow=0;dashed=0;html=1;strokeColor=none;fillColor=#ffffff;labelPosition=center;verticalLabelPosition=bottom;verticalAlign=top;shape=mxgraph.office.concepts.globe_internet;rounded=0;comic=0;fontFamily=Verdana;fontSize=14;fontColor=#FFFFFF;" parent="1" vertex="1">
          <mxGeometry x="441" y="140" width="49" height="49" as="geometry" />
        </mxCell>
        <mxCell id="70666756c84bb93c-13" value="&lt;div&gt;Consorcio &lt;br&gt;&lt;/div&gt;&lt;div&gt;Complexus&lt;br&gt;&lt;/div&gt;" style="shadow=0;dashed=0;html=1;strokeColor=none;shape=mxgraph.mscae.general.continuous_cycle;fillColor=#ffffff;rounded=0;comic=0;fontFamily=Verdana;fontSize=14;fontColor=#FFFFFF;verticalAlign=top;labelPosition=center;verticalLabelPosition=bottom;align=center;" parent="1" vertex="1">
          <mxGeometry x="550" y="135" width="48" height="50" as="geometry" />
        </mxCell>
        <mxCell id="70666756c84bb93c-15" value="Empresas S" style="shape=mxgraph.signs.travel.euro;html=1;fillColor=#ffffff;strokeColor=none;verticalLabelPosition=bottom;verticalAlign=top;align=center;rounded=0;shadow=0;dashed=0;comic=0;fontFamily=Verdana;fontSize=14;fontColor=#FFFFFF;" parent="1" vertex="1">
          <mxGeometry x="647.12" y="189" width="45" height="51" as="geometry" />
        </mxCell>
        <mxCell id="shK0o6eYTKU5Cj1UoSUi-5" value="" style="shape=image;verticalLabelPosition=bottom;labelBackgroundColor=default;verticalAlign=top;aspect=fixed;imageAspect=0;image=data:image/jpeg,/9j/4AAQSkZJRgABAQAAAQABAAD/2wCEAAkGBwgHBgkIBwgKCgkLDRYPDQwMDRsUFRAWIB0iIiAdHx8kKDQsJCYxJx8fLT0tMTU3Ojo6Iys/RD84QzQ5OjcBCgoKDQwNGg8PGjclHyU3Nzc3Nzc3Nzc3Nzc3Nzc3Nzc3Nzc3Nzc3Nzc3Nzc3Nzc3Nzc3Nzc3Nzc3Nzc3Nzc3N//AABEIAIAAgAMBEQACEQEDEQH/xAAbAAACAgMBAAAAAAAAAAAAAAACAwAFBAYHAf/EADoQAAIBAwIEAwQJAwMFAAAAAAECAwAEEQUhBhIxQRNRYSIjcYEUMlKRobHB0fAkQuEVM3IHNEOC0v/EABoBAQACAwEAAAAAAAAAAAAAAAABBAIDBQb/xAAyEQACAgIABAMGBgIDAQAAAAAAAQIDBBEFEiExE0FRImFxgZHwFDKhscHhQtEkUvEj/9oADAMBAAIRAxEAPwDqdSQEBQBAUAQFCQgKAICgCAoD3FATloCctATFACRQAlaAAihADCgAIxQBAUAQFAGooSEBQBAYoD0kKpZiAoGST0AqG0lthvXUpNVuLzUY4Bw7dxPhiZiki5HlkeXWudk2W3JfhZL39SjfOy1L8PL4lppcV7HaBdSljln5j7UYwMdqt48bYw1a9ss0qxR/+j2xOq381lPbQwQLKZubqTtjH71ryMiVc4xit7MLrpQkkl3HabdteCfnVR4UnJlc77b9fXas6Lnbv3GdVnPv3GNq0+rxXcMemWkU0RUl2kOBnyznatWRZkxmlVHa8zVfO+Mkqo7RYjPIpkwrYGQDtmrafRcxZ306kK461kSAwoACKAWRQggFAGBQkMDegCFAGBQEkiSaN4pRzI6lWHmDWMoqUWn2IcVJaZTztpvDTW6w2T5uX8PnQZPXuT169P2rnydOFyqMPzdCnLwsTSjHuWt/fQadGsl0WCscDlQtv8quW3QqW5Fmy2Na3IoNVuoNTuLMxW0k4HiJyk8pz7BzsD2Nc3IsjfKOo77/AMfEpXWRtlHS33/j4ljw5GFS7Rd1SblGBjACgY6DpjHyq1h9pJPzLGMvzJDLXW7W61efTY1kEsWRzEbMR1+6sq8yuy51LuhDKhO11ruhXEWhHWRbj6T4KxEkjk5ubON+vXb8awzMP8Vy+1rRjlY3j6660ZWm2C6daC2SWSUAk80hyd6sY9KphyJ7+Jupq8KPLvZkEVvNothQC2FCDwUAYFCQwN6AC6uFtbdp3VmC4GF7knA+HxNa7bFXHmZhZNQjtlNb600NzzXNxFNDK+AIh/t/DzXt5nqB586GY4y3ZJNP08v6/f0Kcclxl7T2n9/fqL1vX5o5/o1mVi5cMZDglh1yvp69x5d8crOkp8lfT+fv70Y5GVJS5YCv9Q1LVdUt4oECWzqMhkyEkAJ6kbHOCPT51r8e6+2MYr2f2Zj4tttqS7fyYb2g00yytfqkcrpLHGRuAwfqCeoJxWiVXgtyc+7T+uzU6/Cbbl0ev5Ei6spJ1E7JJFv7QDKFJA32U/ZrBW1OWm+n/nuZh4tbl7Xb5/6D8NNRgWzt9XgiXxgCB7PMOQYPbpgj1NZ9Lo8kbUuvw8vkZNeKuWNmuv8AHyM6+tL60uopdLKoHdvGuFUDnK4BJHUgkMcdya32V21zTp6er+BtshZCSdXT1ZtFlfW96vuXBbup6/zpXVqujYujOhCyM+w9sA4JGfKthsAZakC2FSBbCgAUUIDAoSGKALAZSrAEEYIPeoaTWmPia7qmmiwEkiAm0kQrsgJjJPc9SNz6nYbVysjHVW3r2X+n3/RQtq8Pt2KXVlaGLKxuiJzJHzuOYEdT95+AJIHWudkeyui7dinemo9g9Bs7zUpXW0lktrbPtupwTuT8tyenmfWmJXbe9QeojHhZc9RekbhY8OadajIgEjncu3UmuzVgUV+W2dKvEqh5bZYCxtQMC3ix/wABVnwa1/ijcq4LyMe70PTrtcTWsZ9QMYrVZh0T7xNc8aqfeJrWpcP32kKbjRrh5IlBzA2/KPT+ZrmXYduP7dL2vQo241lK5qn09Co0vUFDibJJiPP4Tsc7Z35vsjvkZAJG+aqY+Qk+b0++/p+popu679BFzc3VzO1/LJIl4meV4z0x9n03xj8ycVjOVk5u175l9/f8mEpzk/Ef5vvt9/Vm68N3DXWlKzxskiuyPzHOWB3wfLt8q72DY507fc62LNzqTfcsWFXCyKYUAsUAYoAxQBrUA1DWNcuYtUuRBJ7mJeVkJBVsdcg575H3Vw8nMnG6XK+iOVkZMla9dka/eTSXEi2aKiIH2VVx7R7dTsO3zrl3WSm1UuxQsnKbUPI6Hb/RdA0iMznw415Q5xnc7V6SHh4lCcuiO5Hkx6lzdiwW8ge1+kwyCWILkGM5zW53wVbsT2jdGcZLaZgaHqk97zrcQlSGOGUbD0Nc7hufZkNqyPn9oiMtlzXXMyUBzzjbShp96l9bDljnJ5go+q/+a83xTG8Kasj2f7nFz6FXLxI9mVkdzCFF0yOQQB4SPy5I6Kvl16gZA6bkmq8LI65n9P8AX38DQrI65mWdtrVxa3cTyN7hPZWCKMqqpkDlC+f45GKuV5k4TTfb0Xp9/qWYZMoTW+3p7jdjuNq9AdgUwqQLFCAhQkRd6jb2bqk5YFhkYXOao5PEKMWSjbvZi5JBWWowXjlbdZTgZLFcAVGNxGrJlqtP6BSTKjiiztrW3W7WzYqHy7Qy8hUnvjBG/fpVfPrhVHnUfjplDLrhCPMo/Q02wuEg1CK4uFZ0V+ZgvU15+majapSOTXJRmpM6FeWy8S6YgxLbx83MOdRknBA6H1r01kFm0ryR3LIrKr9EI4MZIoZrKWJYr23blkA/uHY1q4a4xi6mtSRrwWlFwa1JGZDjS9UlWT2ba6bmRz0VvI1rr/4WVJS/JPqn7/Quroy6FdkyIzBVLEgAbk1DelsFHxpEsvD1ySN4+Vx6bj96o8SjzY0vcVM6O6GaFoULXV59ERwjTfVZtwp+HfYnavO4kXZZyepxseLnPl33Og6ZotrpwVlBlnA3mcb9O3lXp6MSurr3fqd6qiNfvZmtVo3CmqQKWhAQoSV2vWrXEETxjLq+Pkf4K4nG8V3VxlHun+5hNFUov9Gl5guEPXurVw0szhk966fozDrFl5aanZ6nE1vOAjOOVo36NnyNegxuJ4+XHw59G/JmW4zXLIpNK4TMWqSNcktBE2Yz05h2+daMfhXLc+fsuxzqcDVj5uyN0RVRQqqFAGAB2ruJJdEdXsVeraQ1xOl9YSCC/jGA/Zx5NVPIxXOSsrepL9fiVrqHJ88OkhI1hChttcs3t3OxypeN/UEfrWqWRCUfDyY6/YiORrpatP8AQKK7s4V/pNVXk7I3vMfDvWMHCvpVb09H1/szV1flIktxcXU8NvzMFdhzexyEj4bkDAqZWWTsjXv49NdA5OTSROM5RFw7dZ6vyqPiWFbOIyUcaRrzZaokaRwkhfXrbHY5NcDhy3kxOThrdyOmsa9cehFNQCmqQJFAHvjbGe2ah710IZpN9xRqoleILDbMhKkKmSD8TXmr+KZPM460cWzPv212Nk0LVbO9tUha6Es5HtpLsx+Xf5V1cTJpur5ZS2/PZ0MbIhOOnLbG3ehWs+TF7pvTp91VsngmPb1h7LLDgIji1nTRiFhcwj+074H51VhVxLC6Q9qJHtIyYuII1PLeW00Leg5h+9WIcagul0HFk8/qZia5prD/ALkL6MpH6VbhxXDkvzk8yJLrWncuPG8QeSoTn8KifFMRL82/h1DlExZb1vCaaC3SzgHWeRQCfQAdTWmWTZYt1x5I+r7/ACRg5Rit9kO0W3Y5u5FYc492G+tjuT6narOJTyrnfn9ftkVJy9t/I1z/AKgamkjxadE2eQ+JL6HGw/En7q5/GMhPVSfvZz+JXb1WvmUvClwltrtu0myseXPxrn8OsUMiLZTw5qNy2dMavXHohTUAtqkCFoQMWhJTX2gQXuqrcyD3boRIB5jofj+1cy/h8Lb+d9mupRtw42W8z7eZV3/B0gJawmDj7D7EfOqN/B5R61sq28Na6wZixX3EOjHkcSOg/tlHOPv6itEb83F6Pt7zVGzKo6PsWdtxugPLe2TKfOJs/gcfnVuvjK/zh9CxDia/zj9Cyj4t0WZcSSuo8pIT+matLiWJP8z/AELCz6H3ZH4g4c6l42PpASfyrXLI4e+6T+X9EvNx/UFNcWZuXR9JeRuzyKI1Hr3P5VMMmDeserr8NIx/F83SqOzHe+sYrgXGuajHcTp9W3hHMsZ+Az+dYO2qMubImm15LyNbsrT5rpbfoYeq8bPJG0WmQmPP/mlxkfAVov4vtapWvezVdxJvpWvmzUXdndndizMclickmuJKTk9s5bbb2zwZByDjHcdqhdAjpHDGpS6jpoa4U+JH7Jfsw7GvWcOyJXVe13R6DDudtfteRaMa6BbFsaASKEBrQkMGgDFAFswwcEeRqGt9w+oiTT7Ob/ctoj/64rTLHql3ijVKmuXdCToWlnf6HHWr8Dj/APUw/C0/9SXFtpOlWz3MtvFHGnU4zk+QHnUTqxqIObXRCUKaYubRous69damzRr7i0/tgjOAf+XnXncrOsu6LpH0ONflzteuy9CoxVHZU0ShJKAz9DiSbVYI5IjKhb2l9Ks4kVK6Ka2bsdJ2pNHTURIkCRKFUdhXsYwjBaij0kYqK0jwmsyRbGgFLQgMGhIYoAhQBA0AQNQAhQHO+K9X/wBTvjHE39LASEwdmPdv0H+a8rxHL8azlj+VHAzcjxZ6XZFHXNKZKAlASgNk4N05Lm5a5aRleBgVArr8Kx1bPn32L+BUpy5t9jeCa9MdwBjQCzQClNCAxQBA0JDBoAgaAIUBU8UagbDSZPDOJZvdoR1Gep+79KocRyPBoeu76FTNu8Kp67voc5/KvInnyUA61ga6uEgj+s5xWddbskooyhBzkoo3iLhPT1gCSh2kxuwavSQ4RTy6l3OzHh9XLp9zGl4Nticx3MgHkRWqXBoPtIwfDY+Ui10fSYdJiZInLs/VjV/Ew44yen3LWPjqlaRnk1cLIBNALY0IABoAgaAIGgCBoAwaEnuaA0fjO6NxqqWy7rAuAB9o7n9K8zxa3nv5F5HD4hZzW8q8hOm8NXl6nO+IVI2LCtOPw225b7IwpwrLOvYrtQ0+50+bw7mMr5N2b4VVvx7KJamjRbTOp6ki84Js/Eu5LlukYwvx/mPuro8Ip57HN+Rc4dXzT5n5G6k16U7R4TQAk0AJNAATQgAmgBoD0GgCBoAgaALNCT0NQGBbaTbQ3EtzIoknkcszN6npVKvBrjN2S6tlaGNCMnJ9WyxB9PSrhZFXNvDdQmK4jDoR0atdlULY8s1swnXGa1JGPpenxaZE8UJJRm5hnqK1YuLHHTUTVRRGlNIzM1aLBM0AJNCACaAFjQA0BKAlATNAEDQBA0Aq5Fw0eLWVInzu0icwI+GRWL35GMuZr2WIC6nzH+oteXYj3Lf/AF8Kx1P1NfLb6r6EdNTEMgSe3Z/D9jMZX29u++x37bZFT7eu4krdPTQu0h1ZLOEXF3btcBMSExFgW33BBHpUJT0tsiEbuVczWx6JqADc89uScYHhHC+ffep1L1MkrfNr6Drfx1Q/SZI3bOxjQqAPhk1kk/Mzjza9pjOapMgSaAEmgPKAlAf/2Q==;" vertex="1" parent="1">
          <mxGeometry x="654" y="403.99" width="58" height="58" as="geometry" />
        </mxCell>
        <mxCell id="shK0o6eYTKU5Cj1UoSUi-6" value="" style="shape=image;verticalLabelPosition=bottom;labelBackgroundColor=default;verticalAlign=top;aspect=fixed;imageAspect=0;image=data:image/png,iVBORw0KGgoAAAANSUhEUgAAAQUAAAB3CAMAAAA91aXdAAABs1BMVEX/////wwAAoDz0thUAda4AwOf/PCQAQ20Aap7/Dmz+aiL/nwoAgUAAuzgBl9bkGyvXmhu8FEX/Gz4AcKu80Nr/9fYAaqhTlL4AMWEAZaXs9Pj/QVlGi7qgvdXr+PspcKujxt0AuuX/CTUAjtP+AADhAAD+AGHUkwD+XQAAY5ryrwAAnTJin8YAhtH+mAAALF/jABkAezODvpG4ADb/6+bg6vL++vL+nKYAuCoAXJd7pce3AC/+rIn+gY//ABX/AC3+ucH+qrX/X3Gjvsz41Y7/2d30vURlt3YAlRc3wlSn1LBdy3Pv+vL868pFrV7/8N9ktuJErN4AcRr+lIn+rKT+XVH+cmX+iH3hsmHt1K3O9PrbpkOF3/LsypNQzuz/iK//pjD/3ND+dkLmrLr+xH/+WJD/tVn+yrb+NXr+jFz+AFH/apvdjKCJpbZfgplYc5AAE1EyXH/2wl7702X45K8AIFk6SG371nqDvtZPeqig3KfL5tJ204l8z5PtZG3nN0Om3vDnTFVDkF1fn3T+TDynyrWKvJ/+tdDQa4HIW2f+zznEP1z+oL/+yt3+nHb+u5+xABUKN0T5AAAUVElEQVR4nO2ch18a29aGUUkssQOiiF6UBEQ9VpooCSpYaZZEUdFosMV2o54LASHEHuv5k7+19p4ZhhwTSzg65DtviDBFfrMf1nrX2htEJPpX/+pfCUEKg0Hau7GxaRCJZFaryebQ65/6kh5XChj+1qfmP//bXF7+XylQKH2NelMZAxiyp766R5EBCGT/2Zz9aWtzs3czuxwpVNbWdpf29NS+efOmtMdqczz1Nf7T2tj6X3l2dvYmpMLG5ubmJ5bC68vanu7S2tJSIFFb2dP91Nf5j0mhgB8bzc3SjY1Pm1tbm1uQD9kshcruUlNPZSVQABKlr3vgVKPxqa849TKolJ8Bg+FT+VbvBsRC1cYm5sSnZkoBhm7tsZq6bdYe2HiDOdG37fvNOFRXKTt0OTBgxWb5J3CDzc2tDVSCAv4rLa20Wq1gDz1gkcas+vpt11NfeCol/dzRodN1VMHD3uxs6gsbnz7hIyYj3iADzAe8f2OCE3ezspCD56mvPVWSKityLCGlUieG3kBBxp6d/QnCgUfBZAVTpCBKaysxIbYBgt1eX7/zW6SFwVKmk4csjaGQsgNGDP5IIPRubfUiB0ohJrK9rrRVVvbU1oIvWCEhXBAKfbv2vu36LH/6c4BkECtDjfKqkDJHJ4cdhj8RAqmU/9tgKfTIunu6ZVbbJbDoqbXBafZ6gBCsD/rsv0FaWDp0clWj3BJq1OlycjogJURbUB+hUG709m5ucrHgqLTZZCa9o9IkMlVCKHj6IBa2s/qC2z4fhENaV4sqiS6klGA+NMp1ykZlhwV2GspJLGzAJAKyg4kFa4/JZCp1WB3Wy1KbiIQC+EJWn323rw8doi99q4WlQyxV9ebIGxtDKqSQk5OD/gjBUA6NI0wlNsoZCtA5l0LTZO1xmLrf4EziLIuoHuKhngLZTddwsHTkWKRSi65RBfnQobLocnQq2N1LgmGzF7onrkaU0q4RmudKK5ziqqcQ7PX0AT5O22io0nWEMALEnz9/losaO3I65KR/xNFvZTeXJ1GgqiV9Y5AMvt4f3O7rYyikJYShMP5U6dAUcyTYL4kMSpWyQwUPNsqzOX1P4Q1bJut37Vn2PnuQOERWH5YJZ+QJB/QQRcxmcsmQFKgOi1QhqvqsMBB/lP6EQq0NTrAjBaPIt71tt9NI2MUna8tMLwzOwQLzoBMeKOQsBpEhx2IwyMWQEtX/+yEF0jcatykFkWu7z079AZ80ktnQ73zigd1HkUFzAYuhUUcwWKosls9iuY6mRPMPKRBvTIx8l1BgIWQOpBEGAmFv2DyIAaygSWGxKHVoEjox7vtxLGAoUG/Moh0j+AJJh6HMhgZ3W2baYHACBPPe0DATDSIxYBA35tCYyKGTifKbKdRWwkEPUxWwUzK6tpl0aGhoaGuLpE00KIYBwmB4OJEUSsDAMIAHjbDL8INYeG2Dg362R6gnYtIBFDka6HcPtD3l4O6sKEKI7u0NFnAY5BwDFF1suYlCbSn2jVlJIhAgHTIhIzLd0bB7YOhpx3cnhc3D4cFwNBoepBh43sAEQ2Kxpby8mVmJp6ssdHmlng+BegIAQLnbov1D7gHh18sIJAMEwnB0cBgp8JOCpaAkiy3lzc3ZOLPEaWa31VpZ+xomE8zyCqd6P3lOBgJUyqF+d2aDW/DWMGgeHB7eA280Dw8ODt+YFNQfN8n4E5I5unvYvpGDwHpCQ3//QAPBEHY3ZDYI3RrC5nAUKIT3CoYHgYN5cNBsHkYMhgSGDuWPfhtdwf43CG4cf7S/LUqjwQ13wraGSMHwUHhosGC4IBKJhM1mczgM0bBHMOjYUimu+tlTJKaR9UGcTCsyaTpAMqBDZg5FIRjc1Y8znodpzzw4FA5D+4yzCKPZHB2KYsGM4jFDB2LQ6SyKnz+HJ8hA2EYITncDawnuBtYfMgVdLp3QKZn3SPsMMTuEgWEmFrmHR6XYPDYabnsSnD5APCRDyGyIDrW53dEjst0w0CBog4wAAzLwgmh0MIr5QGQO41VLc+TSOz2LcXebLrlG+tlXHxpHd39bfz9h4G4TeLF0OsMF9PXH5Bg0sxioN9ySDAl5fAiB9QTiC+7MqBOgQBwMCTkQFFJmkGEaD4PRYRYCi+F+4tKBBEMmNI0wr3Qz9UGon3NQqb1xysEZBoMoSCCgSXHf53P28yAgB3e/283EgcwWE+anHKpHCtWFI94psuGMRJMp0Fb6XopkJlMYGBiKUAYOU6zlVSy1l58iqdSFILXay9RyZ9Rs/hUIzESSi4SGNian9NailpaioleCDAYvoQAc/gixHPY4DuYHmfrQwE0MXgEC4PDKmqorT6EUhAC9eeN0nxOmE7yG4d5i7XFggPNEW4wwsJq6v3xJzYWnVCF1oToUKiwMERg8fzCb2UWn+4vMIQYG2jg/+Iq5ADKZYkUtAkwJHHx8RO0FEuqREUAywnaJe+aCBxf4SMNAJpsLjtgrigB/fo1ZW4SXElPoCnEE4VXHRSrqkwyHyC90em0cA+oHRV9i1u4vLbHuWHfRV8F9TjSk9nq9cXVh3DuiUsWnqE8WsgbxcHEMSAQUxaz4IVl4aI2ZvhbZfvXZU6zqEXXIO+v9wzsSGjEoFJQC5fDrk2AZmgDJhSJchxHZXoE9xqyxV6Zfv/CUamoEzCA0AqEQKoQ8iBdyUv8RT5ymkFqUSqW8iraYlkYqi5SbXxhUuK3izzf0piLGD9AVRTIH+ENRS8wEKRETWBsdV3uhdVSPhMAgpSLDSIJCIY+CwlJWJgFVKMncUllRhpKUMdsiUZWY7KpQ8ubf3a+KErI6bJASUC2/dsdsX4sEZgwq9Ug87lWPeON/FBoMhWoehcLEWZYyMZUEP+4mkkvE7HYZGbaKO87D4OBBKPpqw136WNEXU+yr0NrHam+hYYqmwUhcWu3lUYCKwUoqIQDwVobvzTAUJLgL1yINYk5lvFU5U0uCQotVD11DNwQD7nwlrM9LK0YwDJhhQ/PEj4XEwkpVGQCATQsMs8JAKEjk1dWGRqQB21IMBTwuEZfJE9bQzaNQ9KXbFANjJB1kkcCaaIMaxb38PAbqEa5GKORl4jLy+a7/AAUpQwEP4OhVkBAVYjGOXgqxwaPg+JKUEzFTt81EKbQIq4k2QLeo/oMRjwfOKTgKBqWERno1UlDxKECI4MddwBYk5FMeyRRkX/kpEeu2giEwann0kd4qBWoqHo+HvCNskVCrVdzxu1BgYkHCzwiRtYUKE+LLVxIMDr2M6JGHeF9VV08BEJXXmzD7WymgL0hU2DSoVPxlWtsXsAKTyQZFMv3/oOhWCngCsc/vJMNX/rGv9gE62j84Po5EnD+dO95KgfYTkju8YwGS6edt42Pzv3zpKVTbaGvrKKd8YHJ0dIRU+Fhup4BnQK9ww5sWMple73A4bOPjYxNvn7/kNP4ow7uj2lrzGR0djOa3ooAG7Nw/Tpx0OwWRgfRV6A1JgqFPvD18zoz+OZVwKbQeiZwHHBHccZA46Q4URNIKbCQl30XD88TYE3oHcSE8Cvv7+a37kAGR/V+gAF30DUnxNwIYCuNj4+OHgqMQOWiFUAAvOOIHw30pYLMAGPiTSpHsewAkMA7RIARF4RgGfnwAJI7yj44j+XwKCX+8GwWYc0mSZ1MifTKDt+Nj4BHPxybevXtpe6wR3kXHWBf28/eP9kcjzsg+Lxj270GB6ZawheR30KJ5vikcvnVMjC+jL7wbn3i5/Ngj/ZmORo+O9yEWjvbzoUImUUisvN5KoaqiogLnEVVldI7JysajMK5fPpyfAF+EWBh/91JQ/cLRaFvbwTGUiEjb6LGITyH/iDvpdgrsbEqS3DuN8ShMjNveLo+Njb08HH83/valoBabIqP7hMKB0wn2yCsRo60JCgo5k/43URDzKYiTY2GcXyhfvnOMjc8fHh7akMIjj/PncrbuHwGFfDLmYxIK2DntH/DfiVA0Spj1BXHy+oKBmUXxY0GcVCTmxw5fv2YwvD4cH7PpJyAWwCQfcYy3y7mff3BwQBIAzbG1lTTR388qqshkSaEga03VlILSYJAqmVHj+oLcIFJYJEkLj1T68YmJQ1okX74es70lFfPdYw3wTnIeYCzskzYJouDgOHLTvIrku8SivGHdsYyLAbkFIUlu/CQczJ/ePSfJ8ZLpnP7ZYd1Xx6MwfSIURkf3+UFgdPH+7MtSwS62kh5ZLmE2xZIKHLQC55QSyXfNY3U8ziMig8KQmEoIjMLRKDZNkAjHkcR7UUaPb7JYq+WdZiFvR0gk9P0HObMlETPdgUHJ7lElfmeqpubZ7MwU7y2u+Ym3DAVhrcSLIvmj+wcHR4lE8Hhc/kmtVltcrPXxzpNaGuXyRua9KVUVI+6FV1TJ8b0rC38aMVvz7FlNTQ2AmOJQyBzjE+/evnwuqEIJxnDMX2Jx+QLTMHxAANJOJ52Ji5M/eSKFAcTfMQUQiPB+Nj7F7pfJ9DabcFegXP5pFgBVUjDcW7MsBVazU7f/0pMKjQCyQDs9zadQPP0L3xww9ex7YXbEITcE+YFwj8/vn0Yj0E76J/3+pGDwP/hZq/8WCgyJ2ZmZuACDggRB8TT4gWtSW+yaTk1OTD1LolCTwAD/4ym8/BTJRYZt92unXWALSIIXCw//1oDqWT6BGXZrBmNEgLFgxKKgnfZNa31gj55ijoK2+JfcUTTDUohXT4lkU3EEAWVz5tlsiq48pYIomJye9MEdOITPxwYDxMZDn9FI/oBOFGcSAYrDTBw2MQxmZ2efxVN04SmVRwsIfJMQDMXww8fkhDZAssGzdH+HNAYzdkh1YSyyZgYexCFFap5BINTUCLJIGANaP5YHO/iAX6v1+3jZ4GpqarpvXgCEjIwzGg4kK2pmq6unFBAE4ArgCzMpvv4UyYc1kgQDoeDHokmywehvevHixT0xEAggO4mlKdJHQxJMQRTMIgUheiPKOAlD99v9/mLIBx9mBv2CId8SQgAMgXt0T66dDEbbJByqZ0hW4PBrIB8EGwrEGfzTk5N+bBehi56m9TFAGSCGF3fG4M/gKUh2sV1kzUx8Ni7IMsloUuubnKY1UltM7dCzxEFADnetF2d8CpxJsr2CcF0B5SnGUPDzbNHXlARh6a7tkyuJApgk+UVSM2dnoEQ8E2SBYOTT+nw+F3aL5NXzBF743/Mx4N6Ti5/Oh/Xrp7h2Yk/GkLFDomiKuoMgm+eEwCBdUB+KaeD7m5oCPtf7RChgfMg+anLnfrhG5Dht7+w8xS+53PkOQwavhRJyPqB82kS3CNkQ8Af8vuR8mNPk5mpyLy5vCAiZ47SzswR0CRu7iXQ4yyA2Qf72nJqkcK2RCibXzHKCHwb+3uWHaGC8gYTC5UouSrOy9reAuPxW0o4MStpPcbOPzQWgQAODxSD0UMBJFdMkED9oeu8PBPy0TjQFYLdsTZNLpVkECvMLrOCY468SRp3r+ExcofQYg7Rm9JGsUMSfbnj3kpFpEigEH+mb3uOBORZCbu4a5MRyXR5VnR4InZdwGDAnaJ0I7njsQc8OYxPBNPpmP+bFb3qxtBQIQBvpCgRoq3CZgJA7B9vXHAV8C/5bO0uhnRgk6aH7gq5d+y4tGTtsrUgH0erYtAQsmpagmQ54PAGSD6IVHoUTePWvOApdcHS9kwuGkg+w7cE86Otz7e66aCzY4edZumAg6bAUgDh4Ad7ob1ryLyXqAycIen0ep1U47OBR6ETvJDkRPAsGEcJZEJqnIFMw00GI4X3Av+QLBDz+9ziBeEHygccgdwViXl/HUVgAY9AnIJS0n2MpDdIigWUCCOycsXUiLYTm+H4JMAQCS0sv/l4fSImAPfMJCnnzQOGcMYZ2uO/kcoJaQvBsZ/csnSAABkgByAgfkKCtI+bDBULQaCgKTZI5UnuUnRIKnX+dOvAe335je6ed3b4gQEi3r8gGDJgPwIKdSjo+Yh7MOU4WCQWshQu8WLiG7Q9I4dsH2Qc0yvZvXE5k7O6e7QQz6oNPO6b7C6MBm4X3aAtk7RHzYWVxRbNyQppodD8eBFIkgEL7umhdBBzOmTqBBpkVtJ8Fd9h1hrQSeAP0THDDPhq2TzATVnLXVj7mki4aXmgZUqiDH3i7AlIO4oqXlx8+rENyUIO0Z5zZg3BLK2PkCTBAOECVxPUWB+bBykru3OXJytyahjPHq/mrha6rBaZInGOJlJ2un5LcII20CEokVsg0hQDRjOZAWwW2PixenFzkzs1pNBdwvKsubzVPL+q6Wl1lukcaARAJtJn+i6kTMI3YSd/vioesWHrRhNd/QSFcQBCsaSAjNNA5imDsV6tX88t6/TXbPUIItH9Yh4pJa+Y5WyfsaVYckmT0NZF8kGFVgNuJbeWj5gSR4Pe7Qh6sAoZrvfEKjQHO+wDdY/v6emd7ySk6A3olnNeX8Wvv8T29PGx9WJsDV9DMOS4dUCI0i2B886Q4QD5cYcWsWzDSHrod8mEd/PH82yXgIHUinQOBk2xOsza3OAdazP348SMGxRxOqykFmeh6gdRKzJx2MqFcX8fb+fplSXunwD7A9XDJFsEN1ubWFtcICMwOxhxxGrU8f5WYXJMe+vwU/BH07UNJ57ffhgKUyY+axYuLi8WVtbmTRWiiiTle1ZFeoS6P3OfVYfeIk+v1dUgHzAmIhHXhfn7rATpZW8GlRgiFtUUHxANOq1cXlq+7usht+QpY4OQa7LEd4wD+Qwt9+vsEAiOcPyCIxYu5k5UVsuaYt7CwetXV1XXVdb262pWHa4/6v86/rWN96CxZv2mZOv0lu5zL/ajRzF2ckBJBzHG1axkwdC2vXl/n1WFT3X4Ottj+1/mH9P9b4h9KhpmRu8KbVtdddV1BLCxcX6/WzePkurO983z9t8uE7wURsbaWMMe81WuSEVfXzLTy9PdHQEX/dPz6anVhAesDamEBImKeO/b/SEb842lWT/pdCv8HVT1RD3AVb6cAAAAASUVORK5CYII=;clipPath=inset(1.26% 25.86% 1.26% 25.1% round 50%);" vertex="1" parent="1">
          <mxGeometry x="533.5" y="490" width="81" height="73.40625" as="geometry" />
        </mxCell>
        <mxCell id="shK0o6eYTKU5Cj1UoSUi-7" value="" style="shape=image;verticalLabelPosition=bottom;labelBackgroundColor=default;verticalAlign=top;aspect=fixed;imageAspect=0;image=data:image/jpeg,/9j/4AAQSkZJRgABAQAAAQABAAD/2wCEAAkGBxIQEhUTEBIWFhUVFRUXFxUYGBUWGBYYFRcYGBYVFxUYHSgiGRonHRYVIjEhJSkrLi4uFyAzODMtNygtLisBCgoKBQUFDgUFDisZExkrKysrKysrKysrKysrKysrKysrKysrKysrKysrKysrKysrKysrKysrKysrKysrKysrK//AABEIAMMBAwMBIgACEQEDEQH/xAAbAAEAAgMBAQAAAAAAAAAAAAAABQYDBAcCAf/EAD8QAAIBAgMFBgMECgIBBQAAAAECAwARBBIhBQYiMUETMlFhcYFCkaEjUrHBBxQVM2JygpLR8BZD4TRTY6LS/8QAFAEBAAAAAAAAAAAAAAAAAAAAAP/EABQRAQAAAAAAAAAAAAAAAAAAAAD/2gAMAwEAAhEDEQA/AO4UpSgUpSg0tr7ViwqZ5TboANWY+CiqTjN/ZmP2UaIP4ru35D6VFb27SOIxLm/ChKIOgCmxPubn5eFQ1BZY9+MWOfZn1Q/kRUpgd/8ApPD/AFIb/wD1b/NUalB2HZm2sPif3UgJ+6dGH9J196kK4epsbjQjkRzHnerPsTfSaGyz3lTx/wCwe/xe+vnQdJpWps3aUWJTPC4YdR1U+DDmDW3QKUpQKUpQKUpQKUpQKVgxuMjhQvK4VR1P4AdT5CqJtzfeR7rhhkX75tnPoOSj5n0oLptPa8GGF5pAp6LzY+ijWqjtHf5jph4gB96TU/2KdPmapkjliWYkk8ySST6k8680Epi94cVL3p39FOQfJbVGySMxuxJPiST+NeaUG5hNqzwm8czr5ZiR/adD8qvu6e9P6yeymAEtrgjQOBz06N5VzasuFxBidZF5owYexvag7ZSvKNcAjkQD869UClKUClKUClKUClKUHD2NySepNb+zdkviASjKONUAOfVmBIAyqbd06mwrDtSDs5pU+7I49gxt9LV8hxzpG0aMVVmDGxIJsCLXB1XiOnpQexsqcgHsmsVzDTmp1BHr08a+Js2Ymwja97cv4Q3P0ZT/AFDxrYw23ZY75cuqRL8Qt2K5EYFWBva/kfCvuH25MuUCxCRmO1mF14TdipBuAiC4I0QUGt+zJrBuyexIUaHmWKgW53zAj1rIuyJiQCpBLBbENpw5s5IFsttefSsqbemDZhlzWAuQTe0rTa3OvExv5fOvkO1XAKpFHkIYtGqvbLkytfizWtqTe+nOgYaHFYZjLGrp2ZILWsNCLgg8xqNCOoq97t71JibJJZJfD4X/AJT4/wAP41RMTteZu+qjMjgcJHBJkBy68gIlAPkedRgNB3GlUrdPe7NaHFNxcklPXwV/Pz69ded1oFKUoFKUoFQW8W80eEGUccttEB5ebnoPLmfrUXvVvcI7w4Y3fk0nMJ4hfFvoPXlQHYkkkkkm5J1JJ5knrQSk74rHsXIMhBAsLALmvZVW/Wx8zaoo1v4DabQoyoBmLxuGKq2XIH1AYGzXYWPS1SCbwhY0UK+ZAbNnvZmieMst+XE4b296CFfDsozFSBw89O+CV08CATXgoQAehvY+lr/iKnf+Q3y5lcsFjBYtxApFLGWQkaNeQPr1BrJh9upZ79ops1mDDtGLSQt38tgbRsSSNb2oK5eskcDNlsO8xUajUi1xry5jU1PrvGlgOxI+0L2DaKSZDdARwkdoLWHNRWBNuKLi0uuf7TOvajMsIzBsve+yN/JzQQdfGqbxu3e0R0yZVcPwg8IZp+1DWtzAuvvWpsHB9tiIo+hcE/yrxN9AaDruFTKig9FUfICstKUClKUClKUClKUClKUHNP0gYLs8TnA0lUH+peFh8sp96jdpTR9hEqhe0YAyFcpsEBWMacmIJLDncC9X3ffZvb4Ysou8XGPMDvj5a+wrm2zoBJIiMbBjYksF0/mINj7GgnNp7TgVpBEqsbSBHEUWVcxjygdGAyyHMRfjrydswDMEQjMkii0cYyKypli0PGLq3GdeL1rzPszCoHOdmsHYASR/DDHJlvlNyWZ1v5cjatiTZeGGUBxZHcZ88ZzfbKFV0tdrqWsRYcJ6UGKba+GLErHk00YQxMVGfNkyM2U8PDm5+1a/7RgygZD+6ZcnZxizGIqW7QcTXbi8q2H2RhuE9qeIvezxgaLK2UC3DYogvqDm6XFI9mYdlGU/GCSZUDBTh1kCd3U5ywvb4T7B5n2xBclI7mzZSYohkBkjZY8uoOVFkGY68VQmLdWkcoLKXYqOVlLEqLdNLVv7cw0UQRYiGs0wLXUkgMMhYr5VFUCrxubvT3cPiG8o5D9EY/gfaqPSg7jSqfuVvJ2gEE7cajgcnvKOhP3h49R6a2h8dEPjHtr+FBsVRt8N6u9Bhm8nkH1RD+Jrd3r2zIydlhfiHG97ED7q36nqf9FDbZ8o+A+1j+BoNalenQr3gR6givNAqajXDqikFLmJ7nMxfOYZLqyEZQM+UAi3TnzELSgsLYXBgmzIdZSgLuFteLsw5GoOUym3iAD4VnlhwLszM68UzHhLDgMrC1gdFy5TcKNDzOtqvSgsk8eFZSWaMMsAUKrNYOEc6HMM3FlFzm/OviwYIyc1Cq0gsXc51HZZWvmFjxS9fh5E865SgyYlVDuEN1DMFPO6gmxv6Wq5/o42bq+IYf8Axp9C5/AfOqfgsK00ixoLs5AH+T5AXPtXYdm4JYIkiTkgt6nqT5k3PvQbNKUoFKUoFKUoFKUoFKUoFcl3p2T+qzsoHA3FH/Kfh9jp8vGutVDb1bH/AFuEqP3icSHz6r6Hl8vCg5PSvrKQbEWI0IPMEcwa+UClKUClK3tn7PMmraL9T5D/ADQa2Hw7SGyi/n0Hqa3BFh4rmaQHKrs1r5FEdi4JHxAMDl526V4xm1CmdMOOFT2OZU7k9swjJY2JcFVUkWDlb3zWr1srdd5vtMX1a5BUBpMoMed0tZe0hdo3W3wqwynQBrPvQsSAiDLlkkV1JMZRI2Q9plK3P2ckb2IUa2vcgGV2HtHEy4l+0BCmJhlySLHE8M7KLu11d3SQNdbXCDS1rzOA2PBB3Eubg53LSOSBlUmRyWuF4RroAByrfoKjseLHNDMcSv2gjuq5QD2mV8yIRbMt8lufPvN00cZicbhonYqMscctgyOTaHCo4cvfUGXMtjzF9dKvlBQUeDeEKGTEIxEakPMFLI7pkVsoC24mcBQNSQdBpfZdMNJbJIEZiAFPC2ZlLKpiazKSATYgHQ1Zptnwu2ZokLZkYtYZiY2DISw1NiAQD4VVtqbpsGMsTZrGZrBVEoE7mXEZWOkjsAIkzZQoc3JtQauKwTx94aeI5f8AitetrZ+31RMuLCpxFVCxShcikKCykHKlyoDEgE3FgVIrxj2iF2ia4HNbHT0/xQYKVq/tBPE/Kgx8fifkaDapWAYyM/EPqKsm5uy48TLmkdOzQ93Mt3botvDx+XoFm3D2H2afrEg43HAD8KHr6t+FvGrdSlApSlApSlApSlApShNApVe2rvhhoLhT2rDomoHq/L5Xqq4/ffEyfu8sQ8hmb+5tPoKDpZrRxG2MPH354wfDOt/le9ckxeOll/eyO/8AMxI+XIVr0E/vtPhWftsPICW/eKFbn98G1tevsfGqqdop5/KtsiobG4bIbjunl5eVBu/tJPBvkP8ANfRtFPP5VEV6RSSAOZoLFs6WORuJrKOeh18qybQ2i87GHDjNESih0EvfV1LQyZBmETC6mRQQM1j5w+PlMUYjhYdocuUEqCbsAbF+HMdbX5262q7bp7DGHRXdWEtpBZmvlV3uSEuRGXyozKCbHQaCg2N3NiDCqS371r5iHdwFDu0aXfV8ivkDkAkKOQAAmKUoFKUoFKUoFKUoIjb+zVdXlXMJREy3UM+ZRchWhuFlIzMVDXsxv4358HfC6SRuqkkZCrtIkmbKkRkItiJGUFyyaC3O1jXWKht5djjEpdQM4GXVimaMnjjaRVLqnJiEsWygXANBz/HQDvpYqTra2h5dPP61pVLYIEAxyG4NzGShhMsWnH2JOZAC2XXXQHrWoMCxcr0HXy6e9BjwmGLnyHM/71qZVABYDQV8ijCiw5V7oNnC4+aL93K6eSswHyvY1NYLfXFR94rIP4lsfmtvreq5Sg6Ns7fqB9JlaI+PfX5jX6VZcLiklXNG6uvipBH0rilZ8Hi5IWzROyN4g29iOo8jQdqpVJ2FvwDZMWAp5dqOX9S9PUaeQq6o4IBBBB1BGoI8QaD7SlKDU2ptGPDRmSU2A5Dqx6Ko6muabe3lmxRIvkj6Rg8x/GfiP08q+737WOJxDC/BGSiDppoze5HytWtsbZyT5s7lTdVVRlBYtfkXIBIsOG9zfTlQRlKmMJsF2K5mAuAWUXzoGV2jJBFtcnQki+tq+nYRGYs4AEbso5s5SJZDawta7qNSD60ENSpiTd6RNXdAoCm/GL5nKBQCl82ZSNRbUG9q9Nu+wzjOMwKhE1JIaYxBmsvLRjpc6ctaCFry6BhYjQ1OR7vsGtI6gWbKRmu5EJlsoK6aZb5rc6haCExWHMZ8uh/3rWfZcVyWPT8T/wCPxqSkjDCxGlae1cI8GHurMC5GVkCE3ZrAWcgcvEjyoN3dHZ6YueSSVQ68JRrlHWMaBGjZeJGOfiBv3wbA2PRaru5GyP1aDiQIznUCNoioHwlGd/iLtoQvHoKsVApVHx2M2hnxUsaTBJY8QkAy5uzeBfsnWMcS9oUmOZhrmitfrsftrHlnCRAgGIIWw+IByvJAvaEGwN0kmcrcFMtj3WoLhSqtBtXGF1SVCo+0AIw8pEpWaeO+YNaD7NIXBJObtNL8q0F2tj0GYQuXXDG0ZjxBGmFWUSmQtleQzjsuz1fz5kheKVWtpzYtsJiFAbtVniSNo1kiLoZICWFizBbPIpZSbBSehrVxqY+CGSNWz2gxMosJpWzXAhgSfMrki5N+8baeNBb6VVW2njw9+zGTtWGXsZL5FxqwDjzdYWMl7clva168bO2xjppFQxlFaVLu+HlUqhjndlILWDBoo1zBmA7Qam4oLbSqnu/tXFs+HjlicKYk7QvFLdWMAe/asTfjupzENcWseZtlBz/eTYq4Wczq0ao8me0koS5ka8yRRKuaWU3ZszMbXVQLDSR2jCpiV0UgKSLEFTa9rkHXmPe96kt8cMXw+YOUyNclc4ZlYFcimPjuWaM5V7xQKdDWlswZ8P2bFs6AxvnDKwYDqGJPVbEkkixJvQQtKVYW2CjM8cbMrxOiF3tkfMG1UBbr3bgXa41oK9SpiPYJYArIpuEYWWTuyOVVu7/CTbmPnZLsFlDHtE0DFbZjnywibQgWHCfHn86CHpU3iNgWYgSAfamNVIdibasQQvEANSQLCsc2wyh4pF5gLYMc4yI5N1BC8Mi6nTn01oIirHunvI2FYRyG8LHr/wBZPxDy8R7+uJt3iSUVgH7TQEsbRmYwKxIWxOceI06VFY7CdkV4gwdA6sLjQkjkRcaqaDs4N6VzvZO+xghSJo85QZc1+gPCPYWHtX2gqsyFWIbmCQfUGxrNgsbLFcQuy5rXC9bctPEXNjzqwb9bFMUpnQfZyHi/hc87+R5+t/Kq5hJCkiMGylWUhrE5bG97Dn6UGdMdPZFDvp3BqfEadTzYe5r0mOxNms8ljo1r2vlC2vbTQKLeQ8BWzLtgDEtLGn2YVo0TQZYypUWuCAdSdQeZrZj3jvnLqQ1nKWbhJaRHs6gC54TxfSgjpcXiJASzsQCt72BJzm1l6nPfl1NZZcVi4+bSDQSemZiwZrcuK5set/Gtld5MpBSKwBvYvf8A7XlOoUdXIHhYV8/5DZSoiOsfZgmTMbZHS7XXU8d7i3Lw0oNR8ZilTOzuFe69BfKo0A6DK4GnQ26VG1J7X2t+sADIVs7ubuW1cKCFBAyqMug151GUCpjG7G/WVRDKVXKoKFIZI282WRDr6EVDmrTHiFTs7nvFAPO9qCT2fhRDEkQtZFC8KhBp4KO6PLpWxQ1qDaCdoYxmuGyE5WyK2QSZS9rA5SDrpqBe+lBt0Fa0WPicqEkVswYqVIZTlKqQGGl7sBajY6LMsedS791QQSRlZs1hyWytryoK9gN9YpGxAIDCKSNYxGyu7iSc4cEqWGU9oAbG3C6HrWX/AJaGyCKCUszxgowjDMshmXgtJlzB4HXiIGl9RY1LjZuGIjAjjtGoEYFuFUZCAtugaOM+qitVsJgXC6QNnNksynMUZ24LHUhpJDpqCxoNNt84FGYhyrZCgCqHymISOWDOLlQRout9AGr7jt7UTOI4JXZWZV/dqJMmIjw8mQl+jSL3gt7jztmaPAGNCUiCP2aopAUtmRERVXmRkdAR4HXSsuKjwOR3k7EopkDm6mzOwlkXQ98uitbncCgw/wDJ0eXsY1OZZo42LZCpV2kQshRzqGiYWaxHhU9UTJhcHAVYpGjO6ZfvMzPw5V5mzSk6cs5PU1Ix4hGBKupAOUkMCAw0Kkg6HUaedBlpWriNoxRhjI6qEAJJIA1zWA8W4G051lixKOSqupZQCyggsoOozLzHvQa+2oDJh5kChi0UgCnNZiVOUHIQ3O3LXwqrbqQAdq3YLGcwXOFVXktzL8bt4NZjcFiNbXN0kXMCPEEfMWqg4bAtgMQwEisvZxIyrEkQIRTlaynRuI3PWg+TrZmHgSPrWU46UhQZXsndGZuHS3DrppppWKeQMzMuoLN+JrxQb67XlEQiVsqqQQVuG0JYag2Gp5gAnS5rXfGSN3pHPPmzHmuU9eq6emlYKUG3+057W7aS172zvzve/PnfWvBx8pveV+K2bjbityvrraw+Va9KDY/XpbW7V7Bs9szd+98/PvX1vWF3Jtck2Fhc3sNTYeA1PzrzVt3U3UaUiXELljGqoeb+Fx0X8fSg9bJ3J7aFJHkKFxfLbkCeH5ix96V0IUoMc8KyKUcBlYWIPIiuebxbnSQkvhwXj55ebp7fEPPn+NdHpQcOpXWdsbtYfE3LLlc/Glg3v0b3FU7aW5GIjuYisq+XC39p0+RoKvSsuJwzxHLIjIfBgVP151ioFKVhxWICC559B40DFYgINefQf70rNBimYI5NyAvtl6D5VASSFjc8zUlsqS6keB+h/wBNB1BWuLjkdR71E43YnayNJ2mUkEBhGnaKChTKJD3o9c2RgdettKy7v4nPCvinCfbl9LVJUELDsAo2cTEvmzglWYX+xGuZyxFoRza/Fz0r3s/YfYlLSZghDWKjMziAQXzA6DKAbW59bWAl6UEThtkf+pDmyzl1AB7kbBs1jbmZJJn/AKwOlY59hNIys8/J4nIVMikxSI66Btb5ADnz/wAOWpqlBBxbuhQoWXQdhmugJIgMbJbXhN4tTrz6EA1jXdohWHbks0fZ5mTNwFHQ8LOQDZ+llFtFsbVYKUEdjdldowOew+xDDKGuIJRKmUk8Jve510tyIvWLZ2wkhieIsXV41i1vfIilVFyx1sTqLDwAqWpQQbbu6aSnOY+zZmRWzFu17WQrcDMxmY+A8CCRWxgdj9lL2plLaSqAQdBK6OethbIBwgXGpubkylKBVG2vLmmkPTMR/bp+VXTEyFUYgXIBsPE9B86oe0MHKqEldTpzXmff1oITC4sq2vInUfmKl1N9RUQMBJ4fUVK7CwDs6xM6KGNgzE2BPIaDr+JoPdKu+H/R8f8AsxHsqfmT+VSuF3Iwqd7PJ/M1h8ktQc0UXNhqTyA5n2qc2buliprEp2a/ek4T7Jz+grpeD2fDCLRRon8qgE+p5mtmgr+xd0oMPZm+0kHxMNAf4U5D1NzVgpSgUpSgUpSgUpSg8SxK4syhgehAI+RqHxe6eDk/6Qp8UJT6A2+lTdfGYAEk2A1J8AOtBRNu7o4fDxtL27qByBCvcnkotbWudYjAu5uWH1FvKrXvVts4uXhP2SXCDx8XPmfwt51CUESdnP5fOs2Bwro40FjodR86kKUFg2DFJC/EBlYWOo0I5H8verJVY2Ti865W7y/UeNT2Envoef40GzSlKBSlKBSlKBSlKBSlYsRNlHn0/wA0GDGyfCPeqztrEZmCDkvP1P8Av41J7QxfZqT8R5evjVbJvqeZoPlKUoOm7lbc/WYuzkP2sYFz1ZeQb16H2PWrJXGdk49sNKsqc1Oo+8p7yn1H5V2HC4hZUWRDdWAYHyNBlpSlApSlApSlApSlApSlAqn/AKQNs5EGHQ8Ti7nwTovufoPOrXisQsSM7myopY+gFzXG9oYxp5Xlfm5v6DoPQCw9qDXpSlApSlB6ikKkFTYirFgMaJBpow5j8x5VW69RuVIKmxHWgvMGKvo3Px8a2aq+C2qG0k4T49D/AIqWhxBXlqP95UElSsEWKDaag/Os9ApSlApXmR8ova9aUuKY8tP98aDYnxAXQan8PWovF4oIMzn/ACfIVr4zaKR6DibwHIepqDxE7Obsb/gPIUH3FYgyNmb2HgPCsNKUClKUCr5+jralw2HY927p6E8S+xIP9Rqh1u7Gxxw88co+FhfzU6MPkTQdkpXwG/KvtApSlApSlApSlApSlBVP0iY7JAsQOsra/wAqWJ+pWuck1af0iz5sSq9EjHzYkn6WqN2HjBGko7bsWYxZWs50ViWHAD0PI86CIpVjlx+Ec3ZTlHauq2bQ9s7pHYaBXVhe3LSsbT4MIpVFLCI2B7TV8i6OLAHjzWsSLfKggKVYTiMGALaXiKuqdpc8URsSQNdJNNR58q2VxWCJQSGMomYWCTBcrSk6XFw2W3TnfUcyFVpUxjsRD+rCOIrctCxAD5rrE6yF2PCTnY2t0Pyh6BW5sx5i4SG7Mx0TmPryHnWTY+x5cU+WJdB3nPdX1Pj5c66bsHYUWEWyaue855t5eQ8vxoNHCbvuqAsy9pbitewPgDX19mSj4b+hFWGlBWv1CX7h+le12bKfht6kf5qxUoIWLYzfEwHprUFvZu7Kq9phyzKBxxjn5stuY8qu9KDh1K6LvPuis15cPZZOZXkr/wD5bz5Hr41z6eBo2KOpVhoVIsRQSkuw+HMsigdmGAbNcnsFncDKtgLE2v4VkxO7jAsEkRgGyre6lyAma1xYWLjrUV+tyffbQW5nllyW/t4fTSvZ2jMQQZXINrgsSDlta468h8hQbr7CKgsZUKi+oEmpEhjygFb3zC1+XWsr7v2MgzjMDwKMzGxn7EM1l1GjaDXQadK0tobYlnIzNYAcgWseLNc5iSdT46dLViG0pgLCaS2bNbM3ezZs3Pnm19aCSj3eIb7SVcpBylcxLnsjLpw6aAXvbyqDrb/ac+v20nELHibUC4APlYke9alB1vdTFdrhIWPMLlPqhK/lUtVX/R218KR4SsB8lP5mrRQKUpQKUpQKUpQKUpQcz/SBGRiyfvRoR9V/Kq1XTN9thtiYw8QvJHfT7ynmB56XHv41zQi2h6UHylKUCleo4yxyqCxPIAEk+gFWPZW5eIlsZbRL/Fq59FHL3IoK2BfQak6AeJ8BVt2DuU8lnxN0T7nxt6/dH19Kt2x934MLrGt36u2rex6e1qlaDDhMKkShI1CqOQH+6nzrNSlApSlApSlApSlAqN21sOHFraReId1xoy+/UeRqSpQco25uzPhbkjPH/wC4o5fzD4fw86ha7jVd2vufh57sg7Jz1UcJ9U5fK1BzClWHaO52Ki1VRKvih191OvyvUFPA8Zs6sp8GBU/I0GOlAb8qse726ks7BplKRDU30Z/JRzF/Ggt+42FMeEQnm5Z/Ymy/QA+9T9eUQKAALAAAAdAOQr1QKUpQKUpQKUpQKUpQKhN4Ni4eVGkeIFwO8LqT6lSL+9KUHL54wGIHK9W/dXYWHmF5I8x/mf8AAGlKC64TBRQi0UaoP4VA+dudZ6UoFKUoFKUoFKUoFKUoFKUoFKUoFKUoFfGAPPWlKDykKjkoHoAK90pQKUpQKUpQKUpQf//Z;" vertex="1" parent="1">
          <mxGeometry x="670" y="291.26" width="79" height="59.48" as="geometry" />
        </mxCell>
        <mxCell id="shK0o6eYTKU5Cj1UoSUi-8" value="" style="shape=image;verticalLabelPosition=bottom;labelBackgroundColor=default;verticalAlign=top;aspect=fixed;imageAspect=0;image=data:image/jpeg,/9j/4AAQSkZJRgABAQAAAQABAAD/2wCEAAoGBxQUExYUFBQXFxYYGSIaGBkZGh8dHBkYIxwcIB8dGCEgHyoiICAnHyEZIzQjKCsuMTExHSE2OzYvOiowMS4BCwsLDw4PHBERHDAhIScwMDAwMDAuMDAwMDAwMDAwMDAwMDAwMDAwMDAwMDAwMDAwMDAwMDAwMDAwMDAwMDAwMP/AABEIAOkA2AMBIgACEQEDEQH/xAAcAAACAwEBAQEAAAAAAAAAAAAABgQFBwEDAgj/xABBEAACAQMCBAQEBAQFAwEJAAABAgMAERIEIQUTMUEGIlFhBzJxgRQjQpFSYqGxM0NywfCCkrJjJCVTc5OiwtHh/8QAGAEBAAMBAAAAAAAAAAAAAAAAAAECAwT/xAAfEQADAQACAwEBAQAAAAAAAAAAAQIREiEDMUEiMhP/2gAMAwEAAhEDEQA/ANmooooAooooAooooAooooAooooAoorhNAfLGljXeK/IskSbZPmJNiUQZeX3YFSvrUvxPxOWOFX0wWRs0Lj5vyS1mIAP2vv360oyaxtQbyKpVZZclRbXUxK0Z+osFy6G21UqsWlpWsatZxKTTtNNMwaFgnJQW5gc2UpY9STY37b+lXWj1KyIki9HUML+hFxes94TxCPUHSSzvjNFFK73GUZVbozA2tlli1j2FquvDPGWks8rhUhXDO2KTBynKde3QfYkj1FVm2yalIcaK+Va9fValAooooAooooAooooAooooAooooAooooAooooAooooAooooAoorhoApZ4l4nRHnSVSsKI15ASWJVULYqBewDrYjqb1Zcb41HpzHzC35j4jEXx9Wb0UbAntcUl8ctz9QWHLHNEUjt05E0SoHXqLrNHcfQ1WmTh3GDRNLLCQYn0yxxm4ISQKxSN7eYBxiQOly3qKjcD4kkckWMp5JiWGPmEb4FeYGP62yzAPaxArwXhi/iH0zhTFqGjkEyWNo1SQrYdFclStxcWt62EDXKGdVhiVU0TNz5B5iUc5F4473IJIckfLfa4Fqxp6sNIX0lanjBlGbsFuXjQKAWTTF25koQbXIUAXvYn7VJh1yxaJ0lVjGiMXN7SBA5VXAsbSCTqh9yL7CofiXjCoqzCJY4pQylSAH5uLpYr/AeYGLX9Kh6OCGdXSUyfh40cRvkxZ5/KApK7kM15ApB8zAXNgKiOiaxj14U8WoeHLPMCrRYwyqAT5xiLr6ggg/vTgpuKxjW8RVtO0byyMbIUKi0YmySSWWRRa/mcAA7bHpWp+GeIPNAryAB7srW6MVdlyX2a1x7Gt5pUZOcLaiiirEBRRRQBRRRQBRRRQBRRRQBRRRQBRRRQBRRRQBRRRQBXCa7VR4o4m+ngMscfMYMox36MwBO3oDQFR4204lkij8vkjlmYMP8AEQBVMY32DFgSf5RSvxeRtXeRlLFxFHFyiVjadbyozhhvGAxG991IFyRTL46hiTDWMxB0wN8QC2N0YqDfyk44/RjSfJM5dZdOgEKvDPyxt5yrIsLLcAXuTluA2P1rG6x4aKejvG2k8jxkeZOcTELxJHzDf5gGQqDIVW27SYkGuT6R4MJM3bmSs7EA5NCpRAZAACV5ZJNxte1q8eJwLqJllhMMZWV2Pms7EzJYzIB8iyK4Lb2uDbavXh08izm+pKSRGRlUgMjAN+ct+pUWUgfes2+i8T8PHxdw1SCjcx0ZXeKSO1mVyCM+91JS2OxGPSpWv4s8dkUxsqsmpSQLjGIVtcOQDk2yD1JbtaoOgckyOOYrhctIrgsFhyZ2YAEeTEqD1IOO1VumhWCeGN5Cqc7lM5ZuUYkCs7qTtvJfy/pJ79aldjMLWKSFkJQwsY4jPMhF+YZNzFa4IKoN2/SQvWn7wHG6RvE2IVMAiBgxF1yLt3UOSDid9j61m82lVY0cOIIJpJF5+IZ1jd1OMp/Sbh7A3tlTBw/xIdLJPIsDSGWGFyQwAWVsgMx1Cnym+9gQO9XjEytJtGpA12qrwy0500R1BBmYZPYWAuSQAPYWH2q1rYyCiiigCiiuE0AE12qXiXGF50enRiHmjdlkFiqhLXJvsetqmcL4lHOmUThwCVJHqpsf+e9ATqKKKAKKK8pmsLnYDcn2oCPxXiMcEbSysFjW2THtcgD+pFSYpAwDA3BFwfUUiy8dnmje4jKtOgiLobBOWZgGAa56LZv5r17+CvFKOBp8QEiQhHVs8xGBm2w2TdbHpvbrao3vCznFo70VD4VxGOeJJomyjkXJT6iplSVCiiigOVV8S42kU0MLA5TZWI6KFF7t99ql8Q1iQxtJIwREF2YmwA9TWdcb45+JlkmVHRI9OzaeS1zIeYqk49cWyxt3BJB2qKeIlLWVusfOGZVGK6kNGCRYzs8zESkHpZGUg9w3oKka/VRkzRxqIFBVRmrOsyRSMrEBLMpzvkd7LY1Hg0Opm02mh5oLvFI97f5dowI7gi12wsw3UC1ReF6lnki5YleZHl5azEWCOXV2YqLnE3Hrlt+quX37N0SNTL+K0ernVUzWaMgBtrRKpkCNYXVrsL96jcT0KyhFsYmR52e9jghGTi/6lAbK1er6+PSrqbujBRZk2xD3EIDf61XI+2+9RWdFiaPUG8qKQCuXmZuX+ax6gcogknYBjULd79F8Xz2T/Fk+UCAyKTppWjLxAKWTlMcsQehBUMB7+tdm0LTw6eGNFVbSTgMvkLMjKAT2cs/T2rwbgrCVXEPzNMFZWQCUsDIrW6eVFAANrnv3r6m1QWFHRpXWJIkSRboqsWvJcf6COxxx61D67TJS3om6biaztChsYczYYgE4w3BYet7k/aqzww2m/ELM2SRmZcVcFVWNIjJueyBwpUdDa3au8TiigMTQpgIwTcsWZugYydyTHte3c1Hi0wWORBIjELDOzubpHibiF+wAxuPZ/vUw+9FT8NE8Ca95HmBZ2GzHMklXZpCBY7qTFymKdsqbqyfgnidomk1Tx5ytGwEcV1EjBka7k3tZWHmP8wFztWn6CVnjVmUozKCVP6SQNvtXVL1HLU4yVRRRVipyqPivGsNRFp8dpAc3vbDIMEsO9yrfSrid7KSATYE2HU+wrKouMC8+ukVzqIp40Ebqy2vcFVuOgEh2AvZb/qqG8JS089PrGgm00UcgdEJAcoUH5shLDE3YpywdwbFjemf4YqQJwSWDcp1O2yGJVRNupVFUX70u6jQ4YBsZiYS0TpsBKhdwq72xKyNbe/lry4YzQRaWaOZirajCzvg0aKY0UyoOtkR1Knccy+1iapN6y1TiNeoqM+qRWRCwDPfAX3awubethXa0KEiqnxVGjaSdZHdIzGwZkvmBY3K2BJPtVtVH41kC6STJgqnEMx/SpdQx+wvQGf6zUuEwjTGOXTxsM1JEPKDxs432JGAFz1a1j2jSCZQ8kcacyVU0ruh84jlRGj5aWsLAWJve7Md7VMfTNLI8EZQ4BZ1dzcmIO7LHYDuxfzehU2uKrIC3PdBnHH5WjJ8q4hMwAwPUZyAeir7CsVX60246sZrnA9CkEEUKfLEioPsLX+9Twaz/AId4tkSHkQwSzThnESMMcYs2EXMLbmyFbm33p34esgjQSkGTEZlRZS1t7D0vW3sxJVcrtcNAeMxUjE2N+x7/AGPWs28fcTRplSNZnzYaaRAmKhFc3xciwDtdL+gNrECmPxaE58ILBXdHVHJtym2ZXB92GGPU39L0qcRMrRzzQzXijYMiMoC4giZtuuYcyKL9tqzulmF4TbIyyzjViHTlnfTryoUAHLMBkuee36bLywp6m1dh0sqac6uEt+KTBpBkMGjc5uHHbcsSB6C3vFgndpH5Zczc1WDgssd3xIMgHRVgRgVa+523qx1U8cSyvcxwzAiWNlIILI5SVd+jgdPYdCLVzXWGnHsg8c0iHTxQPAw1hUNEGxJlZy2bNgflDMx3+UgelSn00w1U8wKxcvTJzg9mUAK5It3uyou24G9fet1RMulaUpm4RhIp8qYK7OMuwK+b6hvQX5qNIkcscjRMqzpGDdzjzRkcyt+jNjv6npuaKsRfNeHjqkxmi0kT3SONZWXIF0UqwOTfoxysLC5yUVDg0qyGSGRnCI65ODgJBdI1uouLrGtiLfMb96sdVZVgOPlE00byqBuS/lSQnc+Yn28q0cSkA0kAVbkJMzHqCyizX9bvY/aqusLpPN+kjwvqI1RkeFw8iZq0uJM0ZNg46lNiLqbWDdBVLodIj6jKy/h81gRGQ+dWDuGQN2jGwb+EEbVL4rozDKqQ5yjkLCuUl8JJAT5S3Vdl6Ha4sN6r/EnGGdg0AlK+ZUXE4KOSiKEYAhWBzyF+1WlPdRWmj14dxFHnMkaSIxmXlQiMMsrqob83Y+X9S2IAuDa4vW0QShhcEH6G4/esS0sgj1DS/I0ciCRUu2GyRnHuwZJDbb2rTPB8oDPGE5eMcRKdBkVN2A9Og+q10RXxmPkXeoZ6K4DXa1MjzkYW3NZBx/ir86WWGRWUzyYl/wDBCBYwG32JJRgH7W2pt+JunM2nZF1DR42yjQi8hchUzPUIDufUCktdAEZtOJABCrEB7MxsitI3XcOHxt0GN+1ZeR/DSEeU4QJBdcFMUdk6CQuxZnB7nDyf9XsKiza15YNS7QpIA8LugBKktuGIXfZSt7d0PSp2o1zNp4kkity1UxFEIAWRCI1uSb2cL5vftY15cO5YgOSlfPIhRG+Z0hUJ8triyub9CSKyS7NN1Db4TGp1s8GpnAAgut18q54WcBT5si9ssrWwsL9a5V58OlkGkUyEEs7vmCCJAzk5i3rcn7iiupGDGZulI3xC17s/4YtjAEjknZVykVTI4RkHbzxqvQ/NTrqcsWx3axxv0vba/wB6y3VaQxSu+rkZ9RJpy0gQ+SOTNDHGnS7bLiPcnpUN4giu1GrTTqTjeZZI44HkGMiAXEnMF/J5SQbXBuCOtc1enkEYhcqI42I6XAWTZSCTfoWsBf8AUNq9IM5dVKJgI9TKyLKGVSI2RDbG9w+QCm46FiPSvbw0shndwECQRKSzNcMV5yhV9ELFvN2C1yt/DpXrRl+GnGEe+nEQVkS7SZZGVgQrv64MbFDc+W3S1PQFZZ4SzjnTlr+dnyHDeUYJGpkT6Kb4gddj0rUVroitRz0sZ918v0NfVcarlTJeINP+N5uqhaRs7JGCpjguPyx/PIUVyOu7jfrXdLpYzMYpHfl6mRwiBmSSFzsOaOllYOm5IOa2B60ycd/9qCcoGJjJlFI6IyzSRFiqtZsgNmt7Xpa1EbvlNqAM5+Vq0MY2QRY5Rhj5iQCTvsczasfI0jSCu43A2ncpDK5yiVZ0jJNtQA6KCP4diD9t6uuLBdRDp5HAwaNI32F0sWxkW/cMVPsL9a+uORcmXmddi2fUtFfzqxPXBirj+VnHaq04toIiwLCE+cAG63UkWsOmLAXrmbbZvxS7I3EdJzdJDAcFcuqAXxFg5RiT2BuR6G/fepnijW87TBYY5MgtwMh+XHEQGub3L3BAtfcfSqvQaZnbTc6PmM6FFjIvkiqSsri+wMrZ37C1WWvURwxwpkJcwjZjzLnKHJv+pLXI9e/Q0f5xEzWttlNrdLNJCIsphO0qjluceXIzAliFO91829+u1M3jFkh08fJVbrdY8NkIxOQb+U26+vrVV4hMn40vGyBDHlzbkkpdMmBU7bEqG6qC1q9tdrRJodLK3lXEq1h5VVkZR7AXtUX8ZZf0eCwRQSxRlTJZA7FxkEdNllUE7bXBC9AqmpWiRpQ2g8imOUNIy/5nyu0h9GkfEeoGVulcMwMcEpIOLpnsDtkEcH23Jt6gVR8PXkmKYHHUgEHLzZnYi/pdGHn6gE9KRTc76JuUqwuvEPDhG8kkOWLvZ2a35UxsyPJ/FFZmIbqGAHQbMHg6UQ6iEZeWWHl7ncuFDqTfc7B/3pY4pFlJMZSGUxIsKE5LdpMCZE2DlWcML+lfXD2QFY3LyuYjHGzeblaoTFL3tdcschfpYgVrHeMyrpOTZkr6qv4ZxWKYusciu0ZxkxN8W9D97/tUyRwASeg3rrOUUPGUUkSvIhjxkdCWfrEy/qsB51KrjjcXJ99kONXaSRSsUjNIsjTAEBMnsliRkC1mSx2GNj1uW/xDxmDUwhZFaJXQPC2alZYmYKx8t7YggkHp5aV+FImpEoilkiESfmnAFnykMgElxuFABsN/MbWvWHkNYPv5o1jZAIpcIoggxxRZWP2YqcgR03qs1ECQajVz6cAppigUXNgTiHXr0urbe9WnBOLSpFKcEKQFVkN/UjFohb0ZW39wKp+IaVC8SzO0jSKrNGpAMoZSyP7G94yTcgY9L1lO6bWl1g4eBeMTJDyWkjj5M2MrYhi7SOWWKFVNgLHr29NqKieD5Uj10S8iJViiETMvQSuVsFuN2UCxPzWkF9jRXVPo5qXZp2p1CKpLMqjpdiAAfvWc+NBzpJrPhGNRCRJiWWN0jVsmIuADdRmegFOXinTExiZQrHTky4N8rgK11OxsbE2NtjbqKQ4Fijbmbxc0NMqxyXjMZBvHKoJAZfMLjYgADoRVbeItE6yri15mmRuVzCjSytKGAErL8zDawRSLgm/RfW9WnBZBzZtMfl5D238xRyjAMevlYtb2r402kaTR6fBjEQ3IkXfAoZSUy77virG9jv7CqnWcREWsmkiiJk/DSCdch5ZABax+iXA7gAiudrX0bpddkzhss0xP58YmaKEJtYLLuRK29y6xrckWvcCtT8O6hpNPG7EEleoXEMLmzBe1xvb3rK+A8Oj5brIjxQxKGnkHlmlkK3uCN0ADbL1JYX6b6Z4V1zSRFWXFoiI2tbEsFB8uO21wCB0II7Vv438MfIi7r5bpXaicTduTJgbPg2J9Gsbf1tWpkJsWld9TqkVnhEEqtEFNwHeO7SWN1Ktk4KWFtyDeqLhGqeeDBwsRTnB5T/k6cuczY9CSCij+W/a1QJp5RzXj1LK8nIyawMjB1BOcp6KLPYKoFvvUTQS/+ypp3BSLmnnu4IM0pLHv+lY8m6bm1c9zyLq0vReysNRHHBC+CLArQySfP1wQSBhYiTzW7kDpUbQ6pYUZFcrzHEMLWyuyKVYyjurEYm3Y9r1Lm0MjxCdUGTNzCrdEjA/LUjtiAl7eb06moEemziA6smk51/8A1HcOCPuhqjhrC680tEjwdwwPqIpJCAQj8pO4KsI2A3PlUGwXqOvUm1fxXgDNIdS8r7atY5YWNwDzQAAbk4FCptfuexsL7gjL+IEhYYRyah/QD8qK9/szNb718cL1jNJHJKmMrOsOoW2zEoWikA9bBbHrZiO1aJZXZVttMqNeBFLNBGAWihmURA2xgMkUgt2tgxUfSvZDzFi067JMs6Y7Gwvkp+24tXnxaNy8Op8nNniEAaxGecjIy3viCoKMLC5Cv17SeDiLnM5ZgumVm8ovs0zgX26FV6iqeSOy/j8mJtkTiTu7HElC8KtiLWDFcibW65D9qlcK0wjeRyzzK0EYK4L5YyLKoN7s1s7gD5f68OgYBZkIkvLybD9I/Mj++5U29Kp9Cpm55IJEUIaJuwkS63HqQUtf/VVFDJ/1WaSdKkmo1GnVbIYlLGQ+ZcVsFyW4vd1G3Y2NecrYjX6aJzKApctEoC5EXK3ubvlfe56etRWFxA0SsQ+nChQfKztKxxbvsfNgD28xAqw0HKTSSJFcmSZ0FrF2GViVt8wChj5dtjVs4osqVMbvDWtj04ilxV/xCIoWEgx6eGMqqpfq7B5QW73Y7bU8s4AJOwHX29aynhkMUKiZUflHUqYI7WRIEKh2ZTvYn8z1uqehpg414gbl8QjkkjXlrZLWDBSxUr1OTYhWHpmAR69CfRhU4JWrRJZJYscQ+oWYY7KolXGNSAdrNZiALHe43qb4a4mdO8yz7x6mMalZP1CwUGMgC17lbAbb9KVZ1klUPjNE0SkjGJitwSciwGxJuWZiAOgG1XWhjmBRnDyAK0MBKhYwygHJrfoUgtvbIrt0rPi/pZUj74bq8dGkh/wZJwZEP+IwVsESBRfJRil+5wa3vC1t5dOsUULoijKSWPE5OGuzsQc7KosE2I/6d/fXwCRtNHmESNYiqqq3SOUYqwc/qD9elv61V67W4Cf895jKCuAx5jsr8tM2Vb/KrsQBc+X1qZnUHaTwZPDnGGMOnRlXlJLC+GASQK7hRKjK1nBYm5IvsQd+pVX4N0GpxhurPHFMiMRGzCMM+4UrsykohJGwuD3rlXxjZNj8R8SjhiKyBjzFZVVEZy3lN9lBNrdTWOcC1JjkTcyRhFaZCQrhkVmOx3JVxIxTa+PfodE8ZcUQzwCDUIJ4jJmAQ5SPl5MSt/m2W19t96URwlZkfVS6mOSXEMJBgMEtkVcKACTdl39dqrYjo9ZxIkU35/Oi5KzIyKNsHBsLdei398q9fwvm1eoD7yRpjdbqtwFPQXuB37XNRuC8OPL1ABKB42RrE7M0MbEr2G5J/evPhvE1ljmtmTJCGEV/KIFUoMNuvVj381YPd6OhNYeehMkMCyMxclpLRsfJEwWVgGAtm11Iu22xtWlcR4iNJBDy4gVJ8wXyqFxLO316kA9TWWSPqJY5Y44WMiEOVIyAUxYvISDaxyZxci99u9WOn4hNOqaduZJCIGliVmv5gAqgvszAG4AcXB637bxudmPkWvo1/Pa4Pa9/96zSPxadHBO7ktni0bE5qGbyFpBfJVZgXHYgWHW1QeK8b1U6PPp0LSLCsbvliP158tRsbowYjqGA9KUPE0gMMUGaM7ys7ybHFNkRV/lGJFuvlvVlW9GfHDxPEDqFeCzizqOcTiLeYJzFHYISAq+gvTDw3hYn5asJZWSY3dxaIBWJZgQbSNIbfQEfdW0yjFJLEAeQ733UbbdAQve5/vWheC+HmODPcGRs8d/Kp+UAE7WWwq2ac93iGeI/elTwzFzY5grWVoo4le17eRx0PW18tttxTXHIoBve/b0v7188P0sSIIoY1RQb2QW3NS5TMYvEJ2m502tOlVUVSTz2CkKyBIg7qe2YQJ9XPpV54miWPW6aS9l8pZf4rOEXbrtzL7dNr0yRoVsnTY+l7devW1Gp4FDqDG0ijOJwytbzC2+P+k7XqOK9Gy8jYvTcbSEuhiVo4eSQALleZIyZ+lgwHT61O8PeHXiM3MVCHURrb9US52L7bMczcb9BVT4kiRBrCxGPLgGXYDnA9f3p30mojbFVkVjbbFgTYdffaq2iZ0Xz4cKK0YlJZ3DByoGLAKF2HX5VN+9QdDwNYFkuPzHJZ+tvmYhFBPlXzH9zTnJCWJtvbvUWfTlAbrfLqapjD1GUjQk8zmQlOSgyjJHnjKurMLG262IPUlN6+YtTjCk4TEd1N1UqytZlx3BzQspHQOfWmzxdwRHSR1PL8gLsbHIJchXy2tf/AIazocT/ACNQm7WjiwB3uFmsb+jBWKn1sDUqOh477Hjh0ss/LSabEHTCWJ7DbIgfnXHm6qB0DAG9zVBqY55YyCHZymQRVAsAzZylmIw81yS58xJFjbb48M63m6ZoEUPJIBDm5YiNI1J7bqBs4YE/Mb/LUrVMBpYdQQZGuy6gHJedGLuquoIXfMN0IsdutTPSOpvVpL0gA4ZLqitn1Th2BN9ib4j6gGw9WrnHNFqTG2mvHyoliys5DMZNgStiCRKGN7jqBaraHwrqJ3SOe8ek05jKKCPzWUAk4jsTcHLsNhveqVdDqdVq9RFGXAkCkutlCYyPixJ82K+YgWuzWA8ovVp+nOiJD4WmhZTLhjLCChDXDXlh6ra67MOvo3rTBo/g8GlEk8wFj8sClbi+wZmJOy2W4sdqu/HPDxydMIwWKHCMqCTljePp+kyIgPb12p1jvYX623+tWLHjo9KkaJGihURQqgdAoFgK7UiigM74p4ZmaR4FhBWTm4T3W0ayBi4bo2eRsAAQRa5FqQNJE2l1aQyIRhfJQA2TBCQrAixBso32sARev0Ay1l/iuCPU8XijUupCckyKBfPCV2C3BvZWQEn+Kq8SW2xQ0vHyrYl35RLPIjY3lDoSzEjzX8wsotbEDrUXw5ro4dRC5uqAhLt5iI7BCh9ASct/4dqcvAvhDSzyS867GIritwuxW5LWFzZ8l622ph+IHhyJeHkaeNI+Q3MUKoG1mVz9SrMb9yKjghyZWcF0hg00roxlSXOGfYF0WPKJTEQNwqqPIeoBsb9VTSQvNp2lj5jPAltjidwzc4W6h3yIG+ym9Nnww4lGyrpwRdosnT+GWPBGce0ilH/1Bveofifhf4WQrC7RHUzRiHAkJzC2Mquo2bJcSqnYea1Zqv1jJmmnpU8EjkWCaCTK5AgVVe6Z8tprqRYtmLAnckk70pcX5H4iY6cfk55IoNxhtdVJ9zf6X9KduA6hZIVsgSaGMaoR2Aa6LEq4KNzdY5TbuCPWkKCMM8mxCl82btiSzWX3dTiPqavE43hF1qJMaO88aIBiGFltZWYrck+wt7dvWtW4EzRIFLZdMyQCT6/Qew6bUucA0cfLhZEF8bg2s1jY7+9sf2ppVCetWTenD5K19FhptGJGsPlBufW16szoURdh96rtICPlJF9jbvUjxPxv8NHngXIUsEBA2A33Pvt67iraaeOU0Kninx1Ho5OUqc2XG7i9gqnpc9z7e9I/FfiLrZkkCSrFHcXEfzjb5VY+ax33HrVnwLhMErPquIapFR32iB87+Y4gkXNvQWBN/wB7HxK+g1UJ0uh0x5sClxaLlBF7tdrMSDY2sb2NF7N5hIXuEzcyBo5MmBjAJy2JjVnZh32cxgdyVNVfD9BOspmjdDIr2UM2DO5LHexAZbIxO4Buvc1pfCfC8en4axlxzOLswa+NjtYnc3u19ty5qk8OaLhscjfjpAuolUERSKUESm7DEn9W/X2G1RyXZKWDL4F8e/iGGm1Fl1GN8hcBrdeoHmPoNrDtTjMHt0vWS+Mpw88QDgTxLlp9TGQySi4uGVdwQQvqBvsRWm+GtdJPpo5JFKOy+b1y9eg69eg61ldfUTmnlrAGuMQbizA9CCN71ki8HEEs8T4jJyqZHIMLgiN79jYWYbqwHtfWdUjAmQsGA2vSd4m00brKSoLFTc/xEDbK/UjseorSXpzuuLE/wEYlXVK7cuRUAjfIry7yGIk228uY+1Wml4hHNqDBp1b8MmojyLMW2F42ksRtG4wW17Hy7DelHw/qeVqlVs1Q+V+XbJgHBFibgWdVNbJwvhWhVObFNOBKoJKzOCepFwDsfMdu29K6Ojl0MXEXtEbfwnekX4T6ppNVqZAfKUBbcnfMleu/S5+46WtVhxDisenSVllldeWSqSODfH+G/Qk2Heo3wx0/L0mr1DAcxnZCABbbcbjqSZLe1gO1Vgzl6xz8NOzRsWPRgF9hy4zb/uLVcVWeHIwIiQLXkf8Ao5UH9lFWlaGgUUUUBxqoeFeHuVPNqGcuzseWLWEaE5MB/ES9zfbYKO1X9FAKnA/Dcmm1ksisp08isQP1q7PmV9MQczf+erEymSXUaeUDEqDHYdY2UK1/Uh7/ALrVzalTisJh1RkW5LfnKP4iqqksY/1RhXA9UvQGe8AlbRa5crqRKYXFj8gNtr9iSpv7X6GtF8bcLWbTtcXK2kW25ySzDE+ptYGlv4m8EfUPC2mRXMyOxubK+KqQEP8AGykdeoQelXGi4wNRpirBxsY2JGDXAsxsdx+r+tZ3O9orVYKnDvE+jhiWCOAQpvjISGY7GzEsMssbD67dqzDRvjnGb+ZgA/8ADiTa499h7XvWh6riOh07GdVaXD/DBtgGCHdQdyxLWN/l5nTrWewSF5GvdWLswXoATvaxt9N6mCs99mkeAZyU5UjguCbIfnVQbWYegPT2Ip406AEZbj0rMPBOuZHfmeUuFCNvYqBviLbgHuDYdK0bTklkVdyev9zUvo5qj9Hlqdfy3sSwyuECAli3oLf3/elPReB59VMZVYLFcZSOzO7jYMA17N5b7i4rTX4OjqUcXQm5W5s3sfUe3erDlrbGwt0sPT0/as3e+jpiMQheN+CT6jSLENOkRgIaF0nHlZRYCzIuxG3Wknwnw+WCVsJUOomHLKIQ8hLEZeYsbX6s3oK2PVcO0sMZd4olRAWZiq7AAkklvbvX1wEs8YkeOOPI3RVG6oemR/i7m3rarKjQrNRoWg4dJEfNjCVG9za1up9qxvjBZpNRmyzmaNI1kLA8rBlFyOpOI7e9b5x7SNLBIi/My7X+oNKeh48g1xjHLItiSN9+qk22BNnBHrb1pLzSN7F3X6LSnRQLC7mWBVUSDTtjIQb3BAvdd97kW6+zP4M422HIn1CPNuVIUgFOxF/nH8y7Wpg1Hh3TyMJGhXMfqUYt+4qBN4biEscqA2S1kvsCMvMO/muQQbg/vWdvQwknO5Ntje/pWf8AjTjhXVLFGFIktkehvkQwI9LBv6U8eJeMadYWxkjLDqqspPW2++24It12rJOM65DqHnYAEpdNipZhdCHJ33BuTYHyi21aeP0c/D9FBpWZ9QiqGZsj5Ra3Unb2ItvT/wAL4PqEjC58oC11JzJsS2wFgNyR1pY+GvC5ptaBBy2eNWchmKgLdVJuoPdht39a2LR+Bw1jqpjL/wCnGOXFf3sS7fdgPapvWaXNV0hQ0vApdQW5CtLvjLMxAAt/lwkiw3AuQCV9zTlwfhqxaTkR2YJKGmZRZCwYO4Q9wLBO/od717azUBUXT6VLIPIoTyhrdVQgbIP1ydug83S24Lw0QxCMWN92IFgSdjYdgBYAegFTM4WiOJ7cGixhjBFjiCfqdz/UmptcArtWLhRRRQBRRRQBVdxrQmRAUNpEYPGewcevsRdT7E1Y1y1ALPC0inUwupCg5xi5V497FQRurRsSux6Fe1RON+HdKgAln1Ccwlc+YxU3tdXOJVduhNj13psWBQbhRf173rz1+m5iFCzJfuhs372oBO4ZwThMUi4yJNKxxTOTmm/ayi4B97fesz+MHAuRxKRwpCzKJUsNr2xcD08wH/dW66DgcERySMZ93YlnP1ZiTSv8YPDv4nRtJGl5oPOlupT/ADFHrdbm3sKLohLDJ+CcSEjxrIflIIxvuqi+Nu12xFum/TvWn8L1iMweB8gOvbfoR9LjrWMcJLO6mJgjqCRcbWuLW9+/tiadfBPGxBaGSN2dmvJICuK9Ao3PYWvTNMrlmm6/xAIZUJ+Rxhj6PlGP7Mf2r34NK08hnJIjW6Rr0Ba5DN9BYAfekTx7r5QYo4QvNd81Y7hd8AdupLFev8Jp/bUJpNGW6iGP16kDpf3NZuMZpL1EPxdpfxRj0dyEku8pHXlr2+hfAe4vSlqvF/FdG5/EaVGhUW8qMBiLjIMGYDyjoRb96uPhhrn1TanWPfzuI0BvZQo3x3tjc9LduvpK8Y/EPS6RuR/jTHrEtrKO+bHYbdutTMosR9L48XWwsmkVxOY73dSEiJKrctaxIuSAOtQuB+C202mlmc5TBAUXooEbmQE+rsbkn0NqgD4paRHURaeUgt0vGtrdTa+9unvT/wAF43DrIhLA4eNtj1BBturKdwf+b0rpaiMJXC5g8YYG47e47GkfjviGTTz6iPJ2ZzjHt8gZVxx9TckAdy31IYPBc1oMGNijmKx9UJX+wpN4vxaEcRlllayHBYu4zKnzW7HEXv6Yjaq8eTIv0V3EtZJpOZlpgmQsru6ADy7BXt8xIvbqSTvvWe8SkeTECzC+QIW3nbqLHzWup9qYfFfFZNTMZTIRHELAjcANkoxB2JO5uRtcgdKV41kllWOEMXkeyjuXJIG/sDW2YVhGp/ALg5B1GscWytEh6eW4dz6dcB9q0PjvMZljTIhgSVXa/S/Mk/QvsPM3YiqL8Amj0un0Sm6RIJdSR1cD9I/mllIAHcBqaOCQSLCvOa8puz+isxuVX+Vb2H0qDQOF8MEW5OTkAFrWFh0VB+lB2H9zvViBRau0AUUUUAUUUUAUUUUAUUUUAUUUUAV8sNq+q5egMT+KPw+OnLavTKeSTlKqXyiv1IH8B9OxPpSZoeORx8skMxTzMLkB3ve7W6773PoK/TUgDCx6HYg9x6VinxS+HkWncajTlRG7WMH6gx3vAO46+XtTSGtKbW8Yc6sOxt5ksVa4AUBiBfpuzUz+LNdLLp33y3DWva1xYbZC9/TE/Ws4hJLM9iRG3nN9zc2BcHr/ADN7U3zMw06AkZt5xkbDlgrjzP8AUFJ3v12BqDNrGN3h9z+HThmkMkMpRmknYbqL3dlF9mYkKt+gue1qlcD8IvpUZJNJBqVaxL3HMdu5lEuzHofmte+1VPwz1ZRNTMyedwv5hYX8oy5Qv0AUr02ua9pfG+oy5bwSZkEgKMr7mwUA7m1vQVNIs6wZBpliUmPh8aE7EXhBt7lb0ucC4l+E1cpMQjgkAUxxsj8ubO6q2JsASX36C4HYVS8Qn4tKrZJNHGynPHFAF9Oot7t1HTvelyLVDlEOq3W64m5DFrBRiLByPKFBNt2JtbfPiy3PRx8RceInkTSOr31AYN+kZxssoDdF+UnLqPNakvjc+etYEHJGJvfynAgCwv6huvt6V7aDiywwrlFzJfOx3C32Fsx3UHe4G+w7mqGbXyFiSRkVCA+1rW+5JNzuTWiWEZp5jibRiSPqMgRf+EFjb9jWpfBXwYR/7xnUBmB5EdrYqduZbsSNh7Xqh+F3gaKTUB9YyqykNHA3WXuGa/UA/pG/rW6Iu1hsBtt29qaSsKtIBNNmAOXG3W3zyjYH3CC4HufarkCvLTwhFCgAAdAK9qEhRRRQBRRRQBRRRQBRRRQBRRRQBRRRQBVF4l4kyLy47h26sBcol7XA7ux8qj+I36A1eV5PCpIa246fWgFDU6w6CEEhp9TNskeRIXEbAk9EQdXO7E+pAqrl1MIQT6qXnTyr5QnVQeixqLn7D73r3+IPOi1EUyYlZI2iAI+U7k29cgftjVP8Lvy9a4lxykhZlJtdSJF2B9w33tWF/qsKa9w5pfhl+KLzSg6cMtkBALuT0aVf0gfw9T3ItaqjxN4J4tHEYQqamFdwU+fYWW6k326jc9K2/EV3EVsliLYfmJOKSwuFnWSPDYK6kFbtcsMu97b/AMoq50fxGKoEx/M5h/MZvKqFibG25IG171v82mR/nRW/1AH+9VkvhDQsxZtLCWPU4CraVcJmH+I/H8kodBKeWRYKD8wyHzE9dt7UuaOWWUsI4XllbyjFS+IPWwA+b3PSv0npfCOhj+TSQDv/AIa/7irSDTogsiqo9FAH9qgskkYZwz4fcS1SKJIo9OiqVUuBlibZFgDkSbDr/Sm1PhemlhRtMon1Cm7tKbF1sbiM2IQ+mx+vetJal7xL4jgjRo1niErOIRd1vGzWBZhfbFTl+1RXoNCZEsWoVRKMVMvLtINxJ3K9b2sRkp2xO9NXgfWOWlhaRpFQKUZjdgpJGJPU9LgnffqaouPaASywabTkq0TBYnsGCqqnmO3qMS31LD1pt8L8AGmViz8yV93e2IIHyqq9gB/c1lCe6UmWmXldoorY0CiiigCiiigCiiigCiiigCuXqFxbiKQRvK5AVRfdgo9ALsQoudtzSXxH4rxx3tppSbXFnQg/9Skr/WgNBJqm4px9Y5BEsbyyFcmCWARb2Bcki1ze3fY1nzfGWRpAkelSxv1kuTYE+gW3veuw8bUFpOeWeRsnKAm7dLAAGygbAHt61S6clpWjmfEU/wD8GNfrIT+9k/3qM/iTUXI/IX0JR2H9GFL68Ukk2VZ39LRN/cgChTqCNtPLb0cxp9/M97Vlyv2X4ySfEWj1E35k8cWqVFBjjjaSLFt7svmOTEG1iw2W3c1RarhcbKxTQuGbYM6YBL/q87ZbbHb061Z6jWaiNQTyU7eacf8A4g1VcQ8ShP8AE1UCEjfAc1/tc/3FO2yOMmg+GvECnTr+JljSVCYnLMFyZejWJ2yFmt71PfxPowLnVQW/+Yp/3r8+6ji0bzSNHHJqA6gPzI1Zza5yviQg9h96tdFxiONcRGyXFiLIVA/+mLV0JdFGbO3jPQ2uNTGw/kJf/wAAa8NR470KKWMzWAubRSk/+FZJF4vtcQzDI7WCMxHbYLF1+tRJNVqn2Gp1eJtkeVJ69smVf6VOEGyxePNAwBE/UA25chO/rZevtXyvjzRlscpetrmCUL9yVrDOLayQEqNVqCx/iVEB+tmsKqG543abc9VElyenZev2pgP0TrvG+iCWXUoZGU8tQGZi1jbyKMuvb29qTuHcbijgWPUwTJJ+sNC0gdid2yAIOXXc3FJXgXi4hdsxp2kbHlvK7BrC91BVWt1vZrHpWh6fjUxGSw81e5080cn/ANpKn9hWVtmkpeyPoHEOphk00OpKXYyiNCI2XFrLaSwBLEEkHtTlD4lY/NpdQv2Rv/F6XR4iUbOJ0PXzwSbfcIR/WuR+I9MCC2oUezNiT/3AVWaaQcpjK3iiIbNFqF+sDn+qgivp/F2lUXaRkt1zjkX+6VTx+JNM4FpYT/1rXNVxaG3zxqO5zH/7qebI4oY4/EGlZBINRCUbo3MWx+m9esPF9O/yzRN9HU/71mPFodDqSVWEaiUX/wAADJT/ADSCyr/1Nf2pA41wH8PM0Zi5ineyO7mMH9MhWM7960l6VP0ompRjZXUn0BBr1vWDeC+F6yJ0l0mmlDSXAdlVUA32LOh229K1zgba4Ig1CRE/rZX3H2EYU/arEF9RXK7UAKKKKA8NTAHUqwuCLH/+d6zziHwnEhZjqD0OKYnC/bJmZnI+9aQ1fPf/AJ70BjDfDbiG6cjRKgveS2TPboRkrMp+lq8eH+AtYvyiU5eqPZP9OU0Y39+lba1dPep9gxiL4acWdiPxGEe3zzPl77IWA/c1YL8HZnA5uuYfQM231Y/7VrFA7VXENZlA+B8WwOpYqO/LBYnvcm4/pervR/CHQKmLcx/fLE/Ty9qejX0KkC5ovAWgiFlg2/mdzft3a1T18PadEdYoIoywIJWNe4tci1j9KtaGoBN1Hw8RkVV1M0dvm5SxRhh6YogAqPL8K9MzDKbUstvMGkvkfUkjb6CnlaDQGbcW+DOmkYcqaSNLbqfPvtuL+16pNV8HtUuPLnhk7NmHXEbWA6hv6fStj/5/WhaAxnhnw34lE/MWLTK6G6sZSWvvup5Zt9drVI0/gvixYl4NIxJJyaVsrnvmo5m3oGA9q18UUBmej8KcYRcedFe9yRqZrW9MWif+5r7n8P8AFw7OzQyLayqrozBrixYvCgxte4Bvcj3rSK6tRhOmXPwXjLddHw8nuWsSfrXmPCfGG/yOFp9UJ/shrVE6V004oaxF4T4K1JNtVOgjtsmlvCL+5AyP0ytTbw3hMUCYRRqi+w6n1Ynck+puamDrX1T0QcwFdtXaKkBRRRQH/9k=;" vertex="1" parent="1">
          <mxGeometry x="331" y="203.00000000000003" width="57" height="61.48" as="geometry" />
        </mxCell>
        <mxCell id="shK0o6eYTKU5Cj1UoSUi-9" value="" style="shape=image;verticalLabelPosition=bottom;labelBackgroundColor=default;verticalAlign=top;aspect=fixed;imageAspect=0;image=data:image/jpeg,/9j/4AAQSkZJRgABAQAAAQABAAD/2wCEAAkGBxMSERITExIVFhUVFRoYGBYWFhgaFxkaGhoXFxgaGBcYHSggGB0lGxoVITEhJSkrLi4uFx8zODMsNygtLisBCgoKDg0OGxAQGy8lICUtLy8tLy8tLS0tLy8tLS0tLS0tLy0tLS0tLS0tLy0tLS0tLS0tLS0tLS0tLS0tLS0tLf/AABEIAMABBgMBIgACEQEDEQH/xAAbAAACAwEBAQAAAAAAAAAAAAAABQMEBgIBB//EAEMQAAEDAQYCBwQIBAUEAwAAAAEAAhEDBAUSITFBUWEGEyJxgZGhMlLB0RUjQlOSk7HwFBZi4QcXcrLxJDOCoiVjZP/EABoBAAIDAQEAAAAAAAAAAAAAAAADAQQFAgb/xAA7EQABAwIEAwcCBAMIAwAAAAABAAIRAyEEEjFBUWGBE3GRobHR8AUiFDLB4VJy8TNCYoKSorLCIyRT/9oADAMBAAIRAxEAPwDTIQhbS8ihCEIQvWNkgcV7UYQSDqEMcQQRqEvve8HBwAOepPwVfFYluGpmq/Qep0VrCYZ2JqCkzU+EDdXkLxpkA8c16rCqoQhCEIQhBIGrgO8wgmLlSASYAkrttIlpdsNVwuxVOEt2P9vkFwgTui0CEIQhChCEIQhC9C8XQKFK9q0y0wVwu6tQuMnVcICDE2QhCEKEIQhCELunSJBI2ElcLunVIBA319fmUGdlIjf58K5XiEIQhCEIUIQhCEIQhekKULxCpfSbQSCHiMtlbZVaW4gZETI5aqvSxVCtOR4Ma8u+fVWa2Er0YNRhE6b+Ym/JS0tc0jvSiXWnCPtFseQz/VXbFeTKphgdpMxlqRBOx3jmr4fnMCYiYExwlZP1f6dWxZa6k7QQQSQO/Q32MjS82vqfSPqVHChzao1MyACe7YxuI3lKaFaubRVZgHVMeGAkwcOGezl2jJaZkCJGZOTNekyvFsUGPZTa15kwJPNZOJqMqVC5jco2HLnzQhQ1rTBwhrnuicLQJA4kkgN8Sqj75ptdhqh1I7Yxke5zSQUyQkpiq9uJDDA0GLUDSTvyVX6ZpOIYyoJJAxYThGeZJIjIJReV6V2ukOApzDXBvtYTBOef/Kr1alNxNEm5HLna+9jYX3tqtDCsrYcNxrGyGu/xWIAIJykWuIkwTAIIN3t1dYWB1WcZzwwBhbnA0mYjVXFnbHedWYOciQQJafiE5sFr6xpMQQYI55HLkQQfFOp2Aaqdap2tR1SAJMwAABygRoLc97qyhdBNbK6yspnHNV52AcAOQJjzUudlGkqKdPOdQO8x+6UwvE4bfkNwdSzq/dz/AN255wvbVedF1IsbQDXEZHLLnOq5zv8A4fMJnZUokP24H580SZCEJiroQhCEIQhS0bO95wtaSdYAQTCkCTAUSF1VplpLXAgjY5FcoQhCEIUIQrt23Y+scsmgwXHbuG5V+29HXtk03BwAmDkfDYpZqsBglPZhqr252tMJGhC6TEhcoQhCEKa01sUZRAjMyoUIhSCQIVK33Z1naZ7W4O/ceKo3e6pSqgFjszBaQcwnak613Fecx/0J1esalNwAdqCPGI1ngf8AUvRYH662jSFOo0nLoRHSZNo5T3KtZ7EyjiazIFxdHAmMhyyUqC6ATwE+SW1LyZ1jBDnFwAAAMyXHF2d8oWw6oMNTY1xLj9o2k3ALj3anyWfhcDVx9R7qTYaJNhLRYkN2AnS/fBIhMl45wGq9bzMohWwZErNIgx+oPmJB7wSDqFHRvMUiSaVUgjVrDG2ZAz8wl1svOgWw5pf/AEGm6Z/8hkpbbfVKlILsTh9lufmdAs/b7/q1AQ3sN/pPa8XfKFybKZMQqde3GSAAxnuDY6x3qlUJc8NbocmgczAEoDC9wa0STkAOKe9HLleLQx1RsNZnqCCdAMvPwVV2RhLrStBlXFYmm2g5ziwEayctotOgA205TdfROjFnbRp9U0ZNEk7k7kndUrwsbWPdUY0tFU4iCIzADSQNpAB80xut4GMkgACSSYAG5JOi8mlUa/C2o8OcXYw12GYA7DnAAjLaQqlKrkqZitfE4U1qJYwaacB/VJEKWgxpMOqYeZBI9Ewp3Ni0r0vP4LVc9rdf1Xm2UX1BLBPUe6lsV1PrMZPYaBk45zMaDhkql4XTUoiXAFsxiB8pGyei9adCk1pe2o5oyDOWQk6D95JPeN9PrMwFrWiZMTnGmqr03VS6QPt+abq7Xp4drIJOeO/oYt5zzStCEK0s1C6YwkgDUmB3lcprYLIXNZVpiXMd2m6TBxCPAwuXuyiUynTL3QP3jeO7Xor1nuLDhdixOaRlsYzjj4p02sMiWkOI0iXQOOGclzTfLZAIy3ER3r2x4cII31O54yd981mPcXXcvRU6baf207T+nevKtakQcUEHIg6nlh1nlqk7+jMtaWuIdGYOYngCNPVOXPDsOES6QQcJAjfMjQjLxXFitLBRD3PGkuJO+45Z5Qpa9zB9q4qUqdUxUg2104Tf5CxFRhaS05EEg94yQxoJgkDmZj0BXTpe46kuPiSStXc1jwU3B1Igx2ph2Lujbkr9Wr2Y5rFw+HNZ0DTuPhaL9fFUrotFOg12KsHAmQAHHPy7tlBa+kbziDAGtIgEjPv1gLm1XfR/iGU2vIB9qTmDnlJ3PNQXxYGUiMD8QJIMwSHAAxI5QlNFNzgTcniFZfUrtpkNgNaYsZPibxfZLVMa3YDI3mZ7/moUK0RKzgSNEIQhChCEIQhCEiuq8HutNZjiSCXYRwwmMvCfJaGzjtt01GuiibKQJK4wmJ2mJ5rh1MdmdjI74Iz8Snsji3YnT/ieaGlsx2Ynl/V8ISzUkQQrIoEGQYNx4iD4ykiT9JLx6pga0w5+/Abnv28056TXk2hTaYDi53ZAj3RqdhqvnV6W19V+J5zjbIAcB6rovskOZldCruq8FwXSvF0xpJAAJJ0AzJ7glqYAVi7bV1dVr4mNhrmIy55r6Jd9MjMiN8/ikXR+4MBFSqO39lnu8zx+H6PrXoKY1d7R4MGvnkPEqhXe0my9H9Mw9RrcrzE37uJPS8a9VNZHCo8PeJpNOTdnkfbI3AOgOW/BaZrm1Bk7LkYPzCzjMPVnSRGEcstNoiVB4DyXdPBuIuYS8T9WpBwDBIGl7eO5O5i/dC7rtAc4AyBIB8VGhegwtMWC86YJVqldtVwltMkcY17uKrVKZaYcCDwIIPkV45xJkkk8TqrlG9KjRBIe33XgEeuYXP3DgfnVMHZm1x4H2jxKq0qZcYaCTwAkq1bbsqUmtc8ABxiJkg65q7T6QvaIbSpt7gQPIFLrXbX1XA1HTy2HcAuR2hOgA8V25tENsST3QB7qsrVgtzqRluYOrToVxag3F2YjLT1UC7gOF0oEsdLTcbp9RvShuwsPcCPXTyU778pf/Y/kQAPGInyKzSEo4dhM38fhVkY2qBAjw9reSa22/alTKA1u4BMnvcI9FUp2sN9im0cyMR/9sh5Kqhdim0CAEl1eo52ZxvxtPS1uiZ2arRLmuIqMfIMU4InkDmO5M7X0kAEU2meLhl5AyfRLbBGATGo4Trvv/ZTS2PszB4cB+80hzWk3BPVW6dSo1n2kCeAul1e3Oe5znhrsWxBgd2c+RUdasXQIADdGjQTrrmSeJTZsE/Z15aCUkTmQdlVqhw1Mz/Xv1QhCExIQhCEIQqVvvNtFzA8GHT2hmBEajxV1Lr/oB1FxJALO00mNRtnrOkIKElshH8VTqNMh9aoPDKP9y1azlpspLLI+zsJLjVqYQMmFpYCJ2YC3U7EJvdd4trsxAQRk4cD8Ql03Sm1aeQ+HdoFcQShEJqUsHeN5VKxxPcSATA2AOwjlAS17pKtXhQNNzmH7Lo8Nj5QU86OXR7L3DtO9kHYcTzVSo8MCtYag6u+B1PBLrtuGpUIxfVt4u1PcPnC1913TTo+w3tbvOZ89hyCuU7A0ayfQK9UohkAe6D5hUX1XO1W/QwlOjcCTxOv7evNRU6cKiw4n1Hc8I7m5f7sSuWusKbHPP2QT47DzhQMpRTYQZyGfHf1KmhBqtn5wTMYXNwlQt1Nukgu8o6SuUIQtdeSQhCEIXFaphaXHYLiyV8bQ6IUN6u+rjiQPj8EXfDafaIHaIz4zClcSc8bQriEIULtCEIQhCEIQhCEIQhCEIUoXdKq5s4TErhCFClCEIQoQhCEIQs10mb/1DGPqFtOPdnDqCS0HPMd8bLSrHX/VFWs405dhb2jmRlqRwAyzXD9F0I4K3fIrUbLZ6LnENcariGnsv7TcLpHtNIMjvU3RGiQ2o/YkAeEk/qq98uLrDd5OwrN8A8AegVnozeQgUTkROE7Hcjv1S6X6n1KbXjPbSG/8Qn6EIT0hUL0u6nUhzh2hAy3HA8QmF3UYGLc6dyge3G8N8/inrbO2m0OqZDZg1PyWXiX5qhHC3uvSfTqPZ0Qd3X9vL1XNkoYiSfZGvPkrtku01HB1Q4A85Dd2RMDgIB8lBTe5sVCwudhJp02xDQMJ7UnIkGROveQFctLDn9SzHUcQDUcXObkXYgwtIwtEmJAJEbpERdX2jM6PnTjG/lMGOm2ahUrdS0NLaQxu3LnmQ0TqQ3Mnnh4FZ2y0gKVNo06tsT3ZfBObM51ms3WEdjqQCDAIcGucTGhxPLtNcY2CXGngDWe4xrPwtDT6gqBIIO67flc0sF26d9jPr4EDZUEpvq+eoc1obiJEmTEDT5pzU18Qs1f7GudVOpp0m+DusHrDvVbD6gDQ7jHmQP1XjhSJeWcJ/wBoJPotBTfiaHcQD5iU3bZGxocxpkTq3yOaTUHAsaWmQQI7oVira6mEw4yAY/fgF04E6KGOa2ZC7vCyUzGpjPJ3ATExn/dQ3hczGvfrLSSRMgdsgDxH6pXYb2eHQ8dY1xEg5HhkRmMvBXbyvKoHVuzI6wy4nL2nOAA4xwSocHiflwpz0X0i6N+Glj06zbdTIXFCqHNDhuu09KQhQ2q0tptl3dlqV1Z64e0OboUIkKRS2elicBxUS6BhBUjVeOEEjgV4hCFCEIQhCEIQhCFOaPYD53iPP5KBezsgqRG68QhCFC8e2QRxEeawNJ76NSWktexxEjYjI+Gohbm2PLabyNQ1xHgCsKyi94e8AuDc3nWJ3PKd1w9SJmy11606dWwWOo4sosBqYmgEkknMMZxJBMSAJ4LKUXDrmlgIAeC0Ey6AZzIAkxyTu8x/8XYTwfVHm4n4KC5qTOoqOjt4gCeXZIjhv5JNFvqfUp+MfMGBOVp8Wjy5LUNcCARoc15UeAJKp3RVluHcHLx09ZTOjZDMvGezeHzU4iuKYgapuAwpxP3H8o158h+vlcqxdVEU2Gu8Zk9kcT+/0Vi7KJr1cTyIEa6E/ZZHgcuRVe8a0uDR7LBlzO/qmdnpObZwerDmn6w4jk5wJDBkCcoaYGp4ZzTcwMYAdTc9y1qVU1azi38rbDhPHoLDkQdzHdRrnmo15AhpLi1hLwAfYpvAkwHAyG4gHtAzkiLqqZqPdTeGtwNYSGgv7ZmXk/WPacLRmZMg6ZmZ9FtPqnubIaxxFRriA7V5wsBzc5oe4tiDpJyizaLt7TnTDJkuJIOF2LrGiMgBDCP9KVG5VztYEN0iLTxNzprqNQNpKXXvULqdGlLXN6zFAac6NJ2UkmM4aDxDjCXWitmeJz81LXtRqOq1nE5uwMbBAa1swRxnG4H+yoEqxh6Oc5joFQx+LNJuRp+478OfU2AkwBOukFscRTeW6hriO8AwszdjnOo2hjyAA1rg4gy2Xsxczi7OW8BOL7tb6bXkCQWgajskmJjU6j0Six1DVs9dpaXPDabQRJluMQ2N4jXh3LrH/kH8zL2t97b3tbflxErMwMZ3a/lfa8O+x1rX7uY2MJn0XB6p+ZLMZwEiMtzG2e3enBMZrOXDaHU6nUOMgydZwugk5jKMs438UzvioQGt4zPhCu03BzQQqdWWEyLj5Hz3VKmAa3Z0L8vEhXek9fFaKg0awkADTP2j4kkkqK6rG4vovAlpe0HOSDI1Hx0VrpHgbVrAdp7nSXHIN3AA35nyXBcDVA5H1C5DHDCuJsC4dRBiONz0ibQprJTwsaJnLXvzUqX3O44XA6A5fH4JkAnKGGWhLb2o4zSbxJHou7mH1LOcn1KioPLrRFQQ4ZsggjQk6ZGdZ5BRXJUc09W4GCMTZ/e6rMqzWczgGxznNMcdPLuTnUoptqcS4HlGSJ4a2niOcN0IQrCWhCEIQhCF2ymSCRtmUKYXCF3SpFxhoJPALqvZns9ppE/vVEiYU5TGaLcdvHRRIQhC5QhCEIVY2odZ1Z4CO/h5QszWs1ShWLqJILSYjUA7EH2hG26Z3ifrCQdYII7gorRVxEHeBPeMp8oQWg6pBrOabaj55Jr0lpl922YikKZL5cxogAnFigbAkE+KRXe006b2nVxB7oWqt7i67KJPvD9XhI7vsxe4fvL5KrTLabHOOxPqtDEsqYitTYz+8xp6Rcnu/bUhMLksxDsR2z/8tvmrd83gWiG+27SNu7mq1ovJtOGMzg9p23PvXtCjLjUdqfZHu/NIyx/5avQcf2WlnDh+Ewh0/M7gN77uJ8+45bITaw3rDWMdTD+rdiaZgjXlnqlKsUWQO9V3Pc45jqtOnRZTYGNFgmtpvZ78PZYMJxN7MkEbgnQ5nzVaranPBFR7iCRlOW+2nDkoVSve3ihSc87aDidh++CgAuICmoW02l50Fzxsuq9oDnET7IGXLYKgy2fWuYfA+GYS277fiq4jkScJHoP0CjtDu24/1H9VssaGtDQvG1sS6o41DqT88lz0otLmuDIBY9oJmZkOmJB5D1UdLC2z2ipRJaHBjS0nNvazE7gg5HVd39UD2Bx9weckKK7KOKx18w0FzJJ0AGfj3LPx4DWtcT/fZPA/e3UdLRfoStH6c9z3ua3XK+DuIY6IPWDNuoC96I02l7yfaAEDkdT+g8VorXZhUbByOxWRsddjLRTNPSQ0n3pMGRtrpyC2hV9hkT6/PneqTmAEtse7T580Sm5HObaaeEwcYBjcSJHMFF/n/qa3+r9MkXLTItdJpGYeP1/sr9/vp061UNGOo+S5xGTJzgN3MHU6bZpZdFXp+q5Y3NhDJgB//U2A4+A4kKtc9Tslu4M+aYF4GZyAzzVG67OWgk6nbgNlW6QVT2W7GSecRCeuGnKySpLDU62r1sgOaHBwG7YOEjuyBCq3Pah1hLzLngAO58PHLyRdlmc2s3GIBY45QZGE5iMt1AXdY5rGNwtnLj/qJ4x4LPokfiXFv3AtbBtYTUtOpvsNBYxAm9WkYZmb7XBzpF5c6KdyNG/bqTvpOYrSIQhX1VQhCEIQpKdYtDgPtCD6/NRoQQpBIuFpbhogUsW7iZ8CQB++Kt2ukHsc08/A7FU+j89UZ0kx6T6yvL5t4a0sae0RB5A6+KzXNc6sQNZXoKb2MwrS7TL46+qziEIWmvPIQhChCQU7I8z2TIIGEg4jIJkDhkVLZ7rqv9mm7WMgZyyPxUlO86JgFzoEZgOAMY9TuJInPOUxs9/06jgwP+0NiBGKZJPxSDUfsF2zDYcGXOnkCL+w6HorLrPU/hWUHMGEGcTjrmXCPNLr7rtswZSB+sf7Z9wbDmTvy708v69G2axUqjPrCXAU8QIbMGTh1Iy9Qvm1otBqE1HucXPcXEnWTA14ZZKvRplz8ztAT49y0sbiGUaQZTEEtAkXhoFhm1PLxsYWjuqzYnYjo31/fzThQ2KlhpsG4A9VOAkVqnaPJ8Fo4DCjD0Q3fU9/sNB7kruiyc1ZXLWwIXSSrq8Wc6amW0WzEknllA+K1NnqBpJM6Qsj019qzf6nfqxOof2gVH6iYwrz3eoSSxvw1NRmdOeo5JnVdLieJJSFjoIPAyrtvtmHsjx7uHetQGAvIFsmAvbdVxDC0yWnbxMd+/gmVeq11hqvaILntxDYEFsxyOviUjb2CM9Dyme708E7s15jqHU8IzM4oHKZB3y1VPF0HVTTLdQ9pPdIn9DxkCN1o4HENotqtdo5jgP5spjxkjhsdkouuj22vI7LTPeRmB5rV3fanPc6dABAG2qUKzZLT1bXEe0YA5RufNXQ2FQFUl0nRaO7cPX0gYnOOOQnJcXhHX1SQ0GcjuYAk/vgs3b7+cw0jTnrGB3bcAQJy7I89t0no16jy9znuLnTLiZMkEHNLg9pm5R5yrhqt7DL/inplj38E26PXgatprknJzQWjgGmG+h9Uyvmy42SNW5+G/z8FkrjtvUve7fqyAP6i5sT6nwWhu63u6ioXGXAT+P+67ZcJVQjQqS4ah+sbs1hcORiJHCZKX2J5Y5r4MB2fdGfomdx0MBqEiQaUiDqDG/gR4JTaLQXxoANG8P3xVHDvzYqrkFvsk9DaNZnXYcyrmJblwdHtJzDOAP8w34RpGs2tda2mwuEtBIiZHBSPsrwYwk5xI0XNw1g2i3ETOERrwPromf8YydTqNjsRpwVwuINglMYxzQSfRLTZ3+6fJRuaQYORTFttaewJJI4H3YVO1PBe+PeIUMqhzsu6ZVwzmUxUix+ee3eoVLZmgvAOhMHuJUS7FJ2FzhENBOZjQTmV25waJJhJpsc9wa0SeCdXxeBYerZlAzI24d2SRqCx2x9ZpqPwyTnhJIggGYIH7CmS8OGimMqfjXVDXcH7Gw4DaIt4aoQhTmsOrDc5meW/wA04qqAoEIQhQvnjey8g6SQe79wVJTkOy1CkvNgD5Lfa3Bjv+C4dUkAjfI8ZHPyK4SDcSrl7W51WlQpyC2liIA1lxznjv5qG7KOOpSbx17sRJ9FSqTIPqnfRtpdVYTs2dOX90t5hriFYw7TUq02niB0HsFq1LZ27qJWqIyCyl7JdoQhCELMdMndugIn2zzywrTrKdMXDrKQM5NefMEfBPw/9oFQ+pn/ANV/T1CzvWcAB3a+a5azPFqNc+PA/r3LrEBoJ7/kEZt4iczGWv8AZaS8ouMBOglS2VxaYMgHjxU9kaSCSTrH79FMpARntCr2e29qD7J9EwqOgJJWZhJCufxBGBruGv6IDtkPpgwQu61PEIUFKoGCDrOcKy90AngljjuoJgqWNkXU1GzS0u0JJI7k0uU9Z1oOnZA+BVSYp5e6rFirihSJOb36DkMs+cJNYHJDdbequ4EtNbM/8oBnugj1IHVO7BV6qnVFRzQwNOE8ZBkAa8MkmuloquMg4WkTz5JTXrOe6XEkn9xC092WTq6YB9o69/DwVbJ2Gd4P3PIJtawi3qeZV6k1mLcynlOSmDqZMEyBI4HQXgCOCdN5aLyq+BP7lVqVaOYXNWpiKc7FjJbVSz6Y/tod+Ub8eXvyXMrqx12l7mA5gCRwnMfFVbRWLSwBpOJ2ExtkTPovQ5tN5e4gYi0aZ5SPHVUabsrweButfEM7Sk5vEH3HnCaPeAJP7Knp34xsCoAwEhoMyJ2n5qhanyY4JTe9kFQUwWl0VGnLhPaPdEp2LqOc4hu3wqr9Pw/Z0c0XdfpsPC571uqrA9sTkdD8VnbBaDUaS5hYQ9zS069lxb8FCK7mgw4gbwSAobHWaW4mE4SScuJJJnxk+KijX7N0bXsu8ZgxXEizuPLgn9msmISTARaLEWiQZC5u69GGmMThIynUHnITNpkSNCuvxb80jTh8ulj6bR7PKdeO8+nRI0K1bLPhMtEg+iFosdnaHBYVWk+m8scDI4AlfKX1XHVxPeSVziPE+aV/T9D3j+F3yR9P0PeP4XfJV+0bxCZ+Gq/wHwPsmheeJ81o+hYmpUPBoHmViPp+h75/C75J70X6X2Oj1nWVCC7DHYedMXAc0uq8Fhgq1gqD212ktIF9RGxX0miAXAHSVcqgAkDTZYhv+IV3yPrnflv+Sn/zIu77535VT5Kkt+QtchZH/Mi7vvnflVPkj/Mi7vvnflVPkoRIWuWF6a1j/ECD7LI8yT+hVz/Mi7vvnflVPksdf/SmzVrRUe15LTEHA4ZBoGkcZT6BAdJVL6gC+jlaJkhSisVJ/FP4pL9P0PfP4T8l59P0PfP4T8lc7QcVhfhX/wAB8CtdZrcP4d5ODGCA0EnERLZynPIu222jOmLyPujzWd+n6HvH8J+SPp+h7x/C75Ke1HFBwj//AJnwKf1LYHEEtOXNe2i1NdGRWf8Ap+h75/C75I+n6Hvn8Lvko7VvFQMJU/hPgVom2kObhc6PA5ri1PZADc51KQfT9D3z+E/JH0/Q94/hPyUmq3chH4SoDOU+B9lpLG7M55ar2kx1V4gEyfADv2CzX0/Q4n8J+Skp9JqTfZqOHc1w/RQarYsQpbhH5pc0xyHvZfUbHctKm6o8QSG9mDLWmDMEkyVwvntHpzhBAtD4OstJ/UFT0+n7Bq+e9h+AWaKNTtHvc8GYi5sAIjS17r0FPEU2MaxtNzYmbaknWxJOy3aFjKX+IdD7Tf8Ad+hCt0un1jOrnt72E/opLY+BPbVa7SfAj1WgttcMAJEmeyOcR8Uml1R4kySYSe2dMLK95PWGNB2HaeS6u/pbY2vxOqHIZdh2vlwlSNF3K24CsWZjS1+KJA7Oec56cdlkv57sP3rvy3/JH892H7135b/kuUSFo6tMOa5p0IIPccil9zWRoszWQ4BzTiByMnXuSz+e7D9678t/yR/Pdh+9d+W/5LnKFEhT2SsbPTosax7+seZJmQZjwyE+C2d1W9rW4HmI0PwWBr9M7C4sPXOGB2L/ALb88nNg5adoqT+e7D9678t/yUNbl009EWG6+g172pjIAu9B6oXz7+e7D9678t/yXq7ko+3kvjq+r/4cdBLLaaFK01usc7E4mm4tFJ7Q7qoaAesMEtJfIE9nMzHyhaK6+mtus9FtCjaCymycLcFMxLsZzc0mMWcTueJUrhfRrL/hNY3NpOdWtTceBhaeqDw9zmNlzQDgHbBwHtCM8zkjvjoDZadm6+lVrw6xPtTWvLJBaLCWtdhb/wDpfMe63nOfd/iJeRibW7IgjsU9WlpB9jMy1p5xnqVPZun9YWCtY6jTUNRnVtqOcAKdMNosDWsDJJw0micXhOZELGIQhCEIQhCEIQhCEIQhCEIQhCEIQhCEIQhCEIQhCEIQhCEIQhCEIQhCEIQhCEzsjLKWt6x9VroM4Q0tmXRz0w8d1JWo2UNqFrqziMmGAGkwdctyMtMgVYo9L7a1rWtrwGta0DBT0bpq3PgTqd5XlLpfbGggVWiXOd/2aPtPnEfY1MnzQhRFli2faI7mTofjHhKp28UMupNQ6z1gbyiMOu/omb+l9qJaesbiaScXVsLjJac5bEAtEAAb8SqF6X1XtODrn48E4ey1sTE+yBwCEJchCEIX/9k=;clipPath=inset(0% 4.2% 13.54% 3.44%);" vertex="1" parent="1">
          <mxGeometry x="304.47" y="346.01" width="84.53" height="57.98" as="geometry" />
        </mxCell>
        <mxCell id="shK0o6eYTKU5Cj1UoSUi-14" value="" style="shape=image;verticalLabelPosition=bottom;labelBackgroundColor=default;verticalAlign=top;aspect=fixed;imageAspect=0;image=data:image/jpeg,/9j/4AAQSkZJRgABAQAAAQABAAD/2wCEAAkGBxIQEhUQEhIWFhUWFRgVFRUVFRUZFhgXGBUXFhcYGBgYHSggGBonHRcYIjEhJSktLi4uGB8zODMtNygtLisBCgoKDg0OGxAQGy0lHyUvLS0tLy0tLS0rLzAvLS0tLS0tLS0tLS0tLS0tLS0tLS0tLS0tLS0tLS0tLS0tLS0tLf/AABEIALcBEwMBIgACEQEDEQH/xAAcAAEAAQUBAQAAAAAAAAAAAAAABgEDBAUHAgj/xABJEAACAQIEAwYCBwQGBwkBAAABAgADEQQSITEFQVEGEyJhcYGRoQcyQlKxwfAUgtHhFSNicpKiM0NzhLLC8SQlNURTY6PD0jT/xAAaAQACAwEBAAAAAAAAAAAAAAAAAQMEBQIG/8QANREAAQMCBAIJAwQCAwEAAAAAAQACEQMhBBIxQVFhBRNxgZGhscHwItHhFCMy8UJSM2JyFf/aAAwDAQACEQMRAD8A6zERIVMkREEJF4iCEvESkaFWIiJCREQQkREEJESkaFWJSVglqkRESaREQQkREEJKAzH4hj6WHTvKrhV6ncnoANSfITU8O7X4WvUFJWZWJsuZbBj0BubH1tOg1xEgKN1ZjXBriATtK394iJypEiIghIiIISIiCEiIghIiIISIiCEiJSCEiJWNJIiIk0iIghIiIISUlYjQkRPJNtTEhepQy0ASMt7kqbsNN9iB+tpbwdHux3Ze5Nz520Gn65zjPcCPnBdZRBuvYrFEzVbAjfLtvYT1Qqh1DLsYNEFch1Fra6k+p6y3ilyUXCC1kbLbrlJHziaHyOEd89qHFsE7z3R2LT4rtlhKbmmXYkGxZVJUEb68/abrB4unWUVKTh1PMfgeh8jOG3sJuezfGWwlYPfwEgVV5FevqNx8Oc0H4YAfTqsKj0o4uHWAQeG33Ww+kLGM+KNM/VpKoUebKGY/MD2EjAYgXBsRqD0O+k6H287ONXK16IBc5UZbgZrmysCdLi+vl6TD4L2Lake/xbKEp+Lu1OYnLr4jtbyF7ztlVgYFFiMJVfXcI1OuwH49lOkq2QM5C+EFiSAAba7zDfjuGBsao9gxHxAkM4pxN8Q5Zj4fsryA/j5zWLUvtr58v5yAUbXVip0mZ/bFuJm66nhsSlQZkYMOoN/j0l2c/wCzeIanXp2Jsxsw6g6a++s6BI3sylX8JiOvZJEEJKRE4VhViIiTSIiCEiIghIiIISIiCEiIghIiXsLQzG52EaDZUo0C2uw6y69BEF3a3mSAPnMwCaDtHgqlRlZAWAFiByN9/wBdJzVJpsLgJKKQzvDSYC2n7ICLq35iY1SkV3E98Cw706QV97k26A8v11myInTPqaCRBXBOVxAMrWLhmPL4w+HYcvhNnE7yJZitRKMbbzPxVC4uN/xmpxJ2XrOct4Tc+GymTvN/q9OsyJ5AtpLq0mbYREAmUxIFyvEpaXWw7DW0jnFe0fdVDTVAcuhJPPoAIw0nRcVa7KQzOK5/2p4O2ErMpX+rYk021sQdbX+8Nre809CmWYU1F2YhVHUk2A+M6pT7R0Kw7uvSyqd7gOvuLX+UyV4BhiveYemiv9anUGuVgbgjoLjUDleW+vyiHC6yP0TKpJouBHDccvkbKO8a7Y91WSjTQOtE2YkkZiq5NLbAXOvUfGR1cUMZgmqUgfGp8PMFW8S+uhHnOaUez+LeoyCgxYMVJt4bjfxHw/OdG4X3XDsPToVXGfVmsCbljc2HTlc9JxVY0AZdVLhq1R7nmrZpG9o2AE8vkm8Dr3JyDS+56Lz9+Xv5S4otoLWG0ltI4HE1KrMy5iQqm5Q2CKb62BJZm3mTT7KUL3zsw9Vt8QIzVA1VUYGo7+BBHb891puymDNSuH+zT8RPnso/P2k4Es4TCpSXJTUKOg/EncmX5Xe7MVsYXD9TTynXdUlYicqykRESEiViCFSIlI0KsSkrBCRERISJTML2vrvbnaVghLTWdhqzZKqux8LA+I7XBvqfSeO0FGqVWpRYgoSSoO4Ntbc7W28zI1SrVKpaigP9a12VeZF9PS5J+HSTUxZZmKr5KzbG0xwMj7hdLrVR3bOGFspIYagab+c1PZ7jRr+GplD8gOdh4j+HxmMAuHwpoU6oNVdLXBuxJcrbzAYW5+sjvZ7F5K4YaAkXJ1yqSLgdSbBQf0OosipiC2owHfX5yXSJreN8aoYOma1eoEUaDmzH7qqNWMrxvi1PB0HxFU2VB7k7BV6knSfPvaLjdbiFY16zdQiC5Wmu4UDz0uee/QDqnTz9inrVhTtuppxX6XKzNbDYdFW+hq5nY/uoQFPlcyVdnu02KKA42nTBOoFIMCo/tZmIJ8hOddiOBhiMVUGg/wBED1+/b5D0J6ToNGiDdG+z4r9V+1b5ETOxuLyP6ultqdb8FewWGLmdbWOug5cfS3iprRqh1DKbgi4M07jNWtsM1vmY7M1iy1L7BhYdLjYfCRPCVW/pO2Y2/aKgtc23PKWaDutYHKljHGg8MP8AsAp1i2pUUzPt8yegkR7S9q8XTp95haVMhdWFQOzZRuVysBpzE3fG37yp3B+6Cp/ta/l+EifaHiiYVM51C+BAN2bU/PU+glGpiagrBtMTeI4ngtJlCmaRdUMWmeA2P47VruFfS5VDAYnDoyfeokqwH91iQ3xE2PHu6xAGOwzh6VQ2a26PYAhhut/Pn6icsxLio7MAEUkkJckLzsPK5M2XZfjzYKpmtnpP4a1Hk6dR0ccj7c5ummNWiOS89Ud1gLHnsPv9507lJ3uNR7iZnDuIvRIam2h3H2T6j85kY/hYCrXonvaDjMjjWynkw5W6/gdJpywVh91r28m3+B1/RkdnBZ7mvpPvYj5ZSXh/aoK7q1PwlzqD4hmAJ9R8I7T4M1CMVTOamyi5HK35fgbyLto4PJgR7rqPkT8JuuCcRdD+zhrJUIBPNLmxK9CRp8+U5LA05mqy3EGo006ptseB+3otFh7kuRaxbT2AU/MGZ/Da9SnUU0yQ2YCw567Ec7yc4jgOHcAd2FsLAr4TYact/eMBwKjQOdQSw2Zjcj05Tnr2wph0ZVDxBHatjKxErLbSIiCEiIghViUiCFSJUxGkkRESaTxUcKCzEADck2AnuW8Rlytntlsc2ba3O8EnaLU4th+1YesrAqwZLggi9jbUebfKXeD8Reu9U2HdqQE09efpr7iYFfgtF1ZsNU8Q1CKwIzDbTcHzlauLWhgk7o2L6X5hr+M+osR8JNAIgdizg97HlzrC7jBmbBsDlNzwJAVzjvEqtCupB8BA8PI6nN77fKY1XjK06lepTOtVECHobAE+RGvvMuriKLUqdDEE5mQNrfQkWBzcj+jNd/RFKnXZKjEoqZ77E6gWNvfbyjbG6irdaXyx0gnc/wASQRfunwWNhqNqDO1wHYKjcgyBjr5HMRflaW+HVLPm3YNdVP1c33mP3V3/AJXmVV4iaiXAFhmQ0RoMg8SMOjKSdd+eovNBUrEL9248W1/Q/q2kkF1QeWtILdB8+b7HYrA+k/tP+21xRpm9Cj9Xo9TZn9B9UfvdZH+B8IOJrCnfwA3qEclH/wCth7nlLWPpDVwLBjlpDmQN287/ADLTovZfg/7PRCkgO1jUJPM8h5AafHrI8bif09EBn8jYe57vWFsYCj+qq5n6C5+3f6SsykAPCoARQAtrW0uLW5Wt8/KbPCMCjlvsqFv5E7eunzlmnhyri+oFzcbEKCd/aXqIVaJzX8T8rXNvXznmgIPj8PivTPIIjmNPnALddmGBV7CwBFuux3PMyJYT/wAU/wB4qfi0lvZhrq9lsMw09jueciWDP/ef+8VPxab+B/4R2e5Xmulv+Zv/AKCkXGkP7QGFjYLpz36c/aRD6QeFO9J2p3vTqZwBuwKkMB1sGv7SUdpge+/dH5yxj7v3ZH2lA9+f4zJfU6uuXgXDpW4KXWUWsJs5se64abakG4HPb5TbLhiFAqU8rW2ZbHy3nQeJdm8FUYs9MM1zqhZL+bFSLn9XkV49hXp1iHcuCbozG7W5X9Dcee83MPj2V35AIMGZ9tjzlecx/R76FHrCZEiItrOoNxtESt99GvGBSqfsbtanUN6VzolTmvkG/H1mR2woXxFVAALZbWAtmyq1z7mQZTbUaEG+m485LG4kcTas31yqip5soC39wAfeWHMh2YLOdiC6kKbtiCOy9lrarXph1+ycxB3BU+IfC4mbQXn7/wAJYKhXv9lrZhbY7BrdDsfabDs3hjWqLRG1NvH/AHRYj4iw94E2lQsYXEAbqX9o8Y9OiuW4LkAkbjwkm3QyJU6zI2ZWIbqCbya8bxVKnTtUXPm2Trbn5W6yHYyrTNilIob7ZywsfUXB26yClpor/SI/dnNsLXt7X5lbWh2nqKLMqv5/VPvbT5TKwPabO6o1MAMQAQ17E6C+m0ilw2pOnIXt7n+EzeDYfvKyKv3gx9FNz+HznRptjRRUsXXzNaHTceq6BERKq9EkpKxBJVtKzzEEoSIiCaREQQk8VEDAqwuCLEHmDvPcQQRKjuI7Lpe6VSnQML/A3BmHX4K1OpSp1HvTdjrroxtcepsBN1xnhdPEEXqBXAsNQdN9VvNTX4HiguQOGXpm6bWDbexkzXcSsithwCclK20GZ5EeS2XHeE9+MyEZ0GW3IjfKeh109ZGEp1KtRaJ+sPCA2lgLmx9NfhPeE4pVoV6i1HZA5GYhQxVxdb5SDcaDbrpPPFcQwIrLXVzewZU7thpzWw5c521rhbwVbEPp1DnAIM/ULadmunJZnEVSmf2cjK1MDu6o+1cZiGH94mxG0juMsSAdfL+Mu4quneF1DWbKTrc3trcnfW+vOYmPrZLtqdgFAuSbbCSNCq1XBxt84dvaqcJ4d3+JFVwclLUXBClvshb7gbk9bSVikR48172GXSwte5AtfW/M8pb4XSPdrmAVioLLc2BI1F5nDBtnt9k7MOutrkadJ5zF1nVqpOwsPnNe3wGHbh6DWHXU9pHsvOGrZSQb5SLMPLr6zPxlAKqKzWCjluSTyExKNAGqFGozfIa/lPPEKueox87D20lcGG37FbIzPEcJPopB2XYFaltswt8JyThf/j3+/Vv+N5KuI9sRw6gyouavU1RTsgAtne3K+w529ZzHB8Sq0a6YzeoKhqhnGjtmJYnrck3tPR9HNPUAnce5XnukKjRWgbEHyC7h2hrFa1txlW4Oo5y1VqDuVZRYglRre19Tb4W95rBxxMeq4hBa6gMp3Vx9ZfP15giZWFLNh3zAC1TSxvdbgA7CxPSYVeRVeDtK26YaaVMjktdjLZCSzKFsxKC7WU3IAsb3tawF9ZA8XijVc1G3Y39Byt5ATor0QrnK5YWBtYALbe2l/jIPx3hhouTbwMbqel9bH9bS90Q9geWHU6e4Hke5ZPT7HupMqD+IJn0B9R3rWXmdwrGim1m2NvY/wmvKD0PUTwxI326jb36TfIleWjgp1xDhNUo2akQoUlmNhYW3Bv8AhNhwnDHA18PnOmKpFKp5CtTHeJ/lNQe0tYDtRRqYE0qj5aq08tmv47aKQdiSLab3mX2uxFOtgu+o1FdqD0qwyMpIysA17HTws0puLv4u7PnetfD06TSXsMmAdp5jwF1rOJ441nLn90dByE11Y3UkbAE+ptf4SoObX7PLz/lPVekcjlASAjEgAmwCnXyElAiyyS4vMnUqqW6W9pNOz3De5TOw8b/5V5D15n+UscE4KqBa1QgmwYDkulwTfczaf0jRvbvF+IkFR82C2MHheq+upY7BZUSgN9ZWQLUSIiCEiIghIiIISIiCEiJiVOJ0V0NVbjfW/wCEcLlzmjUwtZxXs6Krmoj2LakMLi/kRqPnMSlwrG0f9G/srC3wYWmyxPaKiv1SXPkCB8T+U1FftLWJsoC+1z8Tp8pKOsIj1WVW/RtcXAmf+vyFq8bScVr4hSW+sRcAkHTcacrSyaljnWw1JAH2ddN5dx2LescztcgWGijTU20E1j1mRwdSGYLYcrgm/pp85OBZZjyMxyzrvr3q7Wp9BrcXIIv8DLlElXzHKRrZbEsT1J5W6a38pRb5iSbg7AADKfLqJeFr2QZm6/y/jIX6EXg9wjt2HmpaZuHDLI0sZmf9d3cLRuVsMBWLg3a5B1GlxpfUDb3mSKxpuFzWYgstr/VFtzt9ofGXMNSXKA1g5tdwNGNreK29tr9J7xv12HQ2+Gg/CecrOaXuc0QNo7Pnavc4Zj202scSSBebzp/WpjRbDBEHNVA1CnwgfaPMes1zYYj6xC+ROvwGvxmYx7ugoGhc39v1b4zVKpzEliQQLLYWBF7kHc3uN+k5cRofkqSmDJI0mPD5zUVxnZytxHiLUkuEAp95UI8KLkBPqx1sPyvOhdpuw1HEYJMNRAR6A/qGPX7SudyG5nrrK9gauc4sjlXVf8NGmD8wZL56Ki9wpsHAD0WDWpt615O5PquMdhaD0O/oVqeV0qKGRrgg25EciANdQdJNaOU0amW/I2Nj8/aRzGYtRxnGUWbLnWiVO/iSghtbrZif3ZJeH01KVFVrkjmLcj5zKxrT+oJO4B8loYRzf0wj/Ex4OWJhKRYMFGpyr8Tcn/LPGIwV7q1su1ntr+7v8p6q1ABkTb7TfeP8JjVKLsrBDZraErmA87XF5QtYb/OF1oQ6C7bh4c48eaj3GOB0lH9W2VzfKhN89hchb67AyMso85IeNdrqNJstJRVqLsx+opta4O59vjIn/SjMzM9rsSTlAB18p6bo44gs/dBjYnX+ouCfReR6Wo4cVP2IncDT7TNoHkdbynKbHY7Hp5GXWYgGxtdWU25gixHpLdKotXwDUnlJR2U7PMcQ1PE+EpRFVENj3itmVWuCRYG1/aXnODRdZVOg6o+AL/LqSdl+ArUoUa1Rrh6aMFXTQqDqd/YfGbrjtNaeCxIRQoFCqbAW/wBW0x+xL5uH4U/+yo+Gn5S/2rqBcHibm16NRR5syFVA8ySB7yg5xL78fdegpUadKnLRtrvotJx3GEUqNO9lFJC3mSBa/pb5zSipfYe50/GeSlSowardWAFkOmUKABcHc2H63mVSRicqjMx5AG//AElgDKFg1qnW1C7w7uC33ZauQzUr3GW4HQggaet/lJJNVwHhhogs/wBdtx90dPX+U2sqvILrLewjHNpAO1+QkRE4VlIiIISIiCEiIghUmi7RcJzA1kHiH1gPtDr6j5zfTLwmH+0fadNJBsoa1JtRha5crYdD+c8sraHS49vaTHtF2aNzVoLe+rUx8yP4fCRBlOx05Ec/fpLYMrztWi6k7K7+1aWppcgi/wAPiJRD1t1+UoDuCSOduUqtj9m+2sahlV6kc5m8LoMbEMAl9SNb2OugkV4vjXpV/GGFMAKVuVJUm5YX3NxodQbdLye8MwdFKFOnSbYXDMAM19bkjS5Ot/OUOkKxYwARfjcf2tzonAZ6md5Iy8CQR27x2d/BX8tMfaY+gA/EmX3p97lZb6kI19TpsT7fhMbH2pBhlLFVGi73sCbDmdbTO4ce6ptVPPQDrb+f4TCDbwdPsvVOfbMNdu9WOK1LvlGyjKPz/XlNHxLGLhKDVCxYi+XMbksxJC+g+QE2nFymHRq9V7U9De12OYiwCjncgdNZzPtTxb9pZWW/dhPAL7G/iLDrsPSxvraW8JhH16n1D6Zv3bfNpVPE4ynQpQw/VFu/fx84XQfoaxP/AGfEM2rNiMx8yaakn4zpVNwwuJy36H//AOav/tv/AK1/jOgUqpXabVV0VCsug39tq4t9ItdqfF8RUXRlaiynoRh6XxHlOgdkceuJQV0+qwKuvNKgsSp6joehEhPbWjRfiuJbEMyUytMgqLnN+z0wOR00PLlNfwfjr0sSho3SjSVrpfQ01Us2bkWY633uw6SPFURWaCBdomdoiY5zw2XOHqupOcJs4xG8zryjzUq7aYqpQK00JUEtdhvYZbAHlvIn+3VP/Ub/ABH+Mm/HWp8RwQxdDUp4iv2lt9dSOovfzt6Tn7r03neAY0UspFwSDa+srP6UfUdXzZjBAIuY0v53PaskYtiMpOdfu1PGPhy9RYyzj8Jg1oMyCoKxYWUkkKLi4va2W199b2lpG5HQy6ZaNFsgi15tae3jz35qrTxVRtj9QiPqvHNvA+XJazhVXLWpn+0B8fCfxnUcRWKUMLj+eHc0qvnRc921+uXwN7GctxdPu3DDbce06/2dVamEr03F1Ie4PRk1/Oc17QVbwrs1W24PlcLJ7Ai3DsN/s/8AmaWsK39I4jvt8Lh3IpdK1ZdDU80TZepueU0vCsQ9fB4Th1BirPRV8RUX/VUSTcA8nfUDoLmTKo9LCUVUDKiAKijyGgErusSdz881pAjKM2gF1mOoO4B9ReURAuwA9AB+Eh+M4/WqXynIvQb+7fwtMahxish0qseoZiw+f5RCk5VD0lSzWBPO3up3ExeG4wVqYqAWvoR0I0MypGtFrg4SNEiIiTSJWIIVIgxGhIiIkJL+O4nRw6jvHA00UasfQD8ZYM5xiarsxZySxPivveS02yqWNxJogQLmfJTGv21UHwUSfNnC/IAzEPaDDV2viMKP76kMffQG3vIqKg9PWVJtrJ8gWQcbVOpB5QIWf2kwaU372gQaT6rl1ANvEp5jXXXr5TVYmr3VJ6h0yrp620l+qotmG41/l5zB4lSNSnUXmVNvW2gnQULiC+YifnwKOV+JviBfEBnpiwFQDWmSOR2N/une3IyXdljnoBS+cUWGV0YgFSDlV13BGoysLaDe0gKYyotJqIc927BmTkStspOn6t6TY9leLNhMQLKXVyKdSmupcE6ZbbsDqPcc5BisH1lMtZAi4G2nluDFjuFu4XGdXUDnydiTr+YsQTfnC63To9+q2+stlb+7yPryle0WPpYWl3j+LIpKUgQM5Fr78gNSeQvvtMbjXGKPDKRZvFUe+RBozW29FHM/yE5NiuOVq+I/aarZmH2dly7d2o5Agke5My8JgnVQXEW9eX3K0MXjmsdlafxOp+w7lk4rjtXFVu+rn+rP9UVH1KauDoo8rZr8yBNRUoFC6keJDY9NGyk3v1t8ZknAoKxptVCJYstQgsCCuZdB1BEy1wAxNFsT3iqyIBURvrMQLAj1UKPNgZtdZTpwRZpA2Pd7g8LTxOT1dSoC3VwJOvj4WI43hdB+iOnbB1G+9Xa3tTpj8QZOJG/o8wndYCiDu4NT2diy/wCUrJJK1Uy8q/REU29i5L9IFWiuMxK1EYs9KmaRU2AbIFuddR4R8JFMP4aNV+blaS+n+kf/AIUH70mX0rcPJxeHcWHeoKdzooZX3J9Kg+EivHsN3DLhiwbuwSWXm7nMdOXhCD2k7C05WTc3jk3hsLgeKp1AQXOiwkTzdx3NiT3LM7EccqYTEKBrTqELUTlb746FRc+YuPSR9peAotMYzDMDQexsPs5joV8r6W3H4Qjhmgq1PuUmAPnUIpj5Mx9pIuxHGMo/Yq4vh8QxRTmF0qG2oG4BJXyubjnOaoc2oajNoBHHc94ER4KIMZUpCm7ecp4bDuJkFat0v69Z4Rjex35ecyeM0v2Wu+Hc6oRZrWDAgEHy0P4ywUDDe/Qj8pcBBEjRZLmOYcrxBVjiS3W/QzpHAMRkwWLf7tEN/wDC38JzbFuchU7i3vrvJ7cpwnEnm6JSHqwRLf55FWEgDmFbwdng8A70Uh7CcGXC4Sn/AOpURalRjvcqMq+iiwHp5y12vY56Y5ZSfe4/hJBmWjTuzBUppqxNgAo1JPIaSEcXetjf+05GTDHw076O6/fI3RG3vudNudanLn5itDHDLQyAcPLcrWpULXCbXN25eg6mXkp26fD+cotO2gItyFpvOE8CeoQ1QFU6HRm8gOQ85M5wGqxqdJ1R2Vo+c1u+zdIrQW/2iW9ibD5C/vNpKKLCw2GgErKZMmV6amzIwN4BIiUES7VbRF4gkkREE0iIghJE+1PDsjd8o8LHxeR6+h/H1ksnitSDqUYXBFiPKdsdlMqDE0BWp5T3dvzVc2Zb76y2VHIkemo+e02fGeFth2sdUP1W6+R85ry1paBBEheaexzHFrtQrTEgWNgOv62lc3K8OxMoTeNcqL8b4cab5kTMrk2sCSGbTLYeeo8z6Tf4HCLwlEeoA+OrWWlTOooK5y5m/tf9BpmMyUcqQRoQbgjkZGKwb9vQuxYtWRizG5ILrb4be0TwXiDoNefLkOPHRaOErQY/y2Pqe3h47LN7dUc2Iq1FZmCMEcE3KWAC26IeXnfrIyTp+ckHauu1LiGJZSQ3edAQVIFwwOhG2h0lpcRh0pJiaRyYpagbIASgs29muALWO+/y5oudTpMEEyBHeJvwHPbcTc26rRUqPMxEzPIxbieXgYsLKUUq4Yu1VVqUfCEO9RSQVA15Et19rS1wDhJxmIp4dRufGRfRAbs3kbaDztLCUKtep4VLvUYmyjUsxubAbb36W9J2PsP2XGApEvY1qljUYbKOSL5DrzPtO3O6oG+psOHHtEzcpNZ1zhbSJPH7GNgpHSphQFUWAAAA5ACwE9xEpLTUY+kPgxxWEbKLvSPeoOZsCGX3UnTqBOJrb+Fp9JTj/wBIXZQ4WocTSX+oc3IH+qcnY9EJ2PLbpe1hqn+BVDF0p/cHf89VHq9JqWHUMpU1Xzai11RbL7HvGPsJZwuELioy1FU0xnFzZmsdMg5t/KecXjqlUKKjlsi2W9tB00Gu251mOwFzY3HI2tf25SdjX5bmCbnca8+UC/sq7nMLrCWgQAbHTlzJNvRTrt69FzhscylzWoKQmykizXYjX/WAWFr23Eh1TFVKjXvrsAosqjoqjQDykp7QDPwrh7n7LMhPQeJf+QSKv/V6W8RF7kciLg6jYggiQYRgDOYJHgduCkxTiXRsQD2yBqs6mO9K0iASTqdrKNz8Py9ulcWwnd4PDUCNa2LoBh61M5HsF+Uj/ZTgGTBVMZVHjqZRRB3CFxdv3ifgPOSLt9SFV8FhjU7sPVdme4GVKdM5yCdtGIvyvHUdmcAlh6WQlxGwgdpI9lef/vSsR/5Ki+vTE1VO3nSQj0YjoJn4jtZgqbZDWGmnhV2Ue6giaTj/AB7Cpgmw+EYkBVRTSSoaYXMAw70DJtcb3N5z3P8Aq0TKOYXsNksVjXUXQyCTcn2C7dgWoVAKtHIQdmQL76jnMqc1+jfEsMS1MHwOpLDldbWb11I950qQVGZHQrmErdbTzRCRESNWUiIjQkRESEiIghIiIISeM46j4z1EaUq1iKaVFKPYqdwT+rGRDivZ56d2pHOvTTMPb7Xt8JNJWdNcW6KvXwzKw+rXjuuWtobHQ9DLdhOquAdwD6i88dyn3F/wiS9fyVH/AOWdn+X5XLgZGuO1gmJpvf6qo3+Fyfyndu5T7i/4RPLYWmd6aH1Vf4RjEAbLqn0aWmc/l+Vwjj+MGNxdWtQR2FQghct30RVNwt+YM2fBuwWMrkFwKCc2qEZvZAb39bTtFOmFFlAHkAB+E9RCvDQ1osLcVZ/Sy4ucZnu91o+zvZ3DYFbU7FyPFUa2Y+Q+6PIe95uc46j4ieokJJJkqyG5RA+ea85x1HxjOOo+M9Ss5XV14zjqPjPNTIwKtlKkWINiCDuCDuJdlI0XXOO0f0bqxNTBOq8+5c+H9x9x6G/qJAeJcHxGGNq1F08yLr/jW6n4z6GlZO3EObrdVamEa7Sy4SeOmvhKOASiWamzEMpLFsxY/UC3H1up2kl7J/R+WZa2NsFGooZgS1tu8INgv9ke9tp05VA2FvSeoGtAhojU+KYw15cZWn4+65KdMEeKqi2Ftr3/ACmv4tRp1+J4ZKiq606FarZgCty9NQbHS+klBEW5yEOjzUvVkuJO8eSwOM4FMTQegWC5gLHTQggqbdLgaTnL9kcYGy92pH3hUp29dSD8p1SJ3TqlmigxGDp1yC6xHD8yo72S7OrgwXdw1VxYkfVVd8oJ3ubXPkPeQgg7GeonDnFxkqxSpCm0MboEiInKkSIiCFWJSIISIiCEiIgkUiIgmEiIghJWIghIiIIVIiIJBIiIJpERBCrERBCREQQqREQQkREEJERBCREQSCREQTSIiCFWIiCF/9k=;clipPath=inset(1.37% 19.45% 3.55% 18% round 50%);" vertex="1" parent="1">
          <mxGeometry x="397.59" y="461.99" width="68.83" height="69.63" as="geometry" />
        </mxCell>
        <mxCell id="shK0o6eYTKU5Cj1UoSUi-15" value="" style="shape=image;verticalLabelPosition=bottom;labelBackgroundColor=default;verticalAlign=top;aspect=fixed;imageAspect=0;image=data:image/jpeg,/9j/4AAQSkZJRgABAQAAAQABAAD/2wCEAAkGBxIHEhMTEhMVFhUXGBoXFxYVGBUVExUYFhUYFxcYFxUYHSggGxslGxUTITEtJyk3LjEuGCIzODMtOigtLisBCgoKDg0OGxAQGjcmICIrMC4tMC8tLi8tLS0tNysvLTUtKzItLTctLS01LS0uMi0uKystLS0rNS0tLS0tLS0rLf/AABEIAMkA+wMBIgACEQEDEQH/xAAbAAEAAwEBAQEAAAAAAAAAAAAABAUGAwIHAf/EADsQAAIBAgQDBgMFCAIDAQAAAAABAgMRBAUhMRJBUQYiMmFxgRORsRRCcqHRIzNSorLB8PEVYlOC4Qf/xAAZAQEAAwEBAAAAAAAAAAAAAAAAAQIEAwX/xAAtEQEAAgIBAwIDBwUAAAAAAAAAAQIDESEEEjFRYRNBwSIycYGRobEUIzPh8P/aAAwDAQACEQMRAD8A3QAKPKAAAAAAAAAAAAAAAAAAAAAAAAAAAAAAAAAAAAAAAAAAAAAAAAAAAAAAAAAAAAAAAACRSw3Fq/kc6EeKSJq7zMHV9RNb1x1nUz9WjFSvb32jbm8PFcvzOFWhwarVE50m3rt/jPyUUvRlK/GrNr132x8reZ9Z9l47b/ZmNfgrAeqkeFtHk9GJ3G4ZZjU6AASgAAAAAAAAAAAAAAAAAAAAAAAAAAAAAADpSw1TEJ8EU35vhjfzlZ2+QTETPgw8uGSLBWhy1/VGVjn1fLK3w62Eip30UqjSa6wlwuLSNFl+e0Mzg5xvBrx05q04t7ac07PVdPYwdTXU/Ej0143r3j3d+ntXJHw98793VS02/wAsc+K27slr5H68VCpe13pfZ7X/ANme7SZnwyVOG1lKVud9bX9FqebHTxe9a47eI/D8f5XzTPT1+Jk/L3lHxecVMU5/BVkudrzetlZFdVxdaLV6krvkparydtL+W/WxJw0amYXcHCnrd8EnFu+/Ek237lngsrjhnxSfHPq9EvRdT3qxqNQ8Pty5p3uefyj9EjAwnCEeNty3d/Pl7EgAu9CsajQAAkAAAAAAAAAAAAAAAAAAAAAAAAAAFlluBjWSlJ36R226si5x2qp5a/h04cUlpr3Ka9+ftp5lhlv7te/1ZKqKNZcM4qa6SSkvky2uOGucdpx/251PrrbC4/NqucR4KqoSjKVuBxat/wBoSck7rXZ/UzONzB5FUjUScn+7lB2twpXXDOPSyto9OZ9Tn2dwlbX4MV+Fyh+UWih7V9gaeZUbYa1OrGXEuOU3CWjTi278O97pcilscW4sy4ulz1zVva29e/8Apmpf/o8FDhjSqLTlwRT9ZcTf5HbIsLis8pvExpwkpuUeG8bxUe7Zcfp7/kY3DdlsdiKqpLC1oybtedOpGnHzlUtw8K6pvyufbeyOSPs/hadByU5JylKS0jxSk20vJXt7FMfS48fNYejnp8avbZkZdn8W7SdNQcUlxKSurdFBu2nkW9CMoxSk+J82la/sa8h4vLoV9V3ZdVs/VHTt0x/0cU5rKgB2xOFnhvEtOq2fucQ5TExxIAAgAAAAAAAAAAAAAAAAAAAAAAAAAAHerjZYKFJxs0+O6fOzXPluywwOPhjFpo1uny9+ZEeA+3Uoa2a4rdNXz+RDhhJ4WNZSX3FZ7p95bMncw0xa9Zj019GiTsdI1epmsrzGcZRg+8m0td1foy5w+LhiG0nqm009Ho7e6LRO3fHmreNrFO4I8ZOIr4yOHi5SvZdNb+gdUggY7NoYXRd6XRbL1ZT47N54nRd2PRbv1ZWzmqau2klzeiAnVcdPGS7z05RWkV7Ar8uxUcW246pO19r6X0+ZYFZYc8xNtx6AIuMx8MH4nr/CtZf/AD3OGW5k8dKS4bJK+93v/srtknLSLdu+ViACXQAAAAAAAAAAAAAAAAAAA4YrF08Gr1JxiuV3v6Ldnc5YnDwxUXGcVKL5P/NGQid64Vq7S4Vu3xP5Z2+hY4bF08Wr05xkv+rTt6rkZHOezv8Ax96lOPxKa8UG3xR87xabS/3ch0MPf4UsPLhqcWq44ymoy4FFvh3im3e6Ts9VZXKd8xPLJGfJWdWh9ExWJlhoUXF28d+j1W6JmCzKOMjLjSVl3r6wavbmQchSzzCUp1NJd7WO2k2m7efCj08BLBwrXs046NfiXLkdYmfL1KTfi0fdmPomPKoqcZ03azTtvFq/J8ikxlOVCpK6avJtPbdtppnbKcXOlOMU+62k09Vq+XQt4Y6li3KnNJNNq0tnZ2un1I4mFdUyV44nf7o7zV4b4akuJOnGTf3ru9357I7ZjiI4mi3F3V16rXmjlmWVOrwuD8MVHhfRX59dSJRg6dCommmpx0ej5Fud6dqWvGTtnwz2PzqOHvGHel/KvV8/YrM7rSqund704ytyu762PdPKKmMnNvuQ4pd6XPvPwx5/TzLqXwsAlOVk4xUVJ+Ky/hXJ77dSvMqfbyRPdxDl2eoywkH8RcOrl3tGlZatctuZ+V83liZKFLupuyk923tZcvqccRjVjaM3FNJSS13ezOFHFSqcMYxjfhUeJtxm7f8AbiVlyt5K9yJeb1uXttFKzxr9XCrScE3UupvaL8XVud9Ure7vfbe+yDDfBp8T3nr7Lb+79zjg8nk7OtK6W0Ltr3v/AGLkiIcum6ea277QAAs3AAAAAAAAAAAAAAAAAAAiY/MIYJa6y5RW/v0RTzzStidYuEF6wT/nevsWGIyWFdt8U7vd3T+qIFfIZw8MlL+V/p+ZWdsGf48zxHHs9faMRS4Wp8UWleVozhHlLicL2S39Gimr0HQqOdLhpTT1i1GUVJb8Emnw89NvOxOr4avFpuElZWXCn3UujV7fq7nnG1Z4l3cGtkrx79krLim1xSdur9loiJjbNa9o9fz/AO4XeVKeEweF+7JOrs1zqX04dLF9l2aupGXxPuq7kuettiP2cw8MRhKUZpX79r6SX7R3a59DrPK3ho1eF8SlGyX3r3T9y8RMPdwxeK1tHjtj+Ev7FSxEo1IWumneOzs+a6lJmODnh5Sclo5NprVau+vR6n5llSVKrFJtXkk1112aLalm8ZSlCorauN94tJtarkOJhO6ZK88c/uizzGeD+ElrF0otp9ddb9dESMZi44yi3G+6TT5O50x+VxxaTg7NRSX8Fldrb1IKw8sNRqKSs+OPo9tmW527U765NT4ZXMc84G401qtHJ+Wmi/Uh5rGWJnSSTlJ046JXbereiJVLI5VpylUfDFybSVnOSbftH318iyxOLp5crPeySS1m0tk309SvM+VO214mbzqFd9klgsPJStdyTsne2ys3tfTkcXVoxtZN3jwu9k0/4krc9d3fVrTQtMvqLOYy41ZcWiT10Ser9yxw2X0sNrGCv1er+b2ImGPqMPdeJr41CpyylidOG8IdKneXst/oX68/0Mxnme1KMv2LXDHR3Sal568rnrs/2injqqp1VDVPhcU07rWz1fK/yIhTHNY4iWmABZ2AAAAAAAAAAAAAAAAAAAAAAXAA85lJxjQadn39efiiWGS42eJ4lLXhtrzd+p3wlGNeklJJrXf1fyP3A5esHKTi9JW0e6s+vMnU7aqUtFotHjX0dauFhVkpNd5NNNaPTr1KLMcsnScpLvRbb03V3fVELKu1M6PdrLjj/EvGvVbS+vqarCYuGMjxU5KS8uXk1un6k6iXbLgi0cqSvjJ4V0nF6fChdbxesuRJxGN+20JO1mpJPp7E3HZfDGb6SSsmumtrrpuV1TCSwdGalbWSaa5oc7c6VvXJ7MXmWcTk5Qh3Um03952dt+R+Y3CzxkqShFt/Chd8le+rk9ETaGRxcpTqu95NqEbpWbb70t/ZfM74/M4YBKKV3a8YrSKWyd+mnLoV16qdlpiZyTqEjJcD9hXC5KTbu7KyWlrK++3kTsVSdeEoqXC2rX3sVnZ/FyxilKVvE0ktkrLQuRLll1OteNMJXpWcoPk3F+zsVFKpLCTUl4oSTXqmXmL/AHk/xy/qZQVZOTbZzh5ePzL6hhq6xMIzjtJKS91c6kTK8D/x1NU1JySbava6T1tp53+ZLOj0IAAAAAAAAAAAAAAAAAAAAAAAAVq7YLK68qFWH7NWtOPijxRUnxR5q7e2vkzXYHGU8dFTpTU4vnH6Po/JmSzTJqWZ+JWlynHSXv1XqZieCxfZqfxKUnw85w8LS5VIPl66eZMS34slbREfN1RrexVN0nWUk07U3qraNTafo0zC4TMI1LKWj/J/obnsRJz+Ndt6U0r66LjsvQR5aZ8JWd1ZUK0XFtPgW34pHupjHjKEnJK6klpz9i1xWEhil3l77SXoysxOC+xUpq905Jrk/cnU7ZIpeMu/lLA5pmNTESlG9optWXOztq+ZLxGWzxzpONlH4UE5PZb6Lm36fkT8PlFOlJzl35Nt6ruRu7+Hn76eRPI16q1w2tvv+avwjhlacINylvJuy1aXJbK1tL+53oZo4ePVddFYps0k41pteX9KKLMcVOvJpvRctkc5nl5uTLM5Jj04WleaqTlJO6cm0+qbbRQz3ZbYbwx9EVM92RDNj8y+rAA6PQAAAAAAAAAAAAAAAAAAAAAAAAAABQ5t2ZpYy8qf7Ofl4H6x5e35lLgsfi+yk9u694y1pzttaW6er+eqNweK1KNdOMkpRe6aun7Box9RavE8w75D2qoZxaN/h1P/ABze/wCGW0vr5E/Ov3T9UYHNeyd7yoP/ANJP+mT/AL/MhrtNi8FCVCpra1vipucLefNety3c10tW/wB1pMVioYRcU5JL835JbsoszzTEVlalTlGL0vvUfsvD9SHhfiwfxa0W3Lwue9l/CuS16ErFZnCgubb2X6spN2PN1vZfsrHhEjQnhu7UVpLVpu7111fXVFVivHL1LOnipYy85b3t7JKxWYrxy9SnzeV3d2S0+qyw3hj6IqZ7stsN4Y+iKme7EK4/MvqwAOj0AAAAAAAAAAAAAAAAAAAAAAAAAAAAAAOVXDwrOLlGLcdYtpNr0b2OoCWf7UeKn6S+qMnmXiXp/dms7Ub0/SX1Rk8y8S9P7s5z5Ybf5Zdsu8L9f7Ih4rxy9TSdmssjjqEm7qSm0mvwx0aJGE7KJzcq0uJX0jG6T/E9/ZfMnS1cVu7fq7YPJ4YvD0ZLuy+HHXk+6t0Mr7L08N3qtqkt7fcXt973+RfU6apJRikklZJaJJbJHotpojHWJ3oABK4AAAAAAAAAAAAAAAAAAAAAAAAAAAAAAACBmmWrHpa2kr25rXqvYzFfs7XxNRRsopLWbfd35W1b/wA0NsCNOc4qzPchZRlscrp8EW3rxNvm2ktFyWiJoBLpEaAAAAAAAAAAAAAAAAAAAAAAAAAAAAAAAAAAAAAAAAAAAAAAAAAAB//Z;clipPath=inset(2.24% 1% 7.21% 30.88%);" vertex="1" parent="1">
          <mxGeometry x="647.1199999999999" y="189" width="52.88" height="56.28" as="geometry" />
        </mxCell>
        <mxCell id="shK0o6eYTKU5Cj1UoSUi-18" value="" style="verticalLabelPosition=bottom;verticalAlign=top;html=1;shape=mxgraph.basic.acute_triangle;dx=0.5;fillColor=#f8cecc;strokeColor=#b85450;gradientColor=#ea6b66;" vertex="1" parent="1">
          <mxGeometry x="1098" y="201.74" width="190" height="158.26" as="geometry" />
        </mxCell>
        <mxCell id="shK0o6eYTKU5Cj1UoSUi-19" value="Enfermedad" style="text;html=1;strokeColor=none;fillColor=none;align=center;verticalAlign=middle;whiteSpace=wrap;rounded=0;" vertex="1" parent="1">
          <mxGeometry x="1163" y="281" width="60" height="30" as="geometry" />
        </mxCell>
        <mxCell id="shK0o6eYTKU5Cj1UoSUi-20" value="HUESPED" style="rounded=1;whiteSpace=wrap;html=1;fillColor=#008a00;strokeColor=#005700;fontColor=#ffffff;" vertex="1" parent="1">
          <mxGeometry x="1282" y="194" width="117" height="39" as="geometry" />
        </mxCell>
        <mxCell id="shK0o6eYTKU5Cj1UoSUi-21" value="PATÓGENO" style="rounded=1;whiteSpace=wrap;html=1;fillColor=#fa6800;strokeColor=#C73500;fontColor=#000000;" vertex="1" parent="1">
          <mxGeometry x="978" y="243" width="117" height="39" as="geometry" />
        </mxCell>
        <mxCell id="shK0o6eYTKU5Cj1UoSUi-22" value="" style="shape=image;verticalLabelPosition=bottom;labelBackgroundColor=default;verticalAlign=top;aspect=fixed;imageAspect=0;image=data:image/jpeg,/9j/4AAQSkZJRgABAQAAAQABAAD/2wCEAAkGBwgHBgkIBwgKCgkLDRYPDQwMDRsUFRAWIB0iIiAdHx8kKDQsJCYxJx8fLT0tMTU3Ojo6Iys/RD84QzQ5OjcBCgoKDQwNGg8PGjclHyU3Nzc3Nzc3Nzc3Nzc3Nzc3Nzc3Nzc3Nzc3Nzc3Nzc3Nzc3Nzc3Nzc3Nzc3Nzc3Nzc3N//AABEIAKoA8AMBIgACEQEDEQH/xAAbAAACAwEBAQAAAAAAAAAAAAAEBQMGBwIBAP/EAD0QAAIBAwMCBAQDBgYBBAMAAAECAwAEEQUSITFBBhMiURQyYXFCgZEHFSNSobFicsHR4fAzJEOS8RYlNf/EABkBAAMBAQEAAAAAAAAAAAAAAAIDBAEABf/EACQRAAMAAgIBBAMBAQAAAAAAAAABAgMREiExBBMiQSMyUXEU/9oADAMBAAIRAxEAPwDGIT2eiRFuHp6VG1sf/aouyi3JyGH19qVVfYmq+wi1mtpoRbX2UKf+N8cY9jTKGOBZ9qSCWPZxInQGutAhsJLkLqibgvysvQ1cXTS1tvKhtURSOoFTZc6/Voky5EnopkcT3lrGq5IjbPA6VK4I0Kdm/nxVrsrW00zS7mWNRtKnlq58IaBba7pM6XTYDMSOaT7qXbF+7rt+CveENJWUfFy8evC1db28EVqYIODLhKKTwnLpunpFZyCREBJJ60ltA0985bJSAc57mmRlVt6+xGTJ7lbH1qVtrZIk6AYNVPxLoJvpBKvUHpVhaYQgCRmLnooHNExrtiMtztiXGTuPGKsmp/UCacvaM703wvO13HuU4BHOOozVk8RTeV5FnF0gT1+2T2p7o19p+ryXSaXIXNsBubGBz7VVteiaFm9X4yWJ96Mbzq6+Qma9G48qW65PemVneR3lqLWYspHyMew9qrMjevjgfSjbCYZwGIGR3rh9Y+tnuo6MVmDGM/l3FewaI0hjQIwzitE8P2tpqcKxTAbgvpYDJpHrHi2x0md7bS9PMlxGSjSXGNoPuB3rtgTkyV8ZCdP8O29nbG71FxDEvJd2xmhr7xfb2o8jQrcNjj4ibn8wP96pmoavfarN5t/ctKfwqThV+wFcwt2zS6oavT/d9jeTULy8mMl1O8rn8RPQfQdqJhHnRmN4xIjcEUshUscBuaYQ2lrIh82Vo2A+bO2pbf2FTUrSLsvkeG/DqwWz7vMyx+g9qpOsySXive2zgBOTmm4/9RYQwk+ag43FutUPXLmeC5ubK3LLAW+QHNKwxutsThjb7LFqmraVeaEjTy+ZchPSO4akXha11G9vzJpyFmA9R61W8sffNW/wR4hh0W3uBKSrPyuByeKqvG4h8SusbiHxHj6PqCXtut3ILeKY4kIOK+1Cw07R9QYvMsu0cL1yexNLJbrUfEV/BC0rxIWyMHoKfat4et9GtrS5uHa4Mhwyvzu+tTp8Gtskb10yt3ero75WaUD+9DPrUmxUDl8H8Qoq8tLG8uP4I8kD+YgChn8PsNxE8JXsA4zVkL7Gyo12gK41Wd8gEhT/AC0umneQ4ZiR7U2k0hEU77iMY/xV2mjRCMS+YGU9CDTRqqJAoGkUj+HuBPardarbx2Cp5ALOOeKrtlcWZZY8MjE96fXKi1tRcCcYxwCagy/wTlbfQo1WE6bdI1oxYsc7McV7P4hu3YJNEIiB9s0f4bvItW1B1uVXcnymn+r6Da6sVUARygcMPasq5muNo52p6pFE1DXL+eL4bzT5fcCnPhbW7yxURrIQh7Un1zT/AN1XBhL78d6DhuWUjbkU9xNR0hziajSRt/h7XGu9sEh3A9RU/iEW2lwolpCjSztgJ3z7msbttd1G0dTaSbW98VqvgKBbyI3mqTme8cYG/wDD9qivHWF8kQZcHtvsQazrA0EelVn1Fx8zdE/KgtL1K51XQL99QlMsiS8ZGMDb0HsKN8aeDZhfvcpMxjk7ntQ2j6d8Bo17HI2RI4O72wKqwZIS78jN41j68iz9nepjTvFwikP8G8UwuO27qP6/3q0+M7Jo3YR8KSSc1SFiS2u91nZTPKH3CaXgKfcAf61pesTRarpNrIrDz2iBljHZu9UzcsHM/mmjKLzcj8dOnJxUVtIUkGcmi9XhEcjs+7IPP/FKVm2ndzj+tGWT8pNN8F3irImHx7rVc/aFpwsvEkzxg+VcqJQfqetceG70rNGQ2CDyemfvVp/aFaDUNBs9SiGXgbbJ9EPf9cVjJYft5jNlWibWNi9cqvOamj4H1pVMvph29YRuiYeZ/NXMUnnXsRu5Vki3DcG9qFdh7UdpUttCpfyw8xPfoKRU6WxFzpbLn4z06x07RorrT9scbDhUPWl3hubw1aaXJJqISS4kGWLjJFE6bHJeXSPeSRi3A4WTkVx4r8OxRqs+xfIlYDfGOOakmkviyOWl8WBaRfeEdP0q7mmijeZ2bapGSR2pB4K03TtR12W8v9kVjGxcIxwKPbwfZ/FnY0ksSDLYPeirHw5FPdi3YERseI1OCacriU0mxyuFLSbHj3vh281cNYskZiXqpwGpVrvia11UG03EGD0qvvXvifwjpmmwLLYXHkXo6RKeD96qdxbCSPF1HsuB0kTjNZjxy+0zMWOXpgV8EL/ww31zQm36mi2Dr6JCJF7HuKiYAVdHg9CUtEOwe2aN0/UDakwyH+Cehx0oao3XnAIpmzqlUtMeXDxPMJILKQkck4xSnWtRmuWWIxlFUdKt2oapCZJFs9hX6Um03RX1W/3SDbGDliaix0l8qRJFJd0gPwvNJYXguzAzoOuBVh1PxxbKG+GiPmdOnSrE8Nha2DRxeXFAq8ucZasm1Ty5dQkNuNyluMVsKc1cqR0Kc17aJGmuNa1JQzfxJWwOa1zQP2ZadFZpJqMrSTuucDoKzbRfC+sSFLu3j2FTuUtxVj1jxp4hsoRZXCJE6jaXU84rM261GJm5uT+OJgPinT7XR9Ukgt3DqtNfAviSeO9WCKze4b2WqPJdyXU5kncu7HktWheB7WeBDdW8fC9WArM0pY9V5BzQpx6ryWzXNS+KgWK/gmswT1PIpQ2n2sdsWtbwzHqEZ8A1x4i1mHXrI6cZGt7iNs78cE/elEdvLJpy6fNIkV5ETtfOBKO3PvU+HHyXT0STHRzqEl/b8iO2RB3L5NXPQEiuND8txi4kQuB3Iqg2/h4W0putZvlSJefU2cj6UVo3ilZvGlm0KtHY7TbIrdSD3P1JxXo48fFdjLxcl19CrxXDsnfsAcVU3cCTAz+VaR4803bdk4Bi/wBazq5Xy2O0Ywe1OKvTVuRhpU5ilU7u+ea1XQmi1rRbnTZfmlhIHPX/AKaxiCRlYHBrQvA+pmKdMEZHBFcxfqo0uSKtLE9vO8Eww8bFW+44NdIKsn7RNOW01xbqFcRXqeYP83Qiq2rAdTgUmh8VylM8K571LbSssylVHHSoc5rpcqDigpdGtbQdLezXDJboeCeee9Wm01maa3azlZfho8BMjuKpUbGM7h196kS6dGXa3TtSLxchF4lRff8A8ktdPsJbRbcSTKm9pF+tVJL6803X0unkZY7lPQx52k0vMjMJn4y64NEXs3xtjFCx9aD0nuCK6cfFnTi4nt5LLNcO0sjO+fmNDSu+ME55719BKWjUv83Q15KwpySQ5Sl0BzkY4GD70K3WiZFJNRFDTV0NRzEodwG6E02/d9pbxbri4QseNm8cHHFLEUAgkZHce9HTJ8QssnkxzFY9myRenHUY+1Bb2wMj7Gdh4fjWPzYJA6dzQ994ljsi1tZxZcHBNSQ3sstv8Hbt5cC/+SU/6UFc2Fg4L2ZL7R6nPc1PKW92TSk38xLfX11ckmSRtp6LnivNECpqUEkqFo94zxRNnbrdXiwrz6sECrleW9hbpFa20YXaAZHI6U68ihaS8jryKFxSLpcOkdvFNCmIwgPHSsc8UanJqerTSPjAbaKvuseMrRdKNhYxNJMU25AzVD0bw/ealfKkiMgdskkUj008d1Yj0y47qwXTNMnv7qOOHA56mtm8M2t5o9sLcrHMCOQpqlSWEehSEFsBepq/eCJ7e4snv2lGAO56UHqLd/4B6jI7/wAItam0/b5Xw6wTD5gy9aq11JbTD4eZcxno2OlAeN9TkvtWmuLWUtb/ACjAqvRajcR8hty+xrcWFudphYvTtztMZ6voUaRefBN5n0znFV8eZC6yLlXQgg/anCat6Rvix9u9D3t1HMnpi2n3qnG7XTKI5L4tGi+JpItR0S01NDlZ4A2frjpWRX+8ynbxWo+D5RqfgeayfBks5GAHfa3qrP8AXLYQXDDBFVJifTvjbkSK5yBmnmgXxguEyfxDmkPHUUTZuQ4wa5leSU50zaNS01vFXhiFLdkF1byBlLdMdx+nP5UIvg/TYbYQyI8soHqlBPX6VN+zi+81vIYjEi4A/LrVO8Q+K7+LVLm3ExUQyNHgHGQDisaR5kLI6cS+iHUNDvLG9lhMEskan0yBDjH+9DtbMvzKy/cVEni6+Q+mc9c9aPh8aStxcIkoI5DKDmgePZZ+RLtAboFHXNDvgGnialot+P41qIWPV4mxj8qHvdHJh+K06dbq3B9XZkHuw9vtQ8WjZyL7FiN179sVICQxJyKsekaLpsMXxV9eQ49I8rzQN2T9f6fWohHp2qh1iieK43NDCysD50i+654BHfpmkPImZ7hX68IJ+1TPHtdlAYkHByMc1JHAT1FHsYu0DCEnrXjW59qaR2/0qYWmeSp+47V3I3ehRFZyMQVC/wDzAP8Aemt2v7s05HtkW5ubghfJwCQp/qDXjQ7GyAuB3PSuLuF5IB8KD5zcTMMKoGcA7uP6UDe2hdvehVGTIgSQ+VDn5V/FTu4ezSwi0+wjAnm4Zj2+tLLGO1hQvKfMZelcjfJcehyHJyWH4B7UFdsVXktFp4cstG8uXd5krD5j70v15HWJnCts74r65vjfzW0Qk2Qwj1SfzVa9L1bSL3TZ7YpwqlcnvSW6T3QndJ7rsz3w3L5t/mKEuEOT6a0pDAFhnWJY2PBAGKR+FzpWmabetcSCKadz5R7/AEoKPXxZ6Y6XILyNIdjZrMm8lPR2TeStIuknhzT7iKS51ZlEBGTuNUOG8j0vUZLfS591hK21ecgGvte1TUNV0VC07NGh6J7VVLKdYn8snCnp7A0zFhri9sZiw1xe2PZypuJY14cclPeobPRpL272QAbNrNlzhEAGfUfbt+dC3Yll2TocyLx9xR1k63saxuATJ6cMQNx9vYU1bS6GaanolVdDkljs0knLPuKuq5zxxx1H1pffae1uSCQOcAHP9Cev3oyOynhinhgWK2m+ISS3niJ3hvlwGHQe/OKN12ZLg28UTLcRw26IJlySe+D78k/rWp6fTCmmmtM7/Zzeiy117Sb0wXymJs9m7VF420uSC6fahPqxXWgadE7m4m/9txsGcc9at7XfxbGSUh3HdsE1XPgmyXxyckZjZeFrq6iNxMyWkA4Dyg5P5VzqHh+50oJcMUnt2OBLDyM+x9quHiu2u72GM2u7A61x4e0y8awuLa7jOJF2qMZ5ohn/AEVrk2F/s6ik+OjLAjnpjgCl/ibwdLfeIL66gkj8qacsPUOD7VbYI7fwvpkk8xxcMm2GPuaz6aMzzySzAF5CS33oKvQGHlVO10et4DuPljljZv8ACwpdfeENVttzGFmA/l70TJEO6j8xUttqd5ZkfD3MqKPw5yv6His9wp/Ivsq81vcWpVZkZSPcGrT4Cmle72OMxsuHz0IPXNGjX7O4Upq1ij56vFwf0oW61axt7aS30aKRGmGHlccgewouXRluqXFoIge2mQ24t4bmKIsFtpTgHJOCMc55onQrR9Me2/eUErS6e0m1XlwIkOCFAxnOTnmqxCsiHcu7GOTmj0muHblnJwR6jnjAGP6VJUtbX0d7dJaCblmlu3DAZLE+gk8UVBb9Kh0+25BIx706jgwlZ9aD8IEih3SKiL6moXxXqsmhulpaKNwALPjvT+AQ6dB8XPjc/piX29zXE0Fjq6s91GrBRnJFUY50tsnvJ8tfRXYLs6jpqXMqKsgYrkfi+tBTzsodEJ2N8wz83396b3e3aEhRUhThVHYUgvR6jxS6066KJW12CRMqRBMncO9TwzqsZIOEHzHuaUvNtTapyT1r7z2aJY+w/rRe2b7QyiupJmZl9MY4UU50uQQq8afhXJ+5pJZKEiBboOTUum3mx5y5+fpS7ne9AXGxnfndLBFn0qM/c0Fq8mXSIdFGakmmQ+XIW9WQKC1KUNckqcjFdil77MxS+XYZpWq/B7o5lDwOuCp7UpvjE07/AA4xGTlajd64OQMkce9PUJPZQoSexjp13geXL+powQLIdin04xj2HtSyG3V7QTI38QE8UxtCUWNuTuHFLpJMXUrex0vxLnesz5RAkZ3Zwuc4rpraMDIGGxjGangjnlnjt4UMjmPcyqOcn/7FNf3POIGluniiVR9yfpQJb8C3khCnT5UhlaKVWMR5JXtTq3msz6befc+M7dpLEfapE0jSYlV7m6ldxyQjbdp+9FQ6loVtJuSNVkI2ib8Q+x7U75pdEmWpp7QH5935cjw6dcGJCQ7yR7QMYOftzXKeI7m2Lw21vFHIPmcgswPtzRGvWkuq2+dH1DZIFz5TH58cjn/ioL22iuLOFXt5otTk5ljijCluOS3PQ46j/XhOS8k/sdHB+RPeyTXc3mXEhlJ75zihhB9KZQW5c4CcfSilszQ8i2dLwV2e268UuuISucCrdPaAZ4pXd2oAPFbyCRVJlYnAFcRAl+n600uYArZHGKlgsnL5nt5PKGNzgEhVJxn7UfNJBO+KJbe2HwIkxkMMZ+qgZ/79aPjsRDhSpJeDzMd8E8U3Gnafptsnxd4JLQYO7YR5hO4EAduo5/w19FLp99rEKWrxxWzxeW/mSZYKuOfoOAB9WNTu230Te7t9ENtDsIUrg4o3ZwPrXzbTczCNkkbf6ijZWMdgT78k4HvRMPr3BUOVPqZhxW8hitMS6/aXV55JibCKoT7Gp4bVrSyW1PLv6nOemMcU2e2DlYm5Eh2g/WlU11a294Irlp2miJLCNPSVHHPHf3pnv7XFCeKVAktuuMngYpRfWec4FM7G7S+WeW0YmOOTGx8Zxxhs9wOtTzwBhkepRwGHQ0CZRNJmXIKnUcV5DHv4GM+1PLDSBcRxsBjeeMnHbP8A37VZVJDqtSANOq221TyeKGD4xg/eirzT5IYt+G2k8HHHv/alpJHWunX0dOn2EtM3vx9a5aUmh9xrksR9qIPSJXc0bpkscjfDzepTyD1x9v717oei3OszhYnWGAcPNJwo/wCa0nw9puk6Wwt7axM12WwLiYq28/T2FDXgnz55joqFnojqJldhGMK0Y3cnccBl9xnBq5WnhyKxkRr61imC2oYKr7gJRk447dKk8RT6Ho72Zhto5zaEuPWSASckD7HoKrUPj/WYmn1AadDJGTsJCHy0A7Z96ibu/wBCP8mTuS0WkPw8EV6LsK7WYM6oMvGckuT+fAFVjWtfmR443je3jjUGKFuoHZm9yR+ma98BG/1rVbuSzkVC0f8AHLn04z0qwatrFhq0fwsdlJLeWTeU13Eq8AdgT06V004rTMccK01so8mqX6wGaXKL/jGN32FLf3pKJjuYgffpTHXYBIGVLG6aQ/jlctt/T/mkBtZVGJUZf8wxV2O+SKscw1stfh/W5WuAGY7eO/NaTBcQxNb6g1vI0s7CF5oo9zIACd3tjA9jWRaFbsJQcduK1mw+Li0BXtmAk8wAq34lIIIFDnlOHskzyla0DvBHcXLuJDKu4lcNx+nT+lFrEAOgr23iDgedDsfsy5wf+/WppE2LnrUCZVIvuIR7Ulvo8Z4p5PIaVXpDZ4piGFcmg8xyBkcfb+9E/HTabp0cNne7pGybqwlUp3zlCenH5V9cKrPtIBz/ADZP9iKcavZprkGmxw23l29tCsbTSKUDNjBAJyccdeaxvT7FZK0+yo2viqBFupbndIGciK2cbsoR3P0OP61PrmgReG9JstQuNR3ajeAN8Kg4VevXOeM1V/E0cKa5draBTDG+0GNdq5HBwOwzQsqXsxia5Mx9O1GkyeB7Z7VUsUpJocsU6TRqnh69RfDMcKSInnSmXZEU8wH39XTPTI5o+3e5BwI4oI1+X1eYT9/+n71WfDV4y6XNamUQNBBiBtu0M2em4gjNNLEO7qZLq5B7nKurfmo/0qNzpsnmdNjK5upEhm8tC5eMxvJz/DU9WHp57VnGp/8A68pNpWsXk93gx3CBCrIn39q067RPhcB3k8z0+WpxvHt0quXlhPIZjb28cSxx+uaIgNheSPqemD/tRYqUs2PjW2LPDV3DJMqaXZuunKQ1wbnDS7u4UgcrnHGKtE4MjFhJGUPyog4A+/Wkmi6VbWGycSSk3EQZJN2DC2f70xknfcfNjUOOCydDW0030MnutlTisrfIITac8EUwuLP46Bo94jJVQrBPUuOmDmhIGFM7SQAj2q7in5Japrs+TTridDDcXrS23lhMMuCSBxn86qmo6PdW0rAW7lR+Mfiq+wtzkUYoWQYIBH1rFGjo9RUvbMhdGRiGBB9iKm02yk1G/gs4fnmYKPp9a1KbQ7C6H8WBfuBQ2i+F7fTNcivonysathf8RGBRaKP+xcWFzyfuHTorCG2tjEFwT5mN3ueRihvCs1vBrttcvbSBRuw6qoVCVIycHn9KF8VLP5p85WxnjnA/WvvCd2UleMTi1hGEknwD5e7jgnqfap/Ub46RIlueQXJqemad4w2antexljYymSE7cnpjP964NtqmseCL628P6bbx6bJdMYBuPmyJu4AGP6k0D+0DRp9OkghkmkvSyZSU8nb9cUFoHjPWdBgjsbe3jnRAyxRbedx6fep5luVUeR0x8U58gPhD98aFr89oRJaNsxcq65IU9wPf2px4WtbuLUtWspkiazVt0xuOhA5D7e/vSma68SQ61c6nqayRXUkeZS68Bewx+XSrL4WF7e2Oo63duq3BTywjjaoTtx7UzK9pv+jMzTTf9Ib+3nuJilrcGeBT6WgUKjfWh20S4dArRMRnJG4n+teLcvbTbp9GjdFPW2keMj9OKt9hqrSQKbbYEx/mP2JNHjqJSEKMiXQr0fwzI0ilkCLxkt2q1SRZNvDEdqQKcHsxPzAj9P0oQTyyHLuTRUDHjmhy5uS0g4wvfKgzaFAJOB9aHv3jt7d5rhgkS8ljXlxE8+xo25Rvl96C8TWEmr6HLaKSrdQM9cVuPDNSnsVea1evoV22o2WpmRbG4Ejx9VIwSPpUFxGxPPSkXg7wzqVjrLXNzlIE3Bjn5vpVtuYwQTjisySp8Fcvb15EbO0TdTtHUCmOlamRtTULpljLhlCpkg/T2oK5TDH2oCVvVkjODSnPLo6o5EmreHob28g1GCBIbe4lAhjYYDkf156/WidU0db+O5kZY4JrCVkkR3xGhwDkN/KePzFTrdvPtd2J2Sb1HsQu0Y9sZapHdpZZVO8vLGm/J4ZlJAz78HFB8vArhX9JdM1CFtJjsLVDHKhDXQZRw+Og/wAP170ysraIEt5abu5ApJb2hjuYnTK8YU/T+Q/T2NWK1zsz3rWtDZlI6lC4PABI61BhPKEX4AAMfnXdw2KBM2O9cgyCe2SGFYx0GRj6Gkdy230g8DinNzNuB55pFd9Tj3o0jUV2B/rTO3fikkEm4JimMEwBAq8lySPLeXA4phBMQOBSWGb1LTKGYYFaTtDaJ92M1PEfWaXQz7etGo3f3rhbQTKsV0nlXUYkj756il194dWDbPZsJYUO7yj2Pv8AWmCMMdKMsZAZChPpI5oalUuwdtC63nurzR763urZQ0yHyDja2ei7j9euKTeDdCkg1KaeGe2lurSUrHFKfU+OCenAz0q1XgztCvxGSVpBDZtHqt3OjEM7BuPbkkVHkwuVqRuO2+hw17aao0txqLwwxx3XlyROQWIAyOB3z+tIdT1j95vNFHAtu0bFfLB4lTsaBjiZYYwo4MahsdyOQa7SEkg4wy9D7UmMaXkpx4f6F2dsykbSQP5T2+1Nre29RwOT1oeyUkAsMHv9Kd2yZxRt6KDiO1OOBRUNsaMijXHNEIgHQCgbMAniKYNCyyPn5jwabTJuGKCe29ddNNAuZfkWybnPqOaikiLLimj23GcUNINldyDlJeCvXlsSTSx7Rt3FWdo95PFcixDEHAouRoqsbJjzTiLTS2DimFjYDOMCnCWyWsQe4UiPu+On3oHYLYhGmkLkjgHNeiMoowODVmkjghCSPh7eUhQwPAJ9/pVVSWR7qQfxDGhQFNpyMMyk/blT9qzkZyQLeSUnuJtucGnWqosKMzdFBJquXROxt/Xv/hpkhrRG1xk9aX3c45JrieUpkg5ApddzZUSBsx9G+lMCE0L0dbtyKVRtR9rJgjJq1i7Q6jbgc0xtyCBSWN+M0xtpM4FaR0hxCoIz7UXEw2/Nil8D9j3FFIQABnmuFtB0ROODxRtqXEgYn09DS2KQBTzRqSjAGea4Bh8wCtlelCXNqZGEkbbXU/qPapBJuTHtUhO4bl6CufgDwIZbYRkoOinj7V1FDTS7tgxV1HXrX0FoWHAqC1xZ6mKk5Rxax7aa252ioUtSgzXm8oaUxjQ0R6kEuOKXxTZ71OHyaEDQdHJu4NTELQUJNTu+BzWeTCG4alVy3NGTTJ6i7ADHGaWzvuJ8s5NNWK/4DOWN62cBvVR0BBxmkTTlGw3BpjaSlsUNId5RZbUqAMKW+gr6/wBUezQOkclxbn0yRGI5Qe+VzQlvciFQ5P6DJqPW9SjeyYPZXE7lSFaGJ1dRj+bjH60vXYqiqeJ/GMGnW81vZXaXdtdKyMsSghPZh2+hH0zVQl1bXtLuba/nvJZbN08uK62goyHHUjnIx354qSW3gnDGDSpLprdxJNF6t3lnqevXrVV8R3VobtodHe4WwHIhlYnYe4qvFEvo3HKovba1d6xLAJ72CO35VJpSFDlecn35wK5e8iuyyWyNJBEdqsPlYj8RPQ1V9L8OXUsVu5KNDcjMZ/xe2P8AarFNBdna1xEjOqgKIyEVT9sk9qFzMvSZq1L4pgV6jgs8L8kco3f/AGpPfOyQySLDJumUrIh657fcUzvop5eZJfL2jjBOB/WkOoCS3WOb4lpiGwpzkfamwuxmu0Bxmi4Xxigo6Ji6iqzWNIZMAZpjEfSD7UpXotNI/k/KhRJkQyhfKqQTmj4mzgZyaV23yLTG3+atJ2GRjIOTRsIXK8UElFw1wDC0Pqx2om3ZQjJ2oSP5xUi/Ma4Wwu2k3MUYZHamVsiAdBSyx/8AOftR6dDUXqemWemba0EShNvalV1gdKKlJx1pdP1NTorPIpcHk0xgcMBSKU8H7U1s/lWuZzGiuqDLHApNrGspAH2yDjgYoy/J+Hb/AC1nmrE+XLyfmNV4Ma48iPLTdcQXV/FMrSbUbj719pniKQSgvIWU+/aqrdfOa6svnH3qrRR7M8dmqGVb+wFwmN0Z5+oqWxlIUZNAeHv/AOXN/lqWDrUmZLYPp22mixxXKou9mHpFAXOsarJIv7vgESdPMnY4/wDiDzXMfQV9ITtLd89amS7GudlM1dNQ06YC3u5UknZpTLsyGC9d0YyMZPBPtVOm0m7vZ2nQxSPKzMQDjpjP261qOiHdqupbucx7TnuAoIH680s0iCJdPhZYkBZVLEKOTluadOTj4AWT2/BXdE0W+jgW5wCI8nYXwAQen0px/wCmZXaKDy+7gscg/rzRMnpNyo4UXgwB29FLdQJEyYJGVIP60KfN7ZuN8nyYHfeV6scHHUk0iuoodjGRpGGMIM49XvimF78xpbJzMuf5aogoS+z/2Q==;clipPath=inset(0% 11.25% 4.71% 3.75% round 50%);" vertex="1" parent="1">
          <mxGeometry x="1005" y="295" width="54.61" height="43.37" as="geometry" />
        </mxCell>
        <mxCell id="shK0o6eYTKU5Cj1UoSUi-26" value="" style="shape=image;verticalLabelPosition=bottom;labelBackgroundColor=default;verticalAlign=top;aspect=fixed;imageAspect=0;image=data:image/jpeg,/9j/4AAQSkZJRgABAQAAAQABAAD/2wCEAAoHCBYVEhYVFhUYGBgaGRocHBkYGBoYGBwYGBgdGRgZGRgcIS4lHB4rHxgYJjgmKzAxNTU1GiU7QDs0Py40NTEBDAwMEA8QHxISHjQsJSs3ND0xNDQ2ND00NDQ0NjQ0NDE0NDQ0NjQ0NDQ0NDQ0NDQ0NDQ0NDQ0NDQ0NDQ0NDQ0NP/AABEIANoAuQMBIgACEQEDEQH/xAAcAAEAAQUBAQAAAAAAAAAAAAAABgEDBAUHAgj/xABAEAACAQICBwQHBgQGAwEAAAABAgADEQQhBQYSMUFRcSJhgZEHEzJSobHBQmJyktLwFoLC4RQjJaKy0TOT8RX/xAAaAQEAAwEBAQAAAAAAAAAAAAAAAgMEBQEG/8QAKhEAAgIBAwMDBAIDAAAAAAAAAAECAxEEEiEFMUEiMnEjUWGBE7EUJJH/2gAMAwEAAhEDEQA/AOzREQBERAEREAREpeAViUvPLOBvgHqJp8brNhKX/kxFMHkG2j5LczXNr/gAbevP/rqfpnmUe7X9iUxNFgtb8FVNkxFO/JiU/wCYE3NOsrKGVgQdxBBB6GMoNNdy7EpeLz08KxEQBERAEREAREQCkREAREQBERAKGCYJnP8AXzXJqJOHw7AVMi75dgEeyCci+YPdeeN4RKMXJ4RttaNc6OEug/zKvuKcl73b7I7pyzTmtWJxeVR7JfJEuqePFvG80ruWJZiSWNySbkk7yeed5SVSk2aY1xiUAlfKIkSwWmdozS9fDvtUajKeIBOy3413NMGID5Ou6sekOlX2adcClUNgGv8A5bHdv+yb8D5ydA3nzORJ7qJri1JxQxDk02ICu5J2DawFyfZOQtwlkZfczzqxyjrsSgaVlhQIiIAiIgCIiAIiIAiIgCIlDAI9rlp8YPDF97vdaYAv2iN57hv8pwqo5ZizEsWJJJzJJNyT4k/sSVekXTf+IxhRTdKN1W3F79tvzDZ/kkTlMpZZqqjhARESJaIlb7uvnzlaaFjYDOBg8xMtMJzM8vhDwN4JbWY0HdPToRvE8AwRwdd9G2snrqf+GqsTVpjsk72QZDPiRkJPBPnnV3Gmhi6NRSRsut/wE7LD8pM+hVl0XwZbY7XweoiJIqEREAREQBERAEREApI7rxpk4XBu6sA7dlLi/bbK9u4XPhJEROS+ljSO3iKdAHJE2mHJ3OQP8oH5pGTwiUFulggN+++/M7yef18YiD+//kpNoI8p6p02ZgqglibADeTw/fdMnSVMI4pi/YCq3e9rv1IYleiiTbUbVxlY1qqgNYbCG20o4sR9knKeOXALFDVpaGErVXG1VWk+Z9lCVOQHE2tnIRRfYN+E7VpyiXwtZAMzTcAd5U5TiIkIvOT3JlPijfIC3fvnqnisxcZGU0fgWrMyINpwjMqje2yQSo77fWeqOGL4d3UXNJgzW37DDZJt91lB6OeUs4PcsyCARzng0lOVhLGHxGVm3cDPb4lRzPhYQSyjHxNLZOW7hPoPQOL9dhaNU73pox6lRtfG8+fa1cMALfGdt9Htba0bQ5gMD1DtJw7mW9cEmiIlpmEREAREQBERAEREAoZwPXWtt6QxJvftlfyAJ/TO643ECnTeo25FZj0UXPynzpjMQalR6je07M56sxY/OQm/BdSuWyzN7qTo31+LBI7FPtm+4tuQHxuf5Zov35Tp2qmiP9NGwzI9S77asVN7kLc8rDkehlEmaUa3Q+pwrVKtXE7VmqOyIrFW2S5IZiM7cPCburqLgz7COje+lR9od92JvIlozTmKwdR1xFOrVpFyS5Vwym9iys6gEWAyIA5Wk70frDhqqbaV0I3kOwRh1VsxINMGBS1fxSZJpBynu1aa1Dbj2mPK43TmelcE1GvUot9hsjzQnsnytOwaP01RruyU6iO65kIQezuyNs8+XOa3W3VhcWodTs1UBAbgw37LdxnkZYfIwQDVLSFOhig9VthdhhtWJGdssgZtsHisMukKypWQ0cRTcE3squ2RDXtv/rl/0eYFlxOIFVNlkQIVbm7cO6y3vJZpTVyhVKE0kurqxsi9obmVrW4EyTkkz049UoslR6bEbSEjIixHAgjflKSZ64amJQpnEYYONn20J2hsbyVJzFt/GQtTeTTT7HhWdj9FNS+jyPdquPMK31nG7zrPoirXw1dPdq3/ADKB/TLI9yu7mJ0GIiWmQREQBERAEREAREQCNa/4kpo6uQbFgEH87BT8CZwsGdo9J4P/AOa5H2Xpk9NsLf4icVU3zlc+5poxg9XnX9WKn+nYdgM/Vj5mcec2B6fOdZ9HuI29HUh7hdCO9XJHwYecpkuC5cMyvXNYXY2zBBzuN2YmGugcJUqXqYemzXyIXZ38wuR8Zun0eDezWvc26j+0uYTAWIZjnYSK5eEWylDa2XMPg0SyoiIBkAqhQBnll0+MzKmGYC53S2G7WU2GNH+U3STVSaeWYpWSUiG6dSvTf/EUUWqoAD0gNmowUmzI9yWI2j2SOJtMdNb8Ps9oYlD7j0X2vgCJK6dmyOVuM1OLDo5VjvzBubEfdkdnGfBoh6nt8kE0vrnUq1BTw9FkzG01VC7st87oASFt1PK0jOPwD0HKOqrcbahb7Oy3IsAciD5zraVyGBybiNqzEW5Ei4kM9JxBqYYrvKPf8JZSL88wZ7F+CUoOPchi7p0r0PYjtYlOYRh4FlPzE5vJj6LcRsaQ2OFSm6/ls4/4mWRfJVYvSztESglZcYxERAEREAREQBERAMLS2BXEUKlF/ZqKVPMXG8d4OfhPnjTWjKmErvQe91Ng1iFdd6svX4Xtwn0pMDSOiqOIXZrU0qDk6hrdCd0jKOScJ7WfNbuSLH9mSj0f6yrhqrUKlxTqstm4I5yBPcTYX6STaZ1Qwwqugp+rAN1KG3ZM1WB1YfD10r0KiM6G6rWTaQ9xINxzuMwQJB1tmhyysnV6WFyu24cOcs4irnYC30EpgNI+toi4AfLaUG4vx2ScyN++WKmbH98TITWyOF5IwzKXq8Hugtz9eec2+JW6Ed011BZssQ1kYnkflJVR9HPkhbL1fBpFa2f7seMzjSWsmyRmBkeR5iYWzu6W8/7zJwLhFLMbKq3JO6wlVT5cfBZZ2Ul3Na+imXNmFhncDK3G/Kco1q0yuKxJdAQiD1a3+0qsSWt3sx8BJFrlrJiMdtYbCUqgonJqtioYcQCcgs0WE1Lq7PaqIn3VBYDlci37Ms2YeUT3yl7jQmTb0W6IqPihibFaVMMAxGTsylbLzAub8rCU1f8ARtUrEPXqKtPa9lblmAOeeQW+7jOu4TDJTRaaKFRQAqgWAA5ScY+WVW2LG1F+IiWGcREQBERAEREAREQBERAI5rfSsiON4bZ8GH9pH1Nxf93m91uqginT5ksfAWHzPlI+lO245cp6Xw9pdRipBBseYkiXMA8wD8JHJv8ABNemh7vllKL1lJlse5lUWzl/SVT2V55kd0wnysRwMbZZixkVJKsqcW7D1NRpSp29i5sAMr5E8yOc295Ha77TseZkaY5lkukWx8Jcw9BndaakBmO88AMyfIGWmnrBV/VVUqMcge1+Egg/Amaytk5wmGWmgRRkB58z1mTLatexByIvPc8M2eeSsREAREQBERAEREAREQChMoTBMh+ldMVGd1VtlQSBsixNsiSZZXXKbwii++NMcyGtxvVpkH7J8M7/AFmqp1geOctVFuN567/OYbs6e0txzXd5TQ9LJduSunqdWEpZX9G18puNFNen0JHwB+siaYpeDW6/WbPR2lSB2SCL3IIzHDf4TNPTWSTSX/TXLqFEUnnOfsSOtfYa2+xlvBOWpqTvM1mP0yvq8gQzHZ8LE5eUx8BpmysmzcruvkLEfHOZ1prMOOOfsWvVVbf5MrBu8fUtTbwHmc5oLcp5x2knK2dwueQA5d2Z+cxqW24BtYEA3J5j/uaI6aVccyxz9iqnWV3NqOeDLZgN5EsENUYKq7RO4cz/ANTwKPM3PwnsLNMdK2stmOzqkU8RTfyT/R1IpSRGzZVAJ359ZlAyD4LS9SmR2tpbi4OeXG3hJtSYMARuIv5yi2qVbwyyjUxvTaWGXIiJUaBERAEREAREQBERALOIfZRjyUnyE54TfOdBxi3puOan5Tnibh0E26TycnqXeP7K3lZSW61TZA5llUdSR9LzajmGLjMMuQA7TMAAD4k25ATJqYcMQQSrDcymxtw6jrLOG7bs/DNU6A5nxMymcKCTuAJ8LT1y4GEjWV2f1gRipC9q4FiSb2BF9+cIp9YoDFdobJK2Ge9d4nnDIWIvvY3Py+U94kXLW55dxU5TC7vrZ8djvV6T/U2vu+TPo0FTNRmeJN2PUmesO2bod4zHRs7eByim+0obmL+Y3ect4kHJx9nf3qfb8prlFSWGcem50ybXlNF+UltaoLunFbeRF7y5JlHkSdaFe+Hpn7tvLKQWTjQC2w1PpfzJmPV+1fJ0une5/BsoiJgOwIiIAiIgCIiAIiIB5cZTnLpssV5EjyNp0czn2kRatU/E3/IzZo3y0czqMcpP5LAE1+LvUqKiNbZ7TMBcDkBfjvlzHVWyRPbbj7q8WPfL2GoBF2V6k8STvJm/sckuIgUADcAAOgExcfmFTgxz/CuZ+Nh4zMmB6zbqPb2VAUePab6CVWS2wbNGlgrLoxfbz+i/g07bHl8CZiOcz1v8Zn4Y2ps3Ekn6TBooWYDnOWfV4MrBAhdk9R0bP53l4jK3CKgs6DgQR4qbqPImVnUqluimfLayr+O9pdvH7NbSplK/aPZZNkHvU3Ck87cZspbxFAMuy2Q3gjeCNxHSWsHVbtI4sy/7lO5u/lLe5k7GTJ9ouns0aa8lX5SA2nR6YyEw6t8JHV6dHls9xETEdUREQBERAEREAREQChnO9Y8R6urVO87RCjmzbvrOiGc507R2sfUY+zTK7I++yKSfK016R+t/BzupL6a+TCwOF2BtMbu2bHruEypWUnQONjwWcZX2EZ+6w/Ed01ujsla+/InqQbyumMQC6pcWHaOfHgP3zjCMCGAIO7d1MhfH6LZq0Lf+VFfJsq5tTUc7fK8aPSwLc8h4Txj2zUch85mUksoHcPlOSfVGNpKrspcb9pbdRn9JdVgQCNxFxMHTdYAopPM/QfG8royuGS3uEDz9mdSiOKk/k+Y6ja5alrwkkZsxcdhywDIbOua9/NZlRLTEjzo+sKmww4sARyN8x5zpSzmOjqexikXg7KejqwDeBGfhOnLMGs9yOv01cM9RETGdMREQBERAEREAREQCkg2naWzian3ip/2AfSTmR/WHRpe1RR2hkQOI33l+nltnyY9dW51enuuSL2lDPWd7WN+XHymv0rVZSadiu7a4EggGw5XuJ01yzhS9KyaDEsXdmscySOnD4TN0QpG3/L84CzKwX2vD6z3VRxSy3p092pivky9Ie34CbFd0wtIpmG6TMTcOgnGPriPawKxqCwOSfUy3oeoUqWINmFj14GZWkmvUbusPgPqTMXjO5TX9NL8HxmruzfJ/lkggzBw2PFrPYH3uBH0M2NGmz+wpa/ui+/vkJLb3PIPf7TL0LhdvE0zwQsx6WIA87SdATUaB0caSEsO02/dkOAm4vOVfPfPg7+jqddfPd8srERKTWIiIAiIgCJWIBSJWIBQiLSsQCyaI32F+khWk9VcRVrPU2qQDMSLs17bgD2eQEnUpLK7ZVvMTPfpoXLbI57/BWI9+l+Zv0y7Q1PrqDdqWf3m/TJ9EsnqrLFtkyunQ00zU4LkiNXViowsWTzb9Mufw7V95PNv0yVxKMm/+RkAxWp1dnLBqVjzZu77stfwTiPfpfmb9M6FEvWutiuDmz6bRKTk13/Jzz+C8R79P8zfpk10ThWp0aaMQWVQpIvY2yvnaZwlZG3UTtXqLaNJXQ8wFolYlJqKRKxAKRKxAKRKxAP/Z;" vertex="1" parent="1">
          <mxGeometry x="1171" y="362" width="56.02" height="66" as="geometry" />
        </mxCell>
        <mxCell id="shK0o6eYTKU5Cj1UoSUi-27" value="" style="shape=image;verticalLabelPosition=bottom;labelBackgroundColor=default;verticalAlign=top;aspect=fixed;imageAspect=0;image=data:image/jpeg,/9j/4AAQSkZJRgABAQAAAQABAAD/2wCEAAkGBxISEhIRERASFRUVGBUVFRUSEBUYExUZFRUWFxYSGBUYHSggGBomGxYVIjEhJiktLi4uFx8zODMtNygtLisBCgoKDg0OGxAQGi0mHyMzLTAtNTIvLTAtLS0wKzc1LS0tLS0vLS0vLS0tLS0tLy0tLS0tLS0tLS0tLS0tLS0tLf/AABEIAJcBTgMBIgACEQEDEQH/xAAcAAEAAQUBAQAAAAAAAAAAAAAABQIDBAYHAQj/xABMEAABAwIDAwgFBgwCCwEAAAABAAIDBBESITEFBkEHEyJRYXGBkTJSobHBFEJygpLRI0NEU2Jjk6KywtLwFuEXJDNUZIOkw+Lj8RX/xAAaAQEAAwEBAQAAAAAAAAAAAAAAAQQFAgMG/8QAMBEAAgIBAwIDBgUFAAAAAAAAAAECEQMEEiExQRNRoRQiMnHR8CNhYpGxBSQzUoH/2gAMAwEAAhEDEQA/AO0oiL0AREQBERAEREAREQBERAEREAREQBERAEREAREQBERAEREAREQBERAEREAREQBERAEREAREQBERAEREAREQBERAEREAREQBERAEREAREQBERAEREAREQBFSXLy6mgV3VqpqWRsdJI9rGNBc5ziA1oGpJOiqXNuWraDmxU1OCbSufI/tEWHC09mJ9+9oUpWyUrMTezlSdiMez8OEazvZcuP6DHaAdbgb9XE67R8pO0mOu6dko9WWFlvNgafatSU5Q7pVcsYlbGA1wu3E9rXOB0IB4d9l29kVyesYN8JHVt0uUSnqy2KUcxMcg1zrxvPUx+Wf6Jseq63RfMW0NnSwOwzROYTpiGR7nDJ3gV2Pkr3nfVQugmcXSwYekTm+N1w0k8XAggn6J1JXLiqtHEo0b0i8BXq4OAiIgCIiAIiIAiIgCIiAIiIAiIgCIiAIiIAiIgCx5angPNXpDYE9ijlW1GVx4R64oJ8s9cb6r0PI0J81Sio2yxRm00t8jqFeUfC+xBUgtDBPdHnqitkjTCIi9zzCIqXOQHpKpXiKQERFIC5by3wm9HJw/DtPeeaI9zvJdSWo8ptEH0rJSLinmhldl8zFgk8MLrn6KlOmdR6nEayjkiA52N7MQxNxtIuOsX/vNdrob83HcWOBlx1HCLhRO9GyjVCmaGhzRM173XGUeF2Lvv0Rl2KdWfnzeJGPnyauHFskyxWUkcrDHKxr2nUOFx39h7Vc3I3bgpXzPiD7vDWnG69hcnCMvfcqtTmxm2jv1k/AfBRpnLdV8HGrrZdcmcqgVSivmWXEVLXKpQAiIgCIiAIiIAiIgCIiAIiIAiIgCIiAIipe8DMlG6BarpWsY5z3Na0WuXEADMDMlQT9vUo1qYfCRp9yyN5YTU08kDLAvw2c7QYXtdw7lpTdwpONQwdzHH4hVMjxTduRaxxkl0NndvPRj8oZ4Bx9wVp+99EPxxPYIpP6bKBG4B41Q/Yf+a9/wB/xX/T/APsXntwf7P7/AOHdS8i5tLfwWIp4iT60uQHaGA5+JC2/dnaZlpYZJbh5b0iRbFYkB+XWAD4rXdnblU8ZDpC6Ujg6wZ9ka9xNlsoCPNGHGNB493xEjz7etXQVFAXyCkY24QAvfBllkbtHhlxqHRlTiqF6vFaPEIiIAiIgCxdqxtdDKx7Q5rmOa5p0IcMJB81lrXm7ehq+ejpn4+ZeGSOHolwucLSfSGWunUSole10d463KzFC9Xjh4FXKaFzzhFr8LnXsHaslJt0jabSVsoAvkFs1PFha1vUP/qj9nbPLTieLW0F7+JspNXtNjcVbM7V5VJqMeiCIislMK40q2vQUBcRAi5AREQBERAEREAREQBERAEREAREQBYdVE4m9rjhZZZcoHfesfHQ1D47h2ENuNQHvaxxvwsHFcZMXiKmd45NS4LLtu0oyNVTi369nDhqrL95KMflUXg+/uXHF6vL2KPmzQo62/fChH5QPCOU+5qR730JyFQPGOQDzLVyRF17FDzYo7IN4qP8A3qH9o33KSoJGzMEkTg5huA4HI2JBt15gjwXCCu+bFhayngaz0RHHa3EYRn46+K59jgu7PLNNwXBlxRhvaetVXRFZjFRVIouTbthERSQERaByvbbkghhgicW8+X43NyOCMNuwHhcvF+wEcV3CDnLagT+1d9KCnJbJUsLhkWRgyOB6jgBDT32WpbS5W2DKmpXO/SmeGjvwMvfzC5SAvVejpoLryDY9u7/bQqGuaZhGwixZA3ACDqC7N+n6Sz+Rqsw1E8P5yMPHVeJ1reUh8lpcgyKkNyKzma6mfewL+bP/ADAWD2uB8F1OCSpA7zVRNILiQLC5J0sOtQW85Z/+bVSAg3he5rupwHQcOIcHWN9QR2LI3kkvAQTxbpxz0PhfyWsbbqSzZFXne7mNA6scsQPsJKzvDitQuOS5tl7M5X3qiP3W5VJ4mCKqj+UAaSB+GW3U7Kzz25Hruc1utDymbPktjfJETwlidl9aPEAO264PTalZCv8As8JKymfUEcgcA5pBaQCCDcEEXBB4iyqWj8km1ueo+Zcbup3YO3A67o/AdJo+gt4VGcdsmgERFwCphVatBXVDJCIigBERAEREAREQBERAEREAVLnL0lWiVKQPVG7yVbYaWeR7A9oYRgcLtcXdENPYSRdZFVU4chr7lyzYkzqnae0qepke8FsjWBzyQxglbYMBybYFhy4i6KSe78j0jjdxb6NmpherbancKYH8HNE5vW/E13kAQrdZuPOyMva9sjh+LY03I42J1PZZPGh5mjTNWRVOicDhLXB3qlpxd1tVs27O6kkr2yTsLIhnhcLOk6m4TmG9ZOvDW46lNRVsg1ci2o8+3MLqnJdtd00T6d5zgw4CeLHXAb9Ui3cR1LXOUDb9C0GIsE04yHNuw832OkH8GfcNVlclDJWCeWWLBiwMF/S6OIuuwjo6t1N8tFFvw98lXzPDLKM7hHlo6jzXanM9qw21JtfnGDvLQfvQYXXPOX10BOneoXPcpPh0zM5rtQsA1csW7Db0jw4DuVccjXZYcwOjd3sv7k5ILxa31vaFC7ybt0lcIxUF/wCDLi3A/CekACDlpkPJSHONHzOv5xXmNvqfvFSrTtA1iLk02Xe2CVx7Z5PhZcw5QtmU9LWvp6ZhaxjI7gvc44nNxk3cSdHNyXfKQguybbLW5K+e9+anndoVj/1zmfsrR/yK3ppSlN230BBrGe8tdibkWkOb3jMHzWSrFQ3Qq5NcA7Nt+tEkUDm6SASDuLQR/EtY3mnts6dnXLD7ST/IqdhV3O0tOD+KYYvsvdb93Ao7fKUiBrODpGk/Va/+pZCl/denobDhWi9fU1CE5rKVmnZxV5a8VwY5ufJPtPma4Rk9Gdroz1Ym9Nh9jh9ddvXzRsiVzJ4Hs9JssZbbiQ9pA819LFU9VH3kweovEVUHquM0VpVxqGCtERckhERAEREAREQBERAEREBRIVQqpDmqF2iCKnN3O7yuVVE/ybbMc2jZXvid24nFmfcXRnwXVZx0nd5XKuUynIDpB6Uc7bEagSxudf7TGKtpecri+9o0s3+ByXan+zOpIsfZ1UJYopRpIxjx9dod8VEb1b1QULOmccpF2RNPSP6Tj81vb5XVaOOUpbUuT1lOMY7m+CXr66OBjpZpGsY3Vzj7B1nsGZXOdo70Vm0pDTbOY5kej5CcLiDxc/8AFN7B0j7EoN36zar21Ne90UGrIwLEj9Bp9AH1zcnusR0TZ2z4qeMRQxtYwaBvvJ1J7TmrX4eD9UvRfVlb8TN+mPq/oa9utuRT0YEr7SzDPG4dFnXzbeH0jn3aKX3dH4HGdXue8+Jt8Fc27PhhcB6T+g0dZdl7rrKpIMDGM9UAeQzKrZMksj3Sdstwxxx46iqLkguFTSVGA34cfvCuALLZSsHC9tSSAB33yVnTP3WjO1kfeTRebZ4u2x7QP7z7wj2nWxz7OPH++1eYsssJA6iHW9psvOcPZ5BWCuV1Gt+sA/f7VaVNdI7mw4OIwmxsbZOGWnaPao4TvPz3/aKI4cqZO0RAxOOgH+ZXzJU1HOPfKdZHOefruLvivoXalW6PZ9XKfSbFNhJ1J5s4b+JXzqArmkXxM7XQ9VL23BCqRXAT+5UnQlb1OB+0Lfypvr6EX0ne5WdzjaSZvWGnyJ/qWRvmOhF9M+5Y7Vav78jXTvQ/fma6AvURbBkFUcjmkOaS1zSHNI1Babhw7QQF9JbGrefp4J/zscbzbgXNBI8yvmtdt5KNqCahbET0oHGM9eEkuYe6xw/UKraqNxTBuiLxYe1dqQ00ZmqJWxsHFx1PqtGrndguVRoGaq41zX/S7TufzcVHVSEuwswhmJ/VZl73PVqui7Plc+Nr3RmNzgCWOILmEi5aS0kEjsScXFcgyERF5khERAEREAREQBERAEREBak1VK9k1VK7QI+vFnXOlr+Wq5lygVLHxVBYcQcIjcDLEyRtznww3z7V1WthxNI/vtC4lvtUWgDGtw3eA7MkkNDja/eB5Lwx437Qq87NCE09LNvsq+hk0m/boKKnhiY10uAMbmXYbEtDi0cchZvFWtg7Ke2T5VVM56ZxxWlBcGng42NnO6uAytoFru6dLI6oa9gP4PpOIGlwQB3nPyK6Beb9Z7V7alrC3CHflvv8idDi8eKyZFwuEu3Hckv8SyjVkfk4fFX4d6PXi8Wu+BHxUNz0o4v8W/eFSao/Oaw97c/Ys+kanhRfYnWbQjnqGOc7CyMXaHkDE88erL4dq2FaDijOrXN+ibjyK2zd5gEDbOuCXEG1uNrW8Fy0eWaCSslIxmLdY96kJRjFn2IGfpZjhfLvWBA27mjrI96mPkud79fDr4Kzp2qZk6vqjEgp2s6TNdLk3t52Cvc8fWPf0cvBKlrY2niToDxPWvY4QQ1xfa4F29GxuOsi/t4L23xuirsaVlLKggkOJ8AMu1VEvvk/F2XsfJWNpVdNTtD6iZkbScAdI8AEkEht+JsHHwKjDvbsvL/Xof2n3BdqLfRehBicqNQWbLmFzd5jZnr0pWkj7IK4Kun8q+9NLU08MFNOJCJQ9+EOsGtY9ou4ixzcPJcwWjpYuMOQERFYBKbrutUfSjcPJzSs/fAdCL6Z/hKithOtUxduMebHfEBS29w6EX0z/CVmZY1q4mnid6Oa/P6Gtoi2Cm2YJdmSzMb06aou+2piljjbfwcwHsGJaTdGYa+tu5Mtt/JqvCWuc2cCMhpAs4G7Hm+tukPrLUVJbuURmqoYwSOkHFw1aGdMkdtm5dtlzkVwaJXU7LtfeYxMmkjAkbG5rZAHWMTegZH6ZlrXF1vatG3j3bmqtotfNJJJTloeXOdkwDIwMtpiIacuBJ1C3DCwOkc1uclsfqnCLA267WHcAsijoXSWwizRlf5oAysOvuXzkM+RP3evPr9DUlgxpe90+/5MvdvdmmprTR08bJXNtia3MNOeEdV+J1OV9AtkYMlYYNB4LJVzokjMk7bYREUEBERAEREAREQBERAEREBamC5dyybyGNjaCI2MrccxGvN3IbH9Yh1+xttHLqcoyXzvyn1GPadVncNMbB2YYmXH2i5WtNHdL5HnldRIzZ289bB/saydo9UyFzPsPu32K3tTbc1Q0NlwGzi7E1ga4kg3vbLjwCjUV5wi3dcldZJJNJ8MnN19rtpzIHF4D8ObR6uLW2fzlvFMXyNbIwuc1wuDc5g965lTjUrYt2a9weISbtd6Nz6Ltbdx96o6zS7k8kevc2P6dqnFLHKq7fubhaYfnPaV4amQel+80fEIKeUaB3g77iveclbrj8QT71kG5w/Io55p9KMd7SR7Fuex2gQx2va1xfXMk/FaZ8pv6TGnuFj5hbvs+3NR20wNt9kLmR45+iMqL0m9496lcR6/aolpsQVXLOXa6dQXpiyqCZm5sTm0eTSYnE37u7gvIm3IA61dpqfFmdPes1kYGgUwwyn7zIyZowW1Gh8s0ZNHCRo2obfsvFKL+dh4rj679v7s41FBUMaLua3nGgakxEPsO0gEeK4Ct3TO4UZ5XAQHNLvRuMVtbXzHkqXuuSesk5aZrxFYAREQEhu9TmSqgY3UuNvBrj8FNb2QnmWPtkJMPiWONvYobd3aDaepine1zgzEcLbXN2OaNe1wUxvXvRHVxNijgdHaXnSXOBucLmnIcel7FXnh3ZYz8ixDPtxSx+Zqy6JyNSgy1cDgCJI2OLSLghjnNcCDrlIFztbdyVVODaMY/OMlj/d5z/tr0zK4Mrk9vRyXuu6SgcCDnzEjrEdkbzkR2Ot3rWt3i7Z1WH1sMsQwPaMUZzJt6J0dpqDZd3Vito45mOilY17HatcLg/ce1VI6hpVLkk5VV7+wX/A08rzewD3NaDfqDcRPcujbsQTNhxVDQ2SR3OGNuYiu1rWx34kBoJ7SVA7A5PIKWqdUYy9rbGCN4zjcdXOd88j5p4cbkArdQLrzmsUeMao7lklL4mVxN4q6vAF6vBs4CIigBERAEREAREQBERAEREAsvmDeYl1VVP8AWnmJ8ZXIiuaPqzjIriRSIivFMyKfTxV5jiCCNQQR3jML1FJcx8RR0SjhdJGyRoye0OGeeY0V0tlbxcPrf5oi+anFRk0j6XHlckrPPlRPpBru9ov5hbdsKpD4W2FsPQI6raZ91kReUjrPFbSQV2CAu7kRdYoqUqZnZpuMbRINbYWC9RFoGYLL543t2V8lrJ4B6LXYmW9R4xsHgCB4Iis6Vvc0CIREV8gIiIAiIgCmNzqjm66kd+ujb+0OA+xyIol0YPoayIiyLJCvRtRFDYK0RFyAiIgCIiAIiID/2Q==;clipPath=inset(1.47% 16.67% 25% 13% round 50%);" vertex="1" parent="1">
          <mxGeometry x="1297" y="248.28" width="92" height="43.6" as="geometry" />
        </mxCell>
        <mxCell id="shK0o6eYTKU5Cj1UoSUi-28" value="" style="shape=image;verticalLabelPosition=bottom;labelBackgroundColor=default;verticalAlign=top;aspect=fixed;imageAspect=0;image=data:image/jpeg,/9j/4AAQSkZJRgABAQAAAQABAAD/2wCEAAkGBxISEhUSEhIWFRUVFhgaFxYXGBgdGBUYGBgXGh8XFxgYHighGBolGxgXITEhJiorLi4uGB8zODUtNygtLisBCgoKDg0OGxAQGy0lICY1Ly4wLS0tLS0tNy8vLS0tLy0tLS0tLy0tLS8tLS8tLS0tLS0tLS0tLS8tLS0tLS0tLf/AABEIALMBGgMBIgACEQEDEQH/xAAcAAABBQEBAQAAAAAAAAAAAAAGAAEDBAUCBwj/xABDEAACAQMCBAQDBQUFCAIDAQABAhEAAxIEIQUiMUEGE1FhMnGBFEJSkaEHFSOxwTNictHwFiRDU4KS4fFjsjRUohf/xAAaAQADAQEBAQAAAAAAAAAAAAAAAQMCBAUG/8QAPREAAQIEAwUGBAQFAwUAAAAAAQIRAAMhMRJBUQRhcYHwBSKRobHBEzLR4RRCUvEjM3KCkhVisiQ0otLi/9oADAMBAAIRAxEAPwAsCU4SpwlOEpPA0Q4UsKnCV3hQ8DRWwroJU+FIW6IbRDhT4VNhXWFJ4GiDClhU4SuglDwNEOFLCp8KfCh4GiDCnwqfCnwoeBor4U+FT4U+FDwNEASlhU+NPjSJgaIMKfCpsafGlGohwpYVLjT40oIgwpYVYxp8KIIr4V1hU2FLGiHEWFLGpsaWNJ4IjC0+Nd404FDwRwFp8a7xroLSeCIsafGpcacLShxFjT41NjSxogjLC04WpMafGqPCiLGu8K7C13jSeCIsafGpMacLQ8ER40+NSBafGh4IiCU+NTY0+NDwRCFpY1PjSxoeCIsKeKlxpY0PBEUUoqXGkVoeCIopoqHifEbWnTO84ReknufQDqaEOIftJ0aTgr3CPko/Mmf0oqbQi0GtRm6oYIWGTAkLO5CxJA9BI/MV5zof2orcchkFhRzcwLlwOqCDAY+tPpfHtt7zalk2W2LQEbjJyxPxbTAH0oNI0EvaPSgK6C0G6fx7p2GZdVCkBrZVvMYHoybxA7/KifRcXsXba3EuqUaYPyMER1BBHSk8PCYu40+FcW9QjEAHr02MH5EirAFJ4zEWFLCpcafGh4IhwpsKnxp8KUNor4V2EqXCnxohtEYSkEqYLSxpQAREEp8KmC04WiHEQSnwqbGljRA0ZMUoqTGnAp4oMMRxTxUkV1FJ4MMRRT41JFPFDwsMRha6xruKeKWKDDHAWniu4pwKeKDDEYWniu4p4pPDwxzFNFSRTxRigwxHjVLjWpuWbFy7atG9cRSVtDq59B/rtWjFQa28bdq5cAkojMAe5UEgfnQFQYY8v1fBf3pqLl6+j2cbaILTb4tjJA3gcx/Ss/iXhO1a4Rc1RdmdGKegJW/5fSfQe9HfCtM7X4BGWas3XHl5z09wB9aHfEmpjgOOP9pfWdz9687T+a/UGrAkMIyUipilpfDLnVHSKy5i2jTvAEHcj6ipbHg9k1jaXNS5th2eDid/02MVr8D1TrqDcBhjaGTt3xboSe29dDijXeNJEKHsGQpkHEFh+eIqZUogiOhUoIY5WN7kb4k4B4W093UX7blv4TqAARBBHckSa1vBNgW7Ny0Olu/cWPQTUvB7Pl8S1Howtt9CAJ/OKr8LzXV6y2HCr9pHRQWHmKWG5MRMdu9JRPXCJJF+s4y+O3Xt8b0W5wu2bikSYlZ3+e9HKiqF7glt7tu9cLO9qfLJIGBMTAUD07zWlFYxRpoaKeK7ApRRihNDRTY1JFKKeKBojxp8akxpY0sUDRwFrsLTxXQFDwNHIWkFrunpvCjnGnxp6eh4IyQtOFqwLVOLVZrFGiDGljVnyqfyqVYKRWxpwtWPKrry6KwUitjT41P5ddeXRWCkV8a6ipvLp8KcKkQ402NT4U/l0QOIgxp8an8ul5dDQsQinfYKrMeigkx6ATtQT4o8cW7IFs2xDiWD3baPj2IDGCCRHWjrX2/4VyfwH+VfNXje59q4jdHRUIQeyoOv1JP50IBKwDa8JSg1IOuE/tJt2S7vaPMGjEqwJPoymOoAoR4h4uF7S27BkC1jiBMMQ0ktlG4k79qwtXoDbUC2xxP6GoNGqm3ctuAbk8hB395X5d66SnOMYgzJoaweavxkirjhdTzFIGw3nv8ArVLhXFrVnW2r91jgVZWJVjuVxAxAJjoNqBvth5SZYr6n0jatC9xHe0SiHAh+ZvT7p2+VChpGgpKu8slxa7NR6eMe5L4nsC79o822JthCH8xenQyV9qr6DjyvqdTeN7TKLvklP4s81vEE/DtsO9AXGL4e0IImASAD3WeveouGryj/AF2qJ+VzFVgJUyRHtPhO5dbS22vXBddsiXBUg8xiCu0Vs1geACDoUH4XcfrP9aIMakQxhYnhCnpwtd40QnjgClXeNPFDQnjmlTxSinCeGinrqlRChUqVKacEKlSmmmiCKrXSASYgAn8q6tXiQDtuAfzrJ1OkfUWntXlXBxBAEH5gg7Gs9fCtnInyLUFVEeX6FpJ39x+VAnJUAQk+H3jQCfzGvXX1grz+VOH+VDSeENKGLeQhkAQVOO3os7H3+VdXfCGlZSpsWx/hWCPkZ2rXxP8AafL6wMj9R8PvG0mvBJCqWg7xH9TXZ1J/5TH6p/nWA3hS0RiwRrciEKAxH3Q07J7D842qW34T0gJixbORBgjYEfhHal8TcYf8PU+H/wBRtrfb8H5uv9JqhY4led7qC3bV7RHKbhllYSrghdgRI6dVIqG54Q0bgE6e1sZ2WJPvvuPapLXhfSAYfZrOJMwEHUe9N9AfL6wx8Ji/p94uJqmJCkpbc9FZWM/4TkA30qyLL93H0T/NjWQvg3RgY/Z7bD+8CT8yZqE+DNOrF0tqZEFGyxHupBlT85+la5Rn+H+o/wCI+sbOrtutt2FxpCsQYXqAT6U74rs1xpPQSJPyAEn6CsJ/CVtxHlJbEjcMSdjOwEdff9at2vCelBkWhMQWyfIgepy3pYv9sMiW3zHwH/tE+osMxSGuorOATk2bDFjAH3Rt16+w61ncZ0KLf0qspuI9xskdmYgC2RkciZEkT6GKtp4V06gDBmjuXefnM1V1fgnTsSym4jkCCLjEKR6STt6j3NIknKGlUtJ+Y55a/wB0aV/w5poJSxbDgHEgRDdj7b14F4y4DqdPqb13UJibxyQ7QVGxAgncbV7bpfD6Azc88tAGIe5h33BVtzv1MdBtQR+1Phi2/KgMAQ/I1xmMj73MTA3AgelAbE4DdcImS4qX4/vADreEeVpUJkseY79J3H6UK6vStJcKYA6/3thG35/Sja6p+ylWG4kx6CTFCOp0yMAC27MvQHYCZX0nf9K6sQakc+EvWKnD+HNe6GAOp9Sd4ras+HmCu9oy1tS7BgOUW+Yt79Ix71ocF4ULlgPkVEEqB1JJkn5AR+dTae4Vuqw2kBo6GR6+omsKUWpG0pGdoj1PELZQMXQl8NgZIgbyPp+tFei8S6V79l7dgMlpWD21trzZAgEgbHf1rzri7OlxgCCCTG3XvufX3qLh1ws8lSPXc9PpSwgiKKmup2j3jhXilbOl1Oq8nG354FtDyblFGOykDcEk1maL9pV43F82zbNtj9wtI3/E235xQPxjTv5CkMowuADoFK4uQXk4zIO+1VtHqVYAJMjFjifvEbhBvt7VHDrFXSAwvH0JouJ2rphMjyhtlJABMDcesH8quG4o6mPmCP5ihHwTbGo0+Qu3VZQELIcV2G0DoxUevrW3e4NcMhdReX0IcmPeDUQtTVSeXVoakyXopo1BeQkKHWT0EiT8hUmFDl3w9eYydVckfC0gsPTc7bewE96lbhF+cftl4GOsr19Yx/Ssme10K8B9YyZaclxusI67UsKHr3CNSeU6u7jHXkmZBBjGrja28phioHr/AKNRmbdLljEtKgP6fpCMr9KgY1cKRSsscU/+Rf0+VL95n/mJ1j/xXN/rWx6n/EwvhL3RpYUsazP3g5mHUxXJ1138SUHtrYxQlX+JjXwl7vGNXGmxrM+33fxIf9fOuf3hd/En+vrWT23sQ/Mf8TB8JW6JtLxG2R8Y9Tv29T6VM/E7C9bqD6ivKE41avqou2tjEm2SGIkbcvxAnsetRpw3T3r2du9dtDaLbQ2PWSCd426frVx2ipDhSGbO/o/prHMVP8t/D1EewDXWyPiX86hPFbInmBjYwelebX9BqdNzFkv2YU5nKUJ9Un4QOp3+lV7HELeQItWycseScTO8ADYN3JjvFZPar/IlxqD5VZm313RtjmI9A1PivSp8TH6CZ+lPY8UaRlkXAN+/WgDjXBtI1vJLpS5O4yYn5csyRB+c9aqDwc7KDa1IJB5gwIIEbkMep37x0NZT2ilQCsbPkpPuHHDXTQIU7ADxj05fE+lEy8AexP8AKp9P4h0riRdUD32/nXk1vw/qrNwebdREM8wyYdNssRt+dMmk1LQSbTrMEh1JIE9A4A6itjb1OMK0kc/Xl9YwcYunz6MetnxFpokXVPyrt+N2R9//ACrzbWam5YVRcRCh3QhA4BgDdug3gfWuP3zYeJgSDOFyFYj1EbHp0gVFPae0K72AFJs33LfSKENfr1j0u9xywilmuAKOp/8AVVbfivSspYXYA7kEd422339KB1XSSNiZEsjAHInpzA7ER+lK1p9OUEG3kN4fKCJ6EgkdJ2j0rKu1ZmXmPK/WTw8PDxg6seKNK+4vDb1BB/Ijf6VMPEOnicyd4jF5n/DE0Avwew9sEWQimCTbfKCT6ET/AO6ccHtDJi2pCwQJEgRtIKySdj1qX+sq1D7058lEQBBNx5/aPQjxqz2uD5d/yNCn7QHS/aSCDi/p1JHSe2wodu8ByBuW9WQgkfxF5sgBsokAdzFX14Pc8shLiswPS6m+0SZyJkxtVFdsMxJTk4qPMw0pP6fMQM8R0AazggDMdoBEx/6FccD8PWw6efYi0k5KQSWYncBj/hG/uR0NFeh4VNuWsKLg6bALl2BxOXtMfSnD3o8o6YqQdmDjrvGJPaJE7dqjO7WmLcS2Dbx5OeVqRZBSKlN+tIyeKWLFrzBaQIhkogAgZAcgA2UAwflNBPEyAyT1xE+qk7716VcAvNLaMtjAk/e9DJ3n5T9as6FLJQlLBDIxO6mV7smRmNj/AOqsjthSUAqQSRcuObs7VzIiagFKIFBlf6R5H+4mvMCL1nEsZQ3IdfcSuJ/OjJ+HaBtNbt5JYe1Ia4CGLiSSG65OSeoG3bat9b2nZSHFpyxxAMSF9DCz179oFWfsFqzaGKyVJwNvmj/o7jcTXDO7UnvcitGA30chvI6uYokpawMeeeLNPpTasrpLzXMSTdydizEfC5B2XYtsB3qt+57qgQr3Mo/s0bb5eu0V6FrksAhiuD4iS1hZeIlZYHc/PtUwuWiWV73MW/hyuEiPhlfiXfrV0dqTUpDAnec/BIFMyOYjLps3n9zeLngHWnT2Ct1bhJP/ACyEAA6jaSZMkn+lbzeMNOOsg7HoY394rAsICjBVbcdbbDrsdt+X5Vn29apuY2726iPLvZEA9djBg+5+dRR2ptRCik0GQALf+JMC0pJBOe+DKz4u0z/A0nfaDO30q1b4zbbdYPyINCd+wQCP7PIQAoytyVJgkAEyO9UbmdgFlCC0FXIKBA3gqT2g+/esntfallkrHAgbtwc7hzhfDSMoNB4itvPllWj+8AJ9Ky7/ABNrshlUDeYuKSI9R1P0rE/fFl1xUqbjj4WTYCO8ewFUtDqWdSraZNjIIjcqRkFiZOI70p20bZNSQs0tYD1Z+WhhApFoI2ZmAZSGjaGJBn5ge01JZLgwVkkEmIB6/dJgT86xL73HCstlxt8Q8v8AXbaP6Go9Dx+1ckBWckFp2MCYj6ZDp6V5v4dakUDtdqto5dvTRjlTEHggu3lUTvzHsrHr12jb5+9V7t8ZjdtxMBSBj2yYyCf9bVGt7zD5a+cFwJmCCIHwgmJPTY1xp+KB2Cc6mD/aKZ2AJCmDuNpB9qmmXhBF/pwI98nNqskRPb1Nsbh9j1b89yCP6VF9rtfjt/8AfS/eONwi4QUIAJIblcjpuoCgiqX7ybtdtR22T/KgyV/lfz9hCcQEeJ/Bt/Sxe0l17tvFmIAIK4gEmJ5lJB267d6GdDx8j4yYII5SIjrA9pNehaTxISMbbli8EsQB5TKFO46EQD06x0q1xrwhZ1enuC01rzZNxCqhWUnchiN2Db9u9fUS9rUhkbSh3/MzFhmrVr6sPzO55SEzflL84G+HeK3hQrqEBAImD8XQHeOn5GiR9XpNQrF7Zzboy4q4ZgFJDqASQI6mDXkGs0t2w5VwyODyjFhmQYlZ61Z0fFCp58oIJ26SY2I7Darz+yEK70s76cXuOEYStaLVg+1Hh7UAD7NfXUKrSEe2ysNgPjEh49IHSpdfptVpUh7bmZIe1NxWYFd3ESo+m/tQ7w/xE4XJHiDvjIGO+5HqDIog0PiC71uXIMgSd4Ag7xspPSBBrjmydoQKhKq6MeFGG/5TDE1Cj3gRFjReIXkFHVZiV2UuYIxgnlJPrVr99WbxwexDky5VsDI5W+DrCjp61xx1+H620DcfC5BxurysrbGOb4xsdjWFd4JcRg+k1XnW8OQNjmby7LbEAL/1GO9cyESiHUChVcjlSqgK7iRfkIq9aEEcj4PbrjBNotDa5ktag22JYKtyHXEz1EKVEg9aq63hd1GVLmjtXgSSr2kxMCIkiIJHQGaFg9wH/erVyyGM5spOHlOUJJPZmYCeksI2Nd/7ROMVDKxJUyVBWep5hO+8e1dB2OaFEpL+WWRSxocsTsN4bBmBIqCOH0NOtQWIL+st6Yw2lCNcAYD7hA3OLR+a7H1qvpNZp7mLYsFDENLc0EEnmPafSOtd8T8WLet+UUV7eHdgxBGxg/lJ/lXVi5p7gW02ltKxgCZOxMgKbZEAwepJ61n4bJClhQJuxeg3EueN9YSl1YHxHXKJdRYytObLvccbhSQJnrjECe//AExVTR8d1JxhdQTsIFtthEk9Nzt+k1Pr/DYMHSXUXlJxLymYaDDEypgn4vwj1rKfS8RVAygMceby3DMpUSRcAJBMdIkelZlJlKS2NNbY6EXcHR2fWznRKUpNcJ/t66FY3Let1Vy2HxdrXVuRSQZIMgc0iOnX5VPd8QeYiHyjC9DAOQaVGZ6BuU8p9BWHc4vf07F7nmJcuW1cFlK5dJCkdCB+U9qtX+NW8Q7qz2ntDIN94kmGMAQ8iRHYg0vwygxSgMTTDTKoagJycAZuzwfEFXLauX+sbGk4zbnIjyhImASZ2ABEjY9ZHoKg4jxxc4TVXFBjciQNpkb9ZOwNZHC9Bp9XCKj2Lip/DuI7EMQJyYMD1239JND963qLKnzbDoWZobAne2fhgepkz3A2rcrZZa1kP3tDhJrmB3iaDkwDCrvGtqe/2bpnj0TSalyEtWtSGUgmHWCWMcpI2EwY+VS2uMXGMmw1siQ38RVBYR27dRvt2Fee6PW6kW2uBb3lr8TC24UEkiTP3t+vYfOntcWW4s3oDdOZjzwZESYO8D60pvZvxCSSDk7V30BA03ht8MTymjN6QYXXKxcNm6nlnJnQKVZdwSzCcvmelTDjllLocpBOzriAXdhhkrHviBIHrWQPFMSqquDrjikQo3AyI3faegFV9Jx+xs123bd+5iDGyjcHcxAn9KirYpq+8pBb/addeb1qRS5rG/iJBYK8R1k0GN1raqzowW2VVsuYupuzDbsAR7Vk2GuX2I+1W0ZLo8s4AszbwTvyg9IrO0uqtX/NO5lCQrMAElyIWRvsAPbautZYt2uf7Q6q4GC/GxCyHBYAFlURE+vtUUycJUlR7+Tpc2fQ11oAzqGpZmOHy4t7jOlYrX14gLxtlcXXmJAADdYJO2RMmP1qbT6zXO5Q2SHjJskUQrdy3bcdI6eldaS+r2nIe7Pllc8zzBiYJAABWQfft3rX4nqUFpCtxgxxGDEZAMYBCgSTsYBP3hVZk4BYSqWnS1rcaMRTIMxEYCQ2Jzrfj08Z2te6zl/spAT+1VHYMct5Cj2G4iqFzxJ5TBkt3VLD+zckLuBiQepDDt02MUQ3m1CW+YC/ae5ixB6RPX7ywR77mqOq4tYfBnR88WV7K/hBHVu6gSAf71KUpKmSpGIWYKJ8iSbvcAClXcQ1UqCx4e7eVXrD2vE1tyFdJCkh0iQDBPV+hHWD6Cok4u5chNSsbDmgB9t7i/gGxEddvQ1Pe1OmdybiZOyBZPxeUQQQWT4WgxB3ONZnBfC1tbwDCebIWyxkqkETmBsdhHoetNEuQlBUoFNLUIOZLlvGlwHdmFKU4ALxr6bjWoGQItsYLl1MT8G07SwPX596m4fcVibbILb3mzGDqYmJnsoO2/eq9ngKXfON2wbDMYXcypIH9mPXaYj70VicS8M6i0FZL4dQkFySp+L7hMiBPcyN6ymXIU8vEEGl6Cz0LlNDwzZqmG6wHZx1zjctkgvanUF5cFhcIKb9mMDqAQJ3qW1xXyt7xv8AXnuPbUiY2grudu4mZisW3wrUeWhsakPcxm4GnaT91o55HQx2I9BT6fhurW5b8rUL5bvzP5jQhiSIP69eopzJEo4nWk3d6Gj2cFtzAvvvCC1XY9c6xrfbrSDZyEbd0KluhJ3LmRPYe1RfuvStvC77/Ae9canTa8ubk2LjqpOKmHMSJWAMtvz6UNf7Tf8AwL/2tVpGyzZrmUovnhIOrO+E5UNXrCVMSn5qaOD94o6bVI7FrMsqYjzCIxnaYG3YgdT+VbnAeL3LZcXRKPlNwmXB2AZoPSV6AV5xp9ddtKwtvAaJHYFTII9xJ/OtPhDm6cnYAQQZkt13xA9z1r29p2BK0kLt508M3bIaRylSkHEn7Z9a0vHqOm1tq7dBFprqsRlfAlLbSCGM9xsDHQ/U0K+KfA1uGuaV8SJHkuxLXrg3ItT6rmY6HHaq3A+PLpcbSM5/iEsyxvkoGID8pHfet5+Or5wAywOTN0nKNpK9DsT19YryUyto2TaMct8PNiBYH2GlQxLxdM6WpFTWj7njyu5Ze2xDBkYHmB2Mr2YVY0etIIyJMnf6V6fxnw9pdU9u+5Acw90WTtetQf4gyIKnpLChnjXgJ/tCJoj5lq4pZXcwEYdUZgOsQRXrSe1dmnBlEgsSXBADVIJ4BxqN9IzMkg0P361ipZ4oGxfCVnBVWBiB0gncNO5PvFbfCuMPbUEN0Z4AYSCN9+09I9YNA17RtauMjytxGxgCeYdp6EV0165b5MpAMkbfERB6enSPaqzdjTMAZm8aZexBzibFJdJr+0en8P8AEIdsbtwXBcP9ncSVZWPSBsvTvsNqtcd4HodSMg4t6hnDFkDcwUkFAogFdioMT0NebaXWcmAAkleXu7DtJP1q/b1il4dy1tQeZd9gJ5VnaenzNeers/AvFLURezV8KF2AINFb2oCfMQllJfqvW+zVgl4t4ZuCTo7lp1IYt5qwRg8qEOJyOJAJ9R77T6bgV+0i3h/EKISxTbA782OxuACNjB2MT0rB03FnBDgNsBtEYrluCfWP51s8E401p3ZbkJJODZFSs7Asd5kiPlUly9rQnDRTbqm4Zxq9zwNL6TtMsl1Ur1fnv03YyawvdiwzQ2GRVjzGCIAG8M3Toa71msvWzg02/LcM8bOIG4ifX0nqKJbXF7OByUDZSUW1ajIz0lIQb9epIqbiOl0V9wTdu23cLDKJJPNGUDcAGJ7x3ipr2lIUy0Gl86hs2qG0elg93gSoOks/vu+vMxR0PESssCFcq4UXOYdQeVR15GEz6dahPErdy1DJbW1YIDJgNhlJAnp02qQeGDygapbjKyi2WlMlBIZQdwIJUzvI2+eTx22bGFp1Nl3bJlEMjIJh5E+ZJJmekUS5UhczDLLmho+VmHzM1qUepe+lFTHTrQgUN2ZwPDctcX0dwvdWzDAwWtllxHYgbQ09P/NScT4c9m3c1Vm75ttkUsl0tkAYMgD7yr02BhjXn+mvNzhWGGXQiCxHc+8/pW5w/irgB3YllIITLFQVOKsY+IgFuvaqr2BcpRKCSLMS7j9NRTOzN4RBM7EO8OY4F6B38DuiVfGFxC9tsHTmHQnPOIkHYmDHSszjNjTXG/3VTaxCynMRO8nqTI+fpRHZ4pYZ1uvZVtyGYiVgOHVhl3ymO9WdT4f0txDc0/8ADd+UuHY43GOXMoMDbYx61WXOlyVvgKCdKg3+YMLCtrWigxKolT+o4eLcR4iFrhlg2ptagi8oY4kcr7nptK7R1nepOE8CuX7Qc3kRg0IjYyQTuxIOwj/PpRVxrw7atpasad0S4AccwuWoLn4WYSQoBgSKxtDwjXWbptXLAZvKueWQw8oMCFLAmASJiD3j0radtTMQShbEF+8ACEu1HADG9yQCQLEBfDmAgLAOrA3PXPm8daHQrbbC8Z5JQWSpAImWcsOZpjof8q2NMmnYG2EfMWyfM+GVhicCJgwfhPWKG+IaLV2rIW7p3Aa7iGyBIyGOLidgW3kx/Ks3hly4LjAI911gBJMjqp+HcQQBR+HM0EpW4rYgj18Q+81cxgTVJan23VD84INJpntpc09xLqXW8vywFbEZnEFo2BOzdem3WoPt621KMuWBUg5GX2nl32gydu1d2/E1+2PLZWN0QEdhDJMiGnqNpWek0+q4zYvAC7p7RcKqF8RlEGYI9DBoVKmY6po70PtTLI5uWMaM2WKOxb1y6yAiDQcfv2wXLMSDB/C3mLjLDsegmrmh8V+UQVFtoTEAIRAg/fHxde9bS6PT3NOVQ2bhFsW/OLY3gQsKk4/HED6d6Grfgp4YnVIis+C7FoMZAXSDyiVxLCQSAe8VzSpuxzysLGGoDGj30qM6UNY0Zc1LYFPv6ofMeMXrHioBTbtW1QuOdlUKczO4B2AUbR6DrUycVZrfl32FxAZDoYJJ2xltykjotYnFvC+osJ51srdtQMoVgyn++hJMEmJBNZtzilxwHNr+GsKBj/DQgeo6Hedz3qw2OTNAXL+Um5oQRYZEHdTmWibzR8/pSu7QeMeqaHUF9CuVwqdlLwc4EGTlHc9fTpVW8bVsg3NSnlOSjYgnIGSGI/EY3IG/Wa864nxO44AeSAoXEsZ+EGT3EiPyFd2uOMyILkMVK4qZ6rlBmZ+nSucdkrYsaEqJZnrapBtkWDE0iitpy0FzwzD+UFQ0TWgbth31KhuUKzq9tZMSv/EX5HaAeh27Gl1SqxYXmVbhzBBGQnIj1JI7ihq7xK6VyVyCxgkFZwBBCDuO/wCUVrWOOLKL59wgKQ7MCVaCuwQzuQSJ27b961N2ecMgqtbuwyoL3+UAkl2oYEFDPYAdUPQAgiPEbtsJd/hX7TPCuqlTal5xfeVxlQf1oa1Gq0RdidNZksZ3T1+VTWeOppUcoXMkjeCXEjvuBsa27fEEIB+yWtxO9tJ39ahKlmS5NjYk4SWqXFs+JqTUxQTCrOvBx4x4wGjp/nU1lmQ5psYIB+Y6x7VVB9qlRu019fheIxbtaoO6LOI2DOegPdo/10olXWbN5RxQ4rDMOaBtl799ojpQl9nEdf5VbQXLaCVbnPKWUw3vJ61yzNmSQB+2sSmIAScFDugn4XrXt5B3LbAADEqq+ksJg+g2o+8P8VN1/LYm3ce2HtqeYQPxg9z16/WvPuBeYIcwpZZEwzc3XFZ6gdtutH2g4i1u9MZW3OCswldsQJMSSTJgH27V8/2hKlrmEBINDWp0ytxzyDZ72RS0jvFg4Hr/AHcLV1inqfDE6t2uW0db1lg+wlGja4no/v19/Ub/AGjeE/s6jWWm/hsVQqZyRow27EHEfKaObPHbLPHmbmVQNEEmRnvJESKi4npRfCWdSjtZuBWIB2V0PcrB6g/OuTZdq2mRNT8UsGAIyIcWqRiAFGZqOakHpKZagcNd/wBY8MM/Pf8A106UkZwIU/nR54u8DGyc9Hbu3Vk+ZajJrQIBUrG7od99ztvQfruF3rKWnuWyi3gxtkxzBSAZHUbkdfWvrJG0ydoTiQp91jzBtY/tWJqSRQxcTijKlvMQrSZiYxaDiTsJIE1e1GuyK20dPhU7CATBYqfxQdpNVtZZA0tgmMsbyY95a6DMd9i35+1ZFjRuzKqTJJAEHl2kkg9BEmpJloUCWZiryJD+XiTEloQQOsvv5Qb6Ti/KUuOEcjEgCZ22BYbxBIABgGq2i1POpCPcCkHripK9vdQZB37Vgpet2VBy8y6eXb4EH9W+Wwq1odaCWBuqvlCLczz83Qep23nrXLO2VISQ1Dy3UYP58yxjJK1EFV7608W4Ug48N8Z8q6Fcq1pmnymIOx3LEnbqAI79e1EuqtaXVQZtklHtspBM2rjS9tSYI+HYjoa8rZP+Ij86kE2m2J6cyxtjMyO0VZHE5ayFaVEZkiMTPQA7cuxnvtXHtGxBTmVbOmYF6MXORBqcjGpE4oGGYOFdT7PZqesvFPA9+y7CzdS4pANtWYrdI6lcdwQBPNO8CsXUcK1dpVN3TvhCsxAmA8wWCklejdfSjDg/EWRULs5xcquZBUgGeVes953ij3TeJ7LIWVh0AYY9DB7jcmZ2HvS/H7VLOFaQWetbgkVrTEKC7HI2NcEpdSwO/qrZx4k3ElKqpGKoRCAjm6b79TE7+8VrcM4uplH5EZmkBVlWYEB57ECNu8Vr8T8JafU3LmoDvYkliy2y1oNE7HYjsST6mqmj8FtefLRXmx8xc21Cggk9SGAEnvjHfrXQqfs6pYKnDh6uwNDUsbmxN2qzxNICVAJZzYZ+AIpHHG9Y41Is22EAqiQYBnHoZ6En16Va4jxDVQFtu7eWd2OICN0Kpv0A/qe9YvHdTqNFqGsOy8pkMqgBg6gSpO8H07GazbXGiqhAFBDMeYTEzOx+ZqkvZyQhaQCmjZguDU23UD3JNmIpNSFPV3amdB991qwb6vxZftuLTqv8ULkREKcZgkjEzPTpUvh7jVsX7t1lVWvLvcKDYyRHLBad9u8UP6e3Yu4HzCck2tAcwA2LFiYABJI9hVBxaEsC+R/s1nlUglYYN02gg/4q5Pw8mZLMspYsAWDG9+ZA3d25rCCpgViBcCrOOszk9bOxj0XjvAdLetsrqTexK2rjPBLAE25ed1naDMbivOr3hnVqobysgoQllIbFsiCpg9upI2iDWv4a1t97lrzSxSCgLzuBu2PrsOnWKqHXXixUMRbJJxGQLrkCoIn5GPY1rZJU/ZwpCFAsxq5SBVwGZqjM1urWFMWmYkKKWdxvy8bxc0vhwQc9ZaDiIRQ+JAHxEmCTv6HvRBwDw1cuWxduFGFuSltWb+I6EkeYfu9jA9aGrOsVroTBmJ/Ug7bHYD2om4N4mAbyrds5GSQByrgvv0+GPTeubajtikq+GcnegwjkbEOCbhucKSqSFAqzpmXPP7vygf0Piq6LrPcyQ5B4ghmChiA0iTKkqK71PGdOGukWAg1FsB7KkYMTMs6gbNv1FbGt8YXHV1NpciOdMQ+YB26xEDfoaxeMPptUqXhYFq4Gm6bQAzVj0InYkzBqydnQpQK5RS7AhKqCrh2IeoozswZiGAqeMJCVkmpDjS++nLeIscR4tpzl5uitXPLW3b3EsFAgQ/Xvt6RWbrPDekS0V+0Ml5T13KiJOBiem24j+lFt/hej1VkY22svcU2kMADNTKF46mRGUb5e9CVvwlr380JaI8nlKsYz/wAH4+h39xWdj2iSKY/hlNwo0LHCGJJDYncM7kYiQI2sTTVLKBFC3E+jbtBEGk4XZssGe6uoUgyilkUGBBy+KRzdhPWiS74O0h8zG81o4EItxlhb0wAWHMwmJ+lB13hmtFuW09xFtuVYkEDIkbQevbf5V1c4g5Wb7OWJylvjSBAgN8hBrsmyZ6lJWibqC1Q2VAybOSQxs7gkRhCwmi06cN9TXSK9/T39PHmIyLuQT8JORBxPuVI+lVvtL+jf9h/yokHign4v4lxYFtnC7CZGUDciJHual/2n1H/7Z/M10GatDYkB+Jv/AIk86cIxiQNRuplAcumCIty6DDb20GwcA/EfRO3vWna8TXkhUtaZRAAX7OhWD65SSazuONF5gJi2qIk7xio/rkac6pfs6cp84M/PO5Vt+ntXUQmYhClJd/JwT9Ad9tIs6kEseur7uEWLvEEvsltrNtHmC9pcQxJ+8sx9RFb2PnaS4t24r5sXsKCQbTJy8v4gQIigzSghlMfeG/b61t8O1KM1y3MYrFokwBh3PpJE/NqltEpgCn8rHXPLMPbg9I0tSkjEOso68OatGuZXBgtpXdmBjkgcvTdjuPXejThOva5pLJtp0tXSlsdfMd2CQD1I6/SgCzbVrbgD4zbIO84yclgd5j8q2tRxTymRQ5QW1RSVEY5tuAO2IHUda59qlY8WHNhY2attcTeg0mhSEKwpHVOtNYqpd8u6C6sVX07RsCfQTFHPhrVvZurbuMCj/AxYCOp77j/zQVxUC3duhLnmW5gOCf4n079jXVtnwW5eVsQcVcGGDhZH6QfeobXsyNrQXNxQb70exd/IHdzSP+nbum9ToHq93YDxLjf6Bxbj9xdW6tbQlBiyklhK9GB2PcH86s3+DabX2kN9CmKsFOZGGRBjrB6A9O5oM0nE0zlCWd0LMWVTk55iOaYSe8TRRqPFJtPOKvjYtxiJUNAYj0EGRI9q8qfImJmY5AUknOoJ5OKc62jvkzgQrEpw/Ly6rAj4u8JXtNaZ0VyEu3A7iYCAW8G2+EGW+dDFnIW2UElmAB33wJkivZk8YWtRcNkops3bZzadwpkEXB229KFdT4WsW9PprTkk3NW4zUjLyzGIJjm7HfvXq7N2l+SaC4rvKTiNtU2IYRmZJSsdyz+Ybxr+8ebfZ2xJAnH4h3Udmj8Pae1RPaPbYr1+Zr0jjf7Ob+ktXb1q+txVttkrLi2Mg7GSDED0oB1IEcoknfp37nf9BXqSZ6Zz4C4/an35ZQKUUEJVn11ziul11OZJ2PUf63rQTUq3KCwXESe8HvH5xWchYd+sjt/oV0lsNJiSBMgkEDb+pFUUjMddZQKlpXfrrONnS3EOIXKQTjJ5iSRBPYADb51f/fN2y6lWiBlkACcoIgzt0/rQybxDBwvLsCCepA9vpVnSuTlM9FJM/iMDr2M/rXPNkJWGXUb68s/COcoWGJJ3NkPrzgm4ReKsr+YuLD4HJCdjzN7/AOdEFnjVw3vs5uBUDFptKQrMoJCrjPIx+u9BfAOIW0uL51sXLYYjEbnvyr7zVu9xkB2wfEFmPUgFjMg47xO3yrz5+xpXMVjS5ahvra9Reo0vCStQAwUrbdm9r7n3NBxd01vUaqdVYgrYuWzHOFFwbXApHxKZ6T8RoT4V4HsteUX9QrK8FFQwXUyBk/3DtuKqaXjWpi44u+WwjZYUdgAoH+vWtTSaHygzXzzugYMD/Z7iZjaSJHtUZcuZs8j4SV4aMwqdSzigBOpZ7u0XM8qUABTMmg8voKtF3xH+zS5bcPo3VbYBBW7cMA/3WMmD/Sh/UeCeI2eZbIvqROVpwSPfFoY94iZg0S3eOXEtPaIgeZkFyJwgbJzTt0NbFrxU6P5ZAuXIQQoPMpUEYn1kxXIjbduSjAkJWas9aAipUDU1viHMkmK4pRURlSPLV1V1bfnOrlFui2chHMVyxIkFdh1jtWjb44nlFASXubSf+GFIYjtu24n0Nemazhui19pbbucUuG4VyKOWxxKtO/rvQ/xD9m1m/DaFxYIBytOWff1DZEr+oqyO2dlmkJnJUkvo4G4tUv8A08cxGzIN0l+cCej11zyx5SZNzICDzZOwIMgcp2/Sr2g1t6yGN7E3oZXcAF0AHTaRJ7tB679qHOK6C/pr1ywQ2aGDiWiFhsuXcjvMVFpeKFYckvHxKZ5pG8se9eivZAsEgAg1tUvW7s26uT2iCAU28NGp7coMv3gLF1XCi6xtDzD1lnO5O34doiK5s+IJUhbVtj15bew785EfCTHcChm9x03HzYqNydlxPt07V3p+IqpVSMkubvi0SB0huvxbweu1S/AoKe+ioY340FrbgL8GzjUgsksCTkac/C/HVy+5xS695F1N583VCrW4OOXQx8o96vWeL6xGbC5IVihBMm4R1gf3RLH0od0ertXBpi7BCrKrOTv5ZLbMCPujaa0tZ5YYXNOxWyq5LMnzGJKu5JkkQAPWd+lcc6ViIxprUHuhnfyCh5Eks0aCCxL1fI1bMnh9BUExq6bxE92DywFlyWY4774gDafStSw2m1w/3jRl7eWFu88LJbsu+UzAkUC8JuLYy1DMPLuo6qgMlg4IHygjcHcbVynEuVFt32ysMHX0yEbBW6wR7d6grs3+KVyixFiQbtuHCxIYmhaAT1BsdzcU5X1HnnC8UeDnssb2nuLesIwz5gHtbxzgRKjaWH5Vbs+C+UTdsTAn+L7VwmhulGvu4XIQUEguXIgx0K836VTTirqAsJy7bjfbbf3ruRNnrS3xqijhLvQUPeApqLg6vGRQnuNz+x8IF7h80sQTI3k+nuO9QupaLYB27D37mrOm0guLcYNGFtmaNsYIE7doJqhd1O0AHH2O5/xHvXupuwygWgghuvrw84tabO3sUlTIKnoR6/MHcHsRXdq01ts8ZU9zIMHrtUOg0+ZEAd8RO5gdT8q5S9cyASWO0KN59opUxEeMQKVHu033A9/tGzwe6qB0BOfmIbTj7okyCfQqf0rM197zBLE8xBJ+Q2ma1tFbLi0zMlvFirLHMqk/2gA+NQdvUVhlJLQRy/i6YwN6jLSMatc/3bnTXfAxxBWV/V/PPPiC13Q6zyiBscYxaDymQQ0H5R9a61PEWdYyJyJZuwUkn/u2j5TtWdcaTBa2JggZCTPSfQ+1Qs8OA6wJE+pH+u9L8OMeKKJJIwq3luqQf+FNOPIuamYKDET2lI27Tv1rS/eiu2dq0oS3ati6sQASMZSOgJFCdriLi0LQdvKMnGdq1zwlrNvzr1y2mYDCIY/iAWO8CT6V5kyVhUpSy5UaCpYUyFSWfcHziKFqIaWKJva9eLWY6wWaK4zoFtWNMVujDFQpKS0nzdsnPf0rXTQlbaWnxuXlvh1x9VGRO/QADv2oG0evRFDhmzgHEcsgk7hl6b1NpOKXbTG8W5uZSCeYM4K7TuT07V5i+zlrmYibHRidKktbS/F27vxCQWz45Z016tBVxjUHVWwj6hrNu6SGaMkZQYK7bAbEdqBvEvgS9aBbTv8AaAN4QwcQCcxvuNoPcbdah0TuL6q7viD8KuQAevbpvvXodjX6UI3mPIML03UxJDR8W46+9dK9rVsCkol94Gp/NuZ2d8x3iRkWhySJoxLy1oeuQ4QC+I/2a3rFgX0vLe5VZkW2Q24kwZOUfQmKFfD1kHUW1bZXY22B2EOCpn8/zivbtBxe27jSAmWDQy7RyEgid1Yf5Vif7J6dn+1ai1cGGLW7SNvdIAP8R42Jb/3XVL7TC0KROLBQLKoGejEU1cHxiuAYhh6aPItdYa2WtE7pdZT747TUAtT3+e/WPWjb9oeksm9cvorKTeKukyASiuDMAiRuRQvo7QuNEqsKW6wIUdD617EmaFy8Rvnxz+26ucQLpJ3RntkBHUdYGxru3fEbqduvQRJ9a6doJ3A7zW4tnT2PLTUKHuXMWYmQLCN02Xq0QflNE1SUsDV9N1zyHOwAJIEBSFCsQ6PTZFV8xQbmICGWJDxEdu9b3iS9GovWLYJFkFcRsCqBQT6bbmPWutBwRE1mn1VohtKzncEnAqrEr7jlkH6Vm8P1i63W3kcCbr3Lln3YSQh9mUfmBXCpQUSoVAFqUJoQwzDV45wS5LgJJrSvj1yiOxrfKcZiTGwYSBHc/KtJ+NM8MLpLIewxBSBAUiCvRhHuKweKu1tmtnfHcGNyOoP61Y4bxRbduVH8UQQ5jq3oD+EAQfc1syZSwFpGlvfrPOOKWlSHQRTMnUVf6D6wYcY4nfvoGZRYgYjEjMhisq3fsP1qXhfFvs9ljbxyJIa5MuvQSQevtH4qEeG31a4i3WO7RLyR0Jk7y2/86J9ZxDRojoL4u3GVMFGOCYtMCOkj9a4JuzSZRRIQk6sHamquOpbcItLK1Ypp0oSztwsNA1YJvDXiO094PqLdsk2sfPCbqrMBgzRtJjbptQd448P2WtXtZpriOvnReVDKBmMi4h+43NuvTc1RTXrqCVulkU9lPLkokMR03gA1t6XU6azYNn+I9m6oytYpzM0HdwQSynae0VmShezlIDggjuixDMUvY2cAszu+vWialaXuDnT0fzjy9rQkmcfYDaDT3C4ABbYDlI7QfX2r2bhfAeDagMluzzriWJZpE+hJ/SrlnQabh/mXkGVu/eAIADBJnoB0T27VWb25ICvhoQoqyFntxIo5DirbxGvhkpxOGjw3T6sIBO+J6dm3mD7Vq6XjDo3mKcJDKuJ2t+YZ5J6MOk16OvhPhWpRjbgyW50bcEmflA9PSvK9fww27rICDiTBHQge1dGzbVI24rlpBBFwoN5Oft4iIrl4SFOxi5ahicjEtMzt09B6mtHgGq062dU98M1xrR8pI+Jvp3mK0fB/gRtXae9eu3LRDAWgE2Jic2y+JO20dDvWNq/CvEUuG35LMyqCDbjEgkwSxgdvnvWJu0bPOUuQZrFJD1Y0INCaGrAxhOzFJ+Izv4Ra0vG7y2kXIsgVcQwnEgkAg9iIG1V2vzudz3OI3PrXGj4Frzet6ZrLK7zs8gdyXyO0AdYoo/8A891f/N0598jv+lObtOy7OcWNIxVoQx30pzic2TtExVy3WrQKeHeusHb7Df2+gND7/Efn/lSpV6Ev+bM/t9I6z8qeftFm1s3/AEj/AOwqzp7rILbIcT5i7ilSrSvlVwjzUXHGIdZ/+RHYbD2q/wAJtK45hM3bYPuNzH50qVZm2HL2i/5+R949r4XwnT2bWNuxaAg9UUz8ywJP1ry39ovC7Nok27YX+MRtMAR0A6AewpUq+e7MmrKw5N9dxjunWEBCalwphj0irfDdS7YoWJUKYHYZEkx6TSpV9GrrwMc01IZVILdCg+wl45gzKD3A32qlorpY5EyYbf6GlSrnFl8/ePNmfzJfFPrHT2xkp9Ync770deGV5rzdxeEH0+L/ACpUq+c7TP8ACHA/8hHobJ8x6yMaHiIY+TfXa6LigOOoEnb5UVaJyzMWM7x9J6UqVeItRVIAP6m5aR6qLmAr9sFoLpcgIYXU3+akb+v1rz7xZpUt6m6ltQqratAAdsrCk/mTNKlX2PYf/aI/v/5Jjj2j83WsYujQM4BEglRHzIqfjTFtTeLbnzG/R4/ltT0q9Qn+OP6T6pjH5et8Gfhdz+7Lm/ws8e0oTQRw+6y3bTKYYOsH03FKlXFstZu0cfaGfYe8FX7SrQTVJiIlW6f4v/NC+oci0p9XbsOw2/nT0qWxfyh/UfVUZ2r+aviPaJr6DMbfcB+sHetHVadRpWuhQLga3Dd97gH8tqelWkmiP6k+sKUATyMVH2vMB2cj/wDmuPNPnhZ2HQdhtSpVa8uv6faJL+U8In4ZeYFzJ6N/9TXpvgHTo1qyzKC0TJ33jrv3pUq8bbz/AAFjd7GKbGAVJffE2r4VZ867Z8sC22DlBsC2Xxbd6EeF8MspduRbXa/eAyGUBSQBzT0pUq8nYZ838LM7xsnM/pb2jqmDudb4LX1tw3EXM4+g2/l2qg/GL51BU3DiCNoHoPalSrEqUj4JDDw4xyrWrXOCrSXCbFxjufKO8D3oK+1v+I0qVZlJBlJpr/yMWnZR/9k=;" vertex="1" parent="1">
          <mxGeometry x="1437" y="148" width="61.44" height="39" as="geometry" />
        </mxCell>
        <mxCell id="shK0o6eYTKU5Cj1UoSUi-29" value="" style="shape=image;verticalLabelPosition=bottom;labelBackgroundColor=default;verticalAlign=top;aspect=fixed;imageAspect=0;image=data:image/jpeg,/9j/4AAQSkZJRgABAQAAAQABAAD/2wCEAAkGBw8QDxAPDw8PDw0PDQ8NDw8PDw8NDQ0NFREWFhURFRUYHSggGBolGxUVITEhJSorLjA6Fx81ODMsNygtLi0BCgoKDg0OFxAQFy0dHR0tKysvKystLSstKystKysrKy0tLS0tLS0tKzUtLS0rLS0tLSstLS0tLS0tLS0tLS0rK//AABEIALcBEwMBIgACEQEDEQH/xAAbAAADAQEBAQEAAAAAAAAAAAACAwQBAAUGB//EADkQAAMAAQMCBAQEAwUJAAAAAAABAhEDEiEEMQUTQWEiUXGRBoGhwTLR8BQjQmKxB0NSU3Jzo8Lh/8QAGgEAAwEBAQEAAAAAAAAAAAAAAQIDAAQFBv/EAC4RAAICAAUBBQgDAQAAAAAAAAABAhEDBBIhMUEFEyJRcSMzUmFyocHRMpGxFP/aAAwDAQACEQMRAD8A+BiR0ydMjpk+io8lsyZNUjFIW0KQrYG0JQGpCSGoWxe03aN2nbQgsTtCUDtgSgIrYlQbsKJgJaYRbJ1pmrTKVphLTDYrZN5Ya0h60w5gNiNk60g1pFK0w1pmsVsk8o7yizyzvLDYuoi8s1aZW9M3yw2DUSrTCWkUzphrTBYtkvlnVplflmOAWayF6YOwtcAPTDYdRLsOqCl6Zjgw1krgCpK6gU5AMmS1Ii4LakTcmKJkbg4ocnBH1EUyNlGTI2ZIFmzkg1ISkZMBFbAmQtg1QGoMK2J2GqCjYaoMK2IUBqBy0w1AbA2JUBKBygJQaxGxag3YOmQtprFsSoCWmOUBKA2K2KmBq0xsaYcwCxWI8s7yynYHp6DrL4SlZbfC/r2NqoXkj8sJaZ7Pnab6dx5c+ZvTVc8T7e5FOnnnHv2xx9BVO+VRpKuHZL5Zr0yryza0Gkn6VnHvgbUIRuDHBV5ZjgNgsjcAOCupAcBsNkrgG5KnIupCGyVyBUlNSBtCMmS1Am4LKkTqSYomROTh+0ww+ohmRsoyZGxJI6bNmRsydCGzIBWzJkZMmzI1SBsWwVASgapG6Wnl4/rILATqAlJXfTuUnjGTb0eMrtn9Xn+QNQGmSqAtg1QFtDYopQGpDUjtDQdvE4yk3y0uF37m1C1YnT023hLLCenh4KelTi5vhbaT+eV9PkV+I+VVOtPKmuVLSyvZi696Np8NnnTBVp9Phy6/hrnKW7t3Qzo+mqm9q3OVuc920vYLWdKFL5w3SXqn2aWfnwZy3pCqO1sR1Lirqo+GHTUy8ZXt7sFTxj07lM9Jbndh7e2fTPyNanCSXPq33f8AIykuBZJ88HV0e2VTaxU52JpufdoLqFMtxDT+HTd/Pftzj9e30MiM/Rcv6Gpc5WO+Rd75Nap7CZ08N+ucd28L6FLtPRUYSqbprvna0uFn3Q3qdj2uVh7Vv+W7P8sE+xfLH6GXioDeltckzkxwU7AakpZIkemC4KnILgawEdQLemWuBdQMmYirTF1JbUiq0w2MmR1Im5LagTUhsdMjcnDnBwbHs8yZGzJkyOiSZ1tnTI+ZMiR0yK2KdMjFJsyMmRRTJk9DpfD9WkqmXhvh/Q9jwTwmUlqakqpuGmn3n+uD2dBqFthNxPLeM0mefj5xRemKs78DJuS1SdHzmv4Xqt/HSwtq3vvyuFn9DJ8Ofxae2sqlinjvzxj0X5s+m0NenlNrFNtYSaxj1z3QWh1E0qpqW00kkts0vZLtg51m59UdDykOjPk34fjlrEblL+vrgLqPDKXMptZawuXn6H0PUeH7s1Hw0udlzuU4ec/oePqW3FPDvFOd7ytTKbymvkdGHmHN7M5sTLqCdo8rR0dzw2pf+bhZH9R4dcpbpTTWc/DUNZ757CtNKrUt4bzWPVpYzhfmvuPqKTaz684zjP0Oxt3ycKSrg2IXlVzzvjH0xWf2E7XlYWVzl5w18uPUt6bonS9ll/Tg7Q0E72trGe/OGDUt9xXF7bCIqlhxxisU+U8Yfb7BPL5fJ63iPh601p1C3S5zXyz7/L6EWrsaW2amsc/Eqnu/YEJqW6NiYbjs9qM0+ptaflriG9zXrux3B01zz2NUhTI1Ik23z0K1p6Lh7d03w+XmX9CRwMlf17G4AlXUMmn0FKTtg5Sa5GsnQjaC5HVIDkKFYipMcjmjHI1ik7kXUlNSA4CmAmcAVBU4AqQ2Eh1JJ9SS/Ukk1UOgkjRw3YcMNZ5cIdCAlDoRM7WHEjpQEIdKFYrYUop6SE7lV2b5Eyivob26kvGUms+vBOb8LoaFalZ9ZM7YTT4+SxXHbKaPP8U8ZXT6L1tSmojlpKnVNvEysd220vzPZpqoWM4Szn0+q/kfMfivwp9Ro3CtunioadqXU8p00+30yfOXyfR1weV0P4u6zqKb0ujp6Oawovfrbvin+HKbXxT2X+Fnvfhr8Q6PVNrT0/L1peL06alr/iwn75XHy7I/Jek6brI362m3FumpS+Gk0uMLtzwfUf7M/DNfznq3NJ5e+3nDr1l47vPP2JxnJcso4RZ+s5pqllp0nKpfFslrGee7X7CPEegm5uNRpS+IctQljOG/Ts19s8Z4p6TpplYSynSp1l5bf1A/EFqJ3OapZU4lOsNvHb8y2H/IjPg8FeHvfulQ6lbklMvdM+qa79mJ6rp3L81cTbzty05zzj6HpdRP9nWZq3PFLGXEPul7MkrrJqsama0b5T/3ke2fX6P9D1ISk91weTiRitnsxVeIZ03pSlCbWaSSdd+H7EunTl+/b3QfUzKeJ7Cr3cYSeHh54e32ft8jpiklsjinJuW74H+fT9X/ACAU+/8A8OmRiQ1JE22zEg1JsoYkaxaMlG7Q1Ia0xbNQlIJwOiA50wOQVEjci3J6NaJPekMpCSw2iXaZUlGw5wNYmkl2mbSpSA0g2bSTbAajBS2J1WFM1Ii1YwRaqL9TklqCsRCU0Np/IwcJ5UobEmTI+JJtnazYkdEmTI6JEbAdMjIyufU6UGpFZj6vw3xJvTUquyxi0uX/ACM8QrT2XWW3hae1NTKT4bWeM92fNadNdiHxPrdV9RoRp6jS2vdp443Ol8dP1/h7fX5nh53LvCTnF7eXqe5k80sSoSW56ceH1mXTu9NXuSc4zp8pQ3891Z+iZ9f0OltxjCSeVKS479z5Tp/7ROo6Wrv01GniGkq1LWM8vhJ/3kpejabz3Pr9Pq9LK5Szys/C3+TOKGFiRbTR2OcWrTPR0+c55njGfY+Y/F2pFami058zTvcntTuVteZmn2zn09Mos6/x2YW2PiyqTw8YZ8vrvfSusul2+2P9M/c9PK5V3qmjzc1m4paYPcd1HXamPhlW8KVLeJabS59l3+5W/Kelu3NU7r+7w93FOd2cYw8Z/MgSDlHovDV7M83vXTTVmpBpHTI2ZGsiYkEkFtDmQWajpkbMHRJRMCtjKIEaY1afAcQO2E3IooE+nBRGmbMD5QspDxgJ8om1tM9HAq45BGQZQ2PN8kXSPSqEIvS4KKZCWHRC5EWUaqfJPqIvE55gZEavI2kAx0SbJbkTUllwJclExSbYYNaODYTxtMq04TJdMs0CcjuCWm0GpKNNr1HeUvQnqDpJJDQ16ALhoNimPCWXwly38keT4Inq3q9RX+Kmo9p9P0wUeOa23Rcr+LVa0l9H3/TP3LvDukWnpxGUsTz9Tz8Z95mYYfSHifrwv2d2F7PLzn1l4V6df0NkKm33bfyyw1osKo4O7Y4txKkNI5SGkEU5SbelnHOMVNfZ9v2DlBpCsyOhDkjIgYpA2FIzaHKGRIagWw6TIko00BKHQI2UihsoZAEhtE2VQblGIzIDoFBbQ7ILBVg1ZkgORlsTd8GalZASKJEXIRaJbRfUEupBaLOecSWkLaH0hVoqiDFsTqIYwKodC2IwYGzhgHgwV6Vk0odpoVo7rLZHadYJ9Fla0iTCglTDTT7inOApoFGs8vqdJanW6Wn3nSh6lfV84+yX3PW8t/I87wH476jqPS9Ty4f+Vdv0lHrbmedkXrli43xSpei2R3Z1aFh4Xwr7vdgwmh01kDezkj0Dhuh/ZdgHBiYc2CjNpgqQ5R2Q5QRQpQyEDKGyhGMhsoZKQuUMlCMohi0xkyBC9x8iNjpGTIwzJjYo/BlMWzaZg6RNs4RqZGNgXyMictxOeR8C5QxILFibZHrD6oVaDHYE3ZHYqkUWhNIujlaE0K1EOqRNodCMRtOCZw4p4ukijYTQijTbEZ3DJ4KtLVYhMNCvc10X6VJ9ybxSlp6Opaf8OnTX/VjC/XBmm2iH8RarejOn/wA3WiPyXxfsjmzM+6wpz8ky+Xj3mLGL6tFng+j5fTaKxzSeo/zeF/oVo3USWIXaImfsl++TEmS7Pw9GWw18r/vf8hzuJrx5v5/5sHLGCkw5Oujl1GhIxINIwDUMSAlDZAFBSNkXI2RGOhsDEKkNCNFExiGJiZG7hWhkwlkxswxmoNm5MbMMYRGzgGwqAGQjMybVAsxsNC2CwKYTAoZCNibFsbYmmURJg0Tatr0GalE2oUiicmLdHAs4pRMimDVGBkUg9uSNnpNASh0yDtDgwgxRhcHm9at/VdLp/Kqtr7Jfuerpo87SWfEv+106++HX7o8vtaT/AOaUVzJpfc9DsyPt1L4U39j1rnLdfNt/dmqfc1pfMGWejFUqXQ86Tt2wlIyUBkOQijeDkYg0hRrOQxApBoBkHKGSLQaYoyYaDTAQQBgkw0xaDQAoOaObAbO3AoLYWTmwHRm4NC6jWwcmNmZCLZxh2TGwgOYujaoW2MkI2LsTY6hFsoiUhNk9jrJ9RlURYtnC3Rg4pNp2PmiRtegzTpkqPRssmwpeBPmLHuZ5uQUK2UrVWTzvCqz1nWanylQvtM/sUyyP8P8AbrK+evj/AMjf7Hl9pq3gx85xO/s91HGl5QZ66tsZLESxsnqUeXY+RsiIobNCsKY5DEKmg5Yg6YyQkgEwsgCGg0LTDlgYUxqNTFqjcgoaxiZzoXkzcCjahm47IvJ2Q0LYeTGwcmNhAwsmZByY2ahbDyBVGOhdWFIDYTYDYFWKqh0ibkHdiKsyqE1RRIm5GalE2pQzUonuiiQgt0aLbMHo1EqYao44kd7DTGTRhwRGMmiX8O1/ca79X1K/9jDjyu0PfZf6j0Mj7jMfSvyelNjZs449RnkjZobFHHCMyY2aGKjDhRkw1YSo44Uaw1QW844AbOVh7jjjUZM7cZuNOAazN52844ILM8wB2ccFIDZnmGPUOODQti61RdapxwyRNyYt6gFahxw6QrYurE1qHHDpCibsRdmHDoKEPUOOOKUMf//Z;" vertex="1" parent="1">
          <mxGeometry x="1437" y="188" width="61.44" height="40.89" as="geometry" />
        </mxCell>
        <mxCell id="shK0o6eYTKU5Cj1UoSUi-31" value="Clima favorable" style="text;html=1;strokeColor=none;fillColor=none;align=center;verticalAlign=middle;whiteSpace=wrap;rounded=0;" vertex="1" parent="1">
          <mxGeometry x="1059.61" y="395" width="60" height="30" as="geometry" />
        </mxCell>
        <mxCell id="shK0o6eYTKU5Cj1UoSUi-32" value="Tiempo" style="text;html=1;strokeColor=none;fillColor=none;align=center;verticalAlign=middle;whiteSpace=wrap;rounded=0;" vertex="1" parent="1">
          <mxGeometry x="1263" y="392.23" width="60" height="30" as="geometry" />
        </mxCell>
        <mxCell id="shK0o6eYTKU5Cj1UoSUi-33" value="" style="shape=image;verticalLabelPosition=bottom;labelBackgroundColor=default;verticalAlign=top;aspect=fixed;imageAspect=0;image=data:image/avif,AAAAHGZ0eXBhdmlmAAAAAGF2aWZtaWYxbWlhZgAAAOptZXRhAAAAAAAAACFoZGxyAAAAAAAAAABwaWN0AAAAAAAAAAAAAAAAAAAAAA5waXRtAAAAAAABAAAAImlsb2MAAAAAREAAAQABAAAAAAEOAAEAAAAAAAA/FQAAACNpaW5mAAAAAAABAAAAFWluZmUCAAAAAAEAAGF2MDEAAAAAamlwcnAAAABLaXBjbwAAABNjb2xybmNseAACAAIABoAAAAAMYXYxQ4EEDAAAAAAUaXNwZQAAAAAAAAJyAAACcgAAABBwaXhpAAAAAAMICAgAAAAXaXBtYQAAAAAAAAABAAEEgYIDhAAAPx1tZGF0EgAKChkmZxnHggQEDQgyhH4RQAEEEEFA9LrN8c4imtOx37NuAapZyvKTXiLHpv7LUREVFSY1lZcoxKIBHlcFGizqup8UyeVXMmpm+4zbc/8+NtaNn6T2/EtfQxZbjJWiqAL89YsVwaDYEr7oWkDkFimPC4B7NUahX+iLb1EWiSgASkAKpos7FSocjttyHrlFF7OTNQvksZJvCp3QDk/LXZNpTqkL4mAaeMDv33DOzl0JgLcIl5XOCQuk+2SS0MqgEIAP7ge5jJ09yDVhm6xK045vU/SW5nLzvSQbKIkeclwAMBCNezz7m0u2X3VqVL/TmKDM0g1KUwoqH/RmZqeqvElPnxBP7LBl8OYYoh0baDOmojFRpoaLcFS5WwfinM96DEoGicUnEhRgPtXhFlgLarnp9JEvdTGVqeFTeH1ILZ8k+IQ+APKAhbynFE5lUi/uuklvUxdY/XIPT58DLW9eXPQQGTGMzvAqi0M1nFmvvHycMDd4Yb/KCsFO9vHHbio+OsvoiSSz1XeMtfBi+5pvWSw4iNYP/XSfMxMrUQO5IeKEhcgzuTtY66KWCjy9EtS6ptzzXEvuTXJvoYT/BcObCPcTdZRYj0HxkoxwDwpeYJoOHGi9LzmUdUCft71xnZ/PBvIV+VFQ1xXBb+KAJHqFUlpISr/f/g00gm5nyOXmXyjFjOshh3nKfTfFwWTCDPUZvOoyRjN7iY3mNVCjwwQ3KkDSSzlGA6R5kKD1My96nzEAFH7WneDN0tAGmTUqUJIrKYG+/v37bOzTk7h8CQhTYh+JYpUuevXxeqgQwJ/VNeWOQ3/MPIO34fPmBXM2gTgulj6Jv6o/ab5OirCOTwqGm8VE/XAbUd7VM1b5tSq4VAL4eaXAfjufbbIbqbIyVohtpQXJhz1JaNbySEvmcWDiClMopaWJD8Qd1tpb8mQTpZqXQItHmlm6TKakhb6/hDV8+Q+dNrtJtH0AOzQTm2dG9CXDEJBsCZvYa4wkaxkAW++1k00aOhu2h3G2otOS+G3fauxyg3YVq75N1RZDKr6TAL3BescCqnpJsLURN1EvJvUzzE161IRaXRv2wS829ohKbecpnuVFGsndOJ05xjyt7Q55vr4ZPg4MrfTjsMW9Wi0+flbl7c7Dh5l+DZJ9Ps/H22LwTycaINAuglP72oNxIDpIzakBCi4ifeakWowwb5G9IOstA37BwlfpZg2/HeCToKwmmzLufPYnS0686GFuN4TAB9bVglhMq45YoRdE6gKYFlE+FsW2RHU0D3V42nQGdK7Go3HKrDXHwnW0d2r89eRihfJ4dXbyPBW9AJyoRJQRzs7mFtP6jFZ/KilP7jL6nT6FV4NW24gG49J1+NpBWCcl1//LsCfV2gfoT23y/1hByd0kd/lgFFAmhv54mvZFFGtIQcDhwC9oJ8/vLMNeCUPtpN9O5j3EeIUVONSEciYL3nSwO7/7dQvPV5j0GdQzeBXI4JxUT29YHjpFtryOgh0qboFfODy20ZmYFmXSB7UXhXEDasq8uZ9sEVFEsgY4K0Rv+yMxMeGnnEczuZ4tp+veRCfZ0ViD8JWm29Fa4xZ53VZdjyqegBnzMnjl1DkAk0RrONkEEEvLTZVzRRiI28Eki15UJIReU9t2MYYY0mll/xroxTVkqEhXCR/ER4RF5/yZ3KNEj8HlX28G7DLL1vrXT3dv3AHv8q3bvOemmkQTvd+uW0ou0Vv/C5O/nfvqu1oyJEU5XoS88Onth4vqerjIP39fXVT/hGJJdGxPpEWn3y3VfY7jDVYATgsXxdDcZDo8cvvHAaXfkEJKnWsKCDrBsT3VZwlALtwgueVVZac+GKfHWrJC7uXcPp25K11gK5CZzDJAHKosAOpST2J3mXhXqgtIxIFFmLm514deAEG/9wSVq6cxnrC8lo23vRxu45hz43kNZc/c44kzdUeCD3izeK2afgpbOTOYwMpSajhBbb52bh4RcfjPEirKFisWWIrSvx2iOcf08OFBsrzWsVaNnL0E7btLyb8K9uEmwOeBNWl6CYNK8bxoVAbaGEEsVTYsonmRMXtXSEvgCWmy8pJqXSqKlqx+L24ZA5kJIVSyw6aZ1Ilv7BNd86x75TSdXJ95GTd8eYnpffdm5AtSQ24jzZMy/TKJ4pJCPUk3MOEBG77nFS4WUrkNrv479Td9vuBzfAfiTfxTJVMubMrBLj4qHzN2oyhhtE+RJfwZa6aucFyvdUChrJbTDA9XbD627f1I0TnPpH9QEdcGUuVyzxToUn7JXOwMsylzF+TohcmPjTsF0/K4Nt2H0qI4n1lx/KklXE4oYSVAKkFuZ7xkUqltJrQHmlvSYJAM+KBDc0xGq4AiYWP4IePW3zhd4IX3NSHUjjVG/s7NPQ1Q4lv9W4j5w/zFu+nCmL29WbGBd1nKgYiHv3FuoX71l0aYEHY0RnfwXsPsGWt4arHGrpLFHxgbW7Wf3ZOfWz8Ib1oTygqeCndcgJaMh8/4Q8puWqHdMX3ESvsVFGIuCGx2f26QEBjGFMI7e7ekg4w0o0xTek/HIBcD7sW8Z44izEk/p1wFayhKRCUyqpOJiKLBbt/pUZe2Vx9ggkwutpTIgDLCFvxFdoAk3WfOJdDLhTO/+SrJftmsKUBJXZwWI4gP9mkX3iz7Hz8SUO6fJqMHLmY7ibAP3XtRD8/Jot4d9jozDqGCt9ZEcRCJgq5lBbcZRoR4YeIcXihiG3EyZ91rdxTtTmwZjOaPL/eJBqoa0u6Ehq0qE4VhPOLq3ADxhraK4lto4+hL9n6eE50JZnraPD9fFCSKR1lhdVbik7d/gP4oL2XmkRPkrIIt6THTG+i8qMgSLZF0VlXZ+P4o96s2e9T5U3zrb0sS7/LbfIhgVrhZ9MUUq2P+zokdE5SdSIkjQ5QljfytmMdn6mkQvNhPvuyZtshzhuvWuPrDXfES8xDfjb9cEU/7PYoel2ZHYNK6/zh+PKe6WM0VxV06hC78eF04+82H7mEXFHybWBUu3PiTQOTWM67qci2N5bXjH2s7I5iyynO24d/sJP9JRX9u7KZ07VICSYtUfltiA2u+WwY3TSOpyjD1KukKqL5FCQtfd/ncFtCWWs/5WFdOQFMOuig0IUcexIHHU6cOteeWmvb8PE31yT6SPD8VjTMFqQFEhqz2/EjJDc3bx2U26r3yfPoGENhADXH7xF0JdCffcIbcRXDsBJPclk1b6anEV+BHu3CZcfFQrfyYFw8X0haoMXgKor7/OVuonsTfh5yZYidEr+HvzuGruG9czF8MzeDP1TAzATHzFrx+j32P4UKKFZAO1srXBtw8EL2uEWOEp6ERv2RjmxGP8X8NmZggXcM/4bmGWQro7Dw6mlMt55hvd/hsEIASNzdIf2SydFdKG/O7KtvCNY35nJApdSDO14MDWiY0OiJ7McBpvE/6GfqZ6ti23U9Dg+Ls3dKDUvWmEPjjRHg1JplTP5G2K/7yH/IfSeW4oEtD9M81GgrTupTEpVrL+GJHxbZvg67PCHTSliUJ4WolokmbboJzQgyTamhQ3xEvG5lNJ6ZRQH1F3Ooqr9TTFzXZN4Y0/XXtziuXaHvf50NE+lUh1e0mFOMePnvs4sqyTNRncEyIv/8xwa90Bc3w9XNhSUBT7mlNOCENjZVjoCwPoU06kV/aa26Ta8bXScRvV32Im0VIIYGwYb9F3+4zX5XKFjnFPpWSFmDn1XJynnj+COMOWrOZonfpS1UZn5cbnGsehf1ycLtsZL9h/NIQljSLmvbaZj7kFk5NudmBpAtZvGE01/1neGahlOUXx10o7VDjRUGq8uRCyJ1yOyTN41YfeQaDidDvrNoQ5Ip2OVOswLHxr6P+VSamOXagFyY9bEQvCCvYrNpN6wORujxv+fpdNuUYSzWZuaykpW9qHYQYJfZRkBEKYeeM8efnvLZA5TWmUc0KpGpIIVIs8b3sK/SgpgwzAex6TiPsx51h1cg74yoT/OF2+SEjmdEzPVXXvKs0kgNVU+o7xOvc7NofocI/MTd/q9mV3NDZgJBczzzjZhaBCelajRARUQ1icrGvwNPQA+8PMQ5z/scTU5cVW+0uuvk8h4oSpkszFfD2perpS8G4x9k3+YfW9dBfEosj1pXl5Pwj+rkwREpaj+akelC9vtIkh35BtoSQ8PZJSd9y37ozzrQTUAWBweUGCFxHhabe5wsSACCGX+itdVZ26UNvfBgdeO2mXOXPMTfYYGH8F/pyVq+nDfVol1+ZxA6dmmvIBX7uRvvS04ZGu5UWqFK+NY/Cv1vrdgF9LuWOit744YMIiyZkM7JQQBxf+tms/jT6Oz14d0RoOg5Lckugqz9OisO4eS0fY5V4ZTfwIyVa5fRKxcWENP53YjD5blKoC9grXJV70yKF7s/KvEytNP1Q6ef7iOKLk2ipp7wgbpuiDCyA4b3eWrxdp2s/qfALodzXI4jW7L/aH8FECvYgcpH9Ciup9PupQfAPSiyLnWSgCWxOoSPpaUOcqH5976qrsm8dWFWzPyKfQxvlN56/OErzL6c5bIrdXLBmVX0sfq+bFOF1OyFGor5/bOParcq2QIMimAKDcDQSBDHxS8UG20lDQ0SMHb/4vasPlJHEuOAPld0WfkEiukh8+HndwGWx/tAYBI3x9vHv7rjHoFmI00abBzdzrnTM4cF6ByZeFjOf+iokCHkmNYMnUII9GW40G94FgrAThFtORvVvTYnwUhAR9TwQljzdUUDLgUkOm+79yxU7R6adOuSLOBEbI/nc3uq2QrkQojeztHUaMhm4tECVz7GScxkubvPuKKFVPt6szCIjs1MgryrWghauSAH2r6dP89LNAVJ+TKhRwzkqfgyKnSpIUieLi+OopatjtTkXNQVFU+a8gZHqO96Fzot12JGVXdlhd7ZINYesKb+sKAoAMGQMSgnO5w25/CbDezG2OfrKgUzfguC0BCdyInoK212JeyF0ioyayC/oIzmsDbzdQPOm3gagSXv781htWD3DlMGmN+ryp/ynPrQIIaCi0bwLd+xNTe0U1atQlecLTRc7r2EuZ0R+p88uNNvuVYwk3aJepM7adfA0LnV0wIKvYWMZDwB1l4EpE45YbayNFe2SKdb/c8Vi9L/5dOsAGCP3paP7YCyfFpxz9ybv3MA8n2z8jkvzuiDo7e6S3AzxvmYwm5v5EggOSMPabN1lEz5u9JIoZw13yXCWdXJKWe6+98fPpzLxzltqLqgc7EqfwqjqOWyH29gd++SX7lAJ30KhPUTk7jtfyV6A92HgcQqiV6V477KGAZgDN9WS6eb1cwU5Yn+9HFqruoXGj0ox2aR/kYLlkJM43GiHkLQ6HAumQSL1pcYmuuLsHTbJ1Me8uH9FMs1flLteXJJI4gcevr8H21RDiQciBU9J0kqPHx4lHfF03znUSYdXU8vGrzNTr0l44KTkZMVUif92In1Ub80hAMsCWbVfHd9ydXVqR0AdVhpcPqV4FoxTJg6pxpJUCBpK11WzUawXjk0ZWhGXJauSNxXNpn80bs6/FRWK8mEW9neD6N0/4EAU9Y5/K/xXxxqmjIN4p1Qy7+kFGRtWu5Gzz4tZrTiEXX4RAiCSuA5hnrpWto1jnlA2tQOb/+Ofrt28ULE4QCJvj1TbEJoXTndQ+0L+s4DZLEaG5iRguLyWhZdLz1JsM0IyxwWdRZiSJBbkvn3ApazsB37N8xk12OBzEvpd5cwPozHX76HpxcuIFou0rFPQ8W8M/5hl3hrIndGuALe7rPQmXKohebxTof+jBpJdBXNzGz5Jf68wT7nSwxVxdZIEvZPP1dSFI99UUnJZoK4ClZHmC/B82CGc68/2RsypdcxTDInXZJQDWMZWmLohGX9oxj2fHy26ph/oAJCt3ayDznOHpWL1WWI47PgMmTbc2++sUOvYup+mKN0V4x5fIj7AxF7uBCwRD/eBOdXV8tq5UKjKVXYPJhEjtF69YAImOpTRlJqdaBmmRTHhylmqURH9zJCJ+0oo8NPNAtglYJIXPB2qNyqbpOhqaSI412pNsUHjeqDSjSlettSlul/dA6iZUET4kSrZeXRK+58CFSWxFLDpLIy/PFFUfvm3Mkh9f9PNPRNqm4X3/Ju8aeN3XrDxYBQrqbnKgkioL9pU2JarRJmATciHwcZGerEksgGyWJN7Wx00fEDVdf2o69EO72MYZoIQqY0TGqUKVS53JvsTykQOaFRcEysYT2xu1Y+IYi6Bn6Co5I3QhSlnLGglZg6Rmoq6pgelyzkoRaDBiP66w6tXIqMdmkRPYJchT0Cgw4n472UwZD8Ymku560VmYvSqknJE+6UKC3wjKaQPWxCRj/eT1LPEWfNMKSxp2To+DPDSJBJX4ReC/90838jDyuiGKnICJu6AlSEDUoR0OXO4JyIujl+9y623GeARVSxTg4EiYo1zhTYXjJVvMV6MJw/01gdebGjmTF848btabvkJ3j2EY7ciaecHTLs/kag30bgpdLaJi7Ss8AyzqAaZfjc7HdXgcCrDcMPBxAYni4MZj0u/upK4mYMMBXWiL0P6kLDh4if5VxUTb/esU9HPq7Z/WT2HJIWAtDrIwW7vUrTA/XJqTp0+ZCK5gfHcEsoqNlFTF3WdNwlDZbLJ5W/TIe53MFLLjE8rPibi5qAiOQU3yd8gceLqDU97lXyLiOL4/WP/Tj382YukNj168VqY1Q6vd3arBphwaGkQxWYDNbeCXZKLopPiKW4yLbw/OtU+OYoOFsH9Q0qWClRGrDbEl6GeZTYD754j1G18AJczJ/uO3coMZ0K5U/DZgGRqHjsCMgM6UBU9UNIDnuYIFghntSIXTOQnfap8E4+zduE9N/N5xf4lqRgKG1mZIoUeCMlD/ElmlrUIZQ4YItXOJjQyKqPR6ylPFz1a9YQCm3PNMJgp409Tvj1rE8t0TW0/WurR4g6BylSK1J1D95VUtEHpsJlGYy+EZ6qsaWiqAroDgJu+W1tmIVwehXbL80lIlEqUvjh5cRbgnp1k4q/ucoZz1NFaAneLmSq56DEcPYfIc5p3vvBbaOK7B+xxJ/oMzHZqWFFXhHjvnunfJsYWdtIoG4lOX0TQTwd/v/02fwagVikIceWrSX07QyVb2t9iymVn2HFR6/0s9VqEmubyZWFLriG8h2npmTVFVQqoMj1D1Trk0S6yUjULrK1lCebpHNuoYX5u7Fr4XYIyBc1wgFOhu+bXSgmQJ/XYytbABe0aLVUJRRrAlZOGcXelPtr7c7ZzFMToqLIHdhQG6zVRld63GxjdHtwgsBRQcwvPwC+ysMQKnymQ7MHnjR+NZlkQt8owcJhGy52YSQW699Sm4y91qZ2rkxGujp7k15JhFJ/50Ldzx/VsE5WqUqzmi3uFOxDn2Y7r3+YGElrMhEU1/0JTFIh1z3yhZ55cCcsG567u0Lap1GsflWX9cNlV7TfwlLCEweDbXMC2r+hzWwfLQjQAY1N1E9Dkuzq00/UVH9AKzW/smSg2V7ETY66lq+sA8KR6AwEVxHWviQ2d43H2H034giLmcQ+6nLGvrIdI2kVrvZZv23rS+wwpdLmm0LCV96Y34doUx6bEWbzJd4n1cplnDN3bJ3/RIf/iCoUVVmsRQxVtEjiWmJdvsxCRbsE0XBP3sQ0z1YSeLfCJFiRqwOcOTio2mayeTs3Yvi+jgxcyUqMgZ5bAYi+ObUShAxsr9rfBNdFlX7WUE4qBnDT6w+aYqpZUYbX68gwSQy6DAR58wqnXpO4reTeik427HoDgYcvXxGY+r8vDgisQgt6uPnMPJPisW3GIB/Itgs5LvryXZKE/zm35vucI54iQCJnT+wgE9aCecNhJvmBH4NaskQV/JI4+XN3V04wkRpcNs4QJWgDvL5Mn0t7MQ3gUmIGFhGiYFOW7be9sOnbLXlyliGN5qXTtRWF/FQXayFxe4ZxALU+b53GyhqfRJNlmtagMu+RnAlgNj5tWuYpE7TJ7ZqHRuZu6eeA8MCvNsN/uMDDCfFHY2Cx8Vf7lKKC4NLRTv3JvY2WXferudnE5VFcvekcYWiOiLesEq0N2jy3phECt8F9zyKZCNjaMt/Oq5DGnMCicL4LV3Wn7Nws6NgdXpE7IDA9tOQ4O9QEUS+KQmfVbrWYIYeLBLd6QpGRSwJQl9Eog6wcWItrGzCHOqL3LMdpuqBMLgPHEPTNEICGMnNVMofue3OpAL/z1iWkgPbovxy6RQqZlWF0Ws6GbJpYw4clWgVzJA7ASg1vcGyIwI9GVjf3rCUQf9Ws+Gynily2oL5VMGpAuPRJ7ovJNbfyEGV+I+Jw6Q2APYAzNPNEEvC1IrYe2TnNh5+FDniLcjgZFYoM5tTxB+YJT1I+mftl5Ff5VRT68hhXoQcA2b4nXcux4XE6dkGvGkHE62BpzJFDjjXAZeXkE4ADpR/nHIgItxKRgOt0mXsgVyRnt9ipfdSsIkWJVfUkNC9VwTSqDlYgpAzX/vHFbr2enC72rWpBAwgDZUkGtEUNgU0nQy83fM/uXUYsNZRbvGwybelNiZb97I2OO4uEDPoOQeMWM3fBgySv6gOPYEhYdgp1GcjklDkxzWOT2K9iILSyWtMVrmEiWf0Kei8omB4vhn4N+2UtyAg9XHkGx8vvXwokbLENRlLxS915LuwSM7dV3xVATlqnfs4duYL9qyOsqQaQzoAUWC+t6cb3ssIxObTEASKPquSoa7VpYPrJgFfZA0B0eACBkyn9j4dREk/01IJdYGm6pD1kn0jpG0VK7nzodOOS1AetwNx+d9SVX1vWptj2LOaeASJ4SW4iDzzQHDA7VSgwhPqWnN85V2WqrnWbPjc7K+GUsT6zaGVM6WUSBzztv1QNBWvm3fwU9AH5Z9izxcromkJKJx5nDXLlhD1BLvyNR9VoPGvvgHmdI5oCxLFv+nAthFGJXiBzugyIkEZ+n+Q0T77wwHzuNHrMiM1clAZvIaCkS3uBIb+7LN56cga8qf0mUrGkzMgerytRZSsWXlnUazHflF0wrTw0LwO/Eza31LNM0s+zQYUH1lUCDdDVAuggzVb8VbgtRCzM4YF5CjJTbTs/4+urs4Y/JjkxYO1zlsEeAsZ3vSpXT2sk1TwHIG4q0hbYPIfjrrYT4QE8fabHjmQRRFZJjOMP3pbQSjvr8Zc1MX68zrttHSeh47U+cOpUdHgd6zLXl/BnPnex+lWe2dhrj5ZdQd6YmzGkQs5tn0lMxU63Pp5958CdXcpMA3p1GkTuh/FGRO4isolvcV/rw3isjqYlLaCNcgKHCHxuzd3NLsyh2q9c2I5PgpW4bGcUu/aW1FFFFfCEn+jM1Dk9yu9I1VtZBEUy0bhYP3sYfhqC03dLGbRU+IV8qsVtgEMv3WgOjsA8gUUuD6Dzd/Q+XH45SSBjkjO5ssLAaYv+G7zi7MFKDhrkoHIUyWt3USBbe7dWKfmTKez+ubPektL2ONuPedKoy+ygdDRMYToDhT7Jha4Jt4DiMx611XLjn8rHd9LCalxUjIiU80GXNYKZy4ifEd0mO/WNMVGO1SqzsJobhjcPfDylw2piygkqP9v9UQCxcsqukquvbujK86V222Gba3ZV3ufZMHkQA4cKmhITF94UOyeg5F+flElZZd2I6rI21iI8dKpFtXOupHQJPDv1+KXlN67ZT95isKXl2tT6ZlirAtaD/xe8NPBUO5Ophlzuejg3y4tQl2jx7RQ0fd5jAX8fDi2dFKyU9tS9IG1dIPgA9kszrVMU7MI9pGCYs/68wJSR89CNG/Fkr3IpdaneP8o7aS3b3d4jG5nKzJ9DhtqrhuPU6nqRYzxIF+HjcZnJxx6JRZpOYL15/GLWR5ekIkAE1aGQQtQHULz3K1Md++PBGtxR0+Hr6vkylSEenKI97+Svd8/4azOhQLJKG3zQQgN0pDoDGQpOyxoPdmHSbHULFBPdrxCgFo1Z4eZ3ZoppcXYRg7P/ZJyiT/wqH7Pojc0IsrcLYjITMr74rhW821lvTSdnD+bKpG8IrphsqXfWNkk7P0WWOYgPBDxKyxr5iPXBO/IImso3TV+57fnARyL0y5dznSDdPKkPeNrsjEK5rNbzHj4EiRsvNPmc1QhCo3hdSoU1ewoqbuWtELXKU5yBUXuXZjDmZ+cyColt5agMQuaoDP7P9OCpotsQRpGWpg86/REv7Dol50EWYwt7Ym6chJXnWWUOWTw5i1pI79YRVUgk7lBLWiYWuTlynrhRh+WwcwQ/gqFXfOSFHK2QObArELowrK6TsjHGAY6SaSjilziSTTG1rIerDGvHZrOpccS+MCQF6NY3E1MhIIDb8JJfJH9FH5YTq6qD6prSByFK8o7OOSm1xEMhIGBrpBxYs8pzcy2Mtv20mInJe9wKP/Z5Qo0DSh+5t+132cXG6ZeXYNyKvsbr69xEAO13bKeYgyG0fm6LrSQZf+LnkDnjYRjTxD+EBrdUXhivbf+WJ1zo10o0yYxu5y/+RvL1Q/h7UMqblAxPnhacQz2E7XRa4MYUT7N2r09GElHFgPkgR/Tnx/1JcJlFbcyu2Gh4QzRON0UNJRqzqqQIU9qM3zZNHXEgFe42aMMuFLzQZhlKszKow+56MV/NuQqCRNV7NLW31CSj+XvFitRWTypO57cCjsTNsxS/Us4BQDyTlThNQTvxYfxWuzhWQknY/zlyB2S/BJ/1X3L1gUndXKDprN+o5IMFvg4lZhq0XvkIv0dGdvgKkSZbrvM9C/w4scO9dIFyszqAN7/ugP44+neEfAg68NMawh0YYUHDQiT4vC/np0YG7PIMy1li3sJsh/+8qoGEdYoh4Ji8F61+aesLOwArztfm1dXwz9h6HddUuxjcVt2cHsDFuIHTrJJfDfUIFlqZcMNeALnTxt5LKgvU2prY5+nm5QugKh0I24XV7ojILXx3BNIe/r18uqyGFCNjHIFlRk2W7SB7OGUzmidbixWSHb/WFY57H4Ip0ieaumRbZoLdjX18cHUe2GCP/xsi+c7Uv7WbwMoqOONusfT1NItCSw+Lw4hXRntwWovkJUiVfE3+uZKgOGbf1/ZqKeWjPJHA9ms4Ozs/R3XNpQz3THsafnIFGUFuIhKVJqYn/35vx+muUd91vYxlrUsdRx83IGY87PO7lG/tbhDqOd35UPQRgME5fokSZtAbjfftEIGH32WWuikSCFad1Z2QR5WRDQh+2APw+6v5AyLozOBMSgn0SZtFmy+v2yjBQ3JqaIdt4lL3DMZHkP+MUuqKcgqhOL0+eihmthtGO5Stmq3txS5ZxZMuTOuAD7OIr9MeNeTIP9SGQviLAr0tnNGrWsFPLOWqPX2bJfPaWvmWBBp/7S5xsbsN01dWbjn1GZ674/k8jvOfwpfLZKSODWn212SYGbHLQLGFimfUBIvQP8meI765W//J7zY8iiFN5jfPh+EDsrQP7aJ4V4bIbL6eGpiNNiDU/RYMpSwKxSjufK9yiCq5SD13r13a19IOuEY6liKZPL9JNC02ZAARwByXEeQBATl1CI1b1j1WIHPbE+gu53hIvJdk+qDXREaEeueDdNnmp7rdEDdWIv9goUk8mpoxeoixUNDAGknuNGFoyk7xS7eIMvJiJzDXVfVIBjUU6UejH2ioZpUk0/QCB1BdDJeF0PJ3MdU9uTvLxe5ElTab6Nz9DVm57XglOdZNXYUlsWhKBaJQhK9ypfHIHSDO6t9VQvWE29FIw4i2u6Z4c88PgYtmZwBe+ZkrPjfcxBC05Omsz8tBsKqMtSJ9r8wdy5FqHXJSyMkrmLrEZ06b2TktCiYhhyaXKF4mUO2waBnxsjG4crJFt9ZzPztGWvyu9LgQW0XptENHpoiizFsjRHKtdpR/MurD7AT3KsKcwkr6QGOIu6rLwR8sA5HRrC/GnqQ6GwaZb93juerTqPbU5t4SGvlMaJlpGqUdpoOuJmev4Bfrvr4xVis93+iBYAkxdf8Dd22u6s/jPSXkyaIyoR1Aj2mV0UphgCWDfAxesjn71ehp8h8vw6hTKmryqIugacafS63RChL8J0mpHXOfQHoTFW1XzvK/M7K9lyZqSghUaoJPTPaEU7Z8B7l+xsIyk9UL5ywHBEpZOyAWLTA658tY2UCFKauKUv3GvLFRSYgzPCqjhPEDyVX4rtCOhSrq8s9dmvmWS4VXR1o8xDqFFHugQbx9DG5vWk+ONr0XFUMB3w6d3rT2EL+Md2VAZVUa4Mn0sqVeXTuhviRUbEyHiPCvcn8RhaO1TelNfzaUMeBd2ac+EG2yq/Kmp8vcKhprYvJQA9ZUrZsx5Peuk0UR238DLGH8yftq/dnM6bMzNDsUTuw9J8NKbM9XEKhZ1XmAI6B8NeMBNaeHfL1QJxuhjl0LQTekWPc7WisSMUTINiZ/PrSBLCtpHzEBs3FMterlcxs7WtFbanj3T+afiiyiLV8ONyC0W4THonUR049qempHPbiCwKhbZyJOdBQXxi/uwtlqWwFr/SDVM/y8IxYA0eW0NWPTloCDiHN0jxyXsYex2v7dNJMVu/SWRyXfdaiza89Hox0B78DVTc6kXjJ2YYmngAKVRXyM0FrxhT+p5UTdGJ8qjGJqPI6vzscjMHmOXK1OY0RRUjJdOiP5VhE1t4MBacXLURbSf5QUUZ62lfrVGs3UQAwQfdxkVQxwxdnCPDeggIA8sxwJTMS5zbWKDbLL3ZyviH8otZpRlGlwceDtXtFVHSmk1iUSGgNX6mISQy7GRG7MkPdjRg4fEYPwQ5Rwkxro9Tk7iV3MSRtqRbUFmRYYhkc93t9t1D5NQ3xthL+RJBhPPMp/6k3gty4mZBDrCQTIUt56bdt5yh8LSi+7yT34A6q11lH/f+/oGzkAbb5chfdQuYH07mmAO9hY3cIYil7AvwnwctDjlHxEPKp+AinP9WcXNMLJNHV20oXP+GXby6OvDs/Eqa6lHnZSnllXQp6kUVxCccxs7hZTxv4JrVZoKW0G5hQ6zgSxNvwCtIf9eSjDMMiC7q5ZBbIJ4LrlKiFM2xP5zn8I/Ml0GXto1zdQmWhJh7M0TqPjEhV0iYLaHzMdRM/cmWC24fm15u+ZuMzNV+TNZJ4MTD4vbvJf19hj7qcSerhbzzcn9QnfX2iCwXGoExPWa6z+GrmjOPIDf89x/EoBtU5UEBgNieOgySw64nMNm/JFx6XND0C2/MuFJH00fFsBmtxp4idyU8UbVpc4VlNyjAEiWUUwYH/mTDYehA2V/guXeKXXIhFaVdpat9i1vKOzCR1PiFosNdDOOHztHCOQ3mOdLYB8VOTckBCNy5vpneQ6PPtcvJ09ZiEtn+bxLNwdNRiFxLnV7zCO/JG9Yk39RIBtVWb1i8jQ28rdqEGPWeoycwdte+kxLI27w90hzQMr6UwC1NsEXeI/y+BPWq80ogShDAZNnM0vT3BjntjTxhvBmgvIr0iXJBpTSOhRfgdH03XrOHanbnx5RYnvTObjGRzx7ecIZTv1vQXy1VaSE4EMGe10e8w5h56S2c3FUXkIzLGyprYyV/JBamCqOhKmR0n/tFh2CQ1g6wn0Y3u6DGCZhPrbPO5oiY7g1VLTLDmmsrRXkiGccy+Fe4HHuWM9FDmXc/47f1XCNPD+2yYX1GPrz3YLPAgIwdOoBT/67NEKbz4xRvmzXiOY+v6EDOKOFyyW6xQWhZCUh1D/R2jnDOWG7oRPMYqNghXn9VYvNDP1U6AJ/TTwdM6dev5eFMDWVbrijEKu031lqKb8YDcdJeIZNu/NbeJkPNpc0FV1d+6c0PA16ot9T/EeBkjXaBKlsYGYpfPFrDDw47sM79xkKXa2JFRDLIdy3vYTBBbhRw/TZdJOX/XzbWE+fA/eVppKzqR360qf4OSEZu25zEzN4b32IY/3TomhEGRfMrnO/gxkprGHsKYCNzTwZk4RpnjpJikLyFNmC6twEReZDKX5q3aNTmOvnmuJAUB6zx8/rhZTWo8o1xNG/yt9L+ptF69UqaOV1W686izWGcUfkzANoE+FnBzBciNJcOqSvUR677UfT+2TDD3963dl1hhcVFjyE7H5umgpylHiPr9j3l7BBdI3hGsr1ZXmpCn76pTV6RnXOLGqf2qx6fuIJstNF8B/rtzZNBq024dr+uE0H8c9Q7OPxoE2p0ojAR5NsH66OzeLQ47O2Hq7BDA5R6sfVGFeEkGUsAC0KXmzkYhQobn2pc8nLgsfYgS4qUpxaHx+3a86yb2hZN+FTf5vclwgj8NbB2J1ArKtbLaILj0K2urOiyEIQqL1k9qzKmJzaQTElSUgVOgO0jLrjGL7CTyNk708gP5YS/tI6vmK2OnK0357rhffSaMRNPQnLUixTf6cCJ1CgS2+Sxo/ZBqz/e6bbrxcc5TCIduhZ5Egf8piAQIgWGYpiyRixygbO8o92wypw//kYpVjw8xOzfZrmbLP+rn2Da5NRPqsJuOPPYbqwq5Csn3y6IgPqkNWBrllkQdwOpCyaRu2DILpyu9A/89jhm80HuGqfyITyvCJu2w0w0K3g+eYCk+8qKaZSWXGYZo6Blm1s2uhLb6/Tcz6emU9NggsBLZaELck05rAQd7lLIFqdWVxV9I/bbTxQLzv5Y7hKYUJ/T7r2l8+QDlW3DP91PqlgigoTOOlvlJ1JK08DznttEkKWQ8H6CSl9NDcCFVNXdDVkFGG2RMNcEcR3R5GfDfq0wf/7HkW9lxTzZJoVNoNT6ROrY7UN7SbfEOW4ywZ6IBvlZmAu2pFc5Ov67KN7a11lVELwBaandcAqZpbJ6m+vfLFldzUemE41B55os5aERYaLsyCq2I1c5N4ipweltxqHJWukXuLoruUtmuPKbJzb6Z8E8gB0JIj3J7/QVmZeSMwjDD0lnijjr7xG/lQvDRURX0zsJpfa33SGqVoF1tbrWYQoIHIUOao1caDO0WdFlr+ar74THfjJi04qSJ3nMfU2IBPSSDja66I1ugy+RNc4axwhY+icJ1DXUxEMEPxpQmXRgyRddDf+xsv5r2wA7ko8JB4OwptKTN9yzWnumci4V7FUxgAQJbVIgQZvajJBsVSoIvQzQzmgYBP2SoWMQxS/3A+zUUHUXcTvY3dkaqHfyh6KurKrqorctfsMK5YWjNAEwViQzu5h4X7o5wsrR72Zu5z7fMjIaKBwU3JKY1XrmN8RuaMzBOVK+WlLZTC/Jioa1nmOqkgQvrxNi49vbgjBWtCMpxt3IhzTuMRYGGH0yWiUr52mzM30rkL0ZrI1InprA8y5PXuc/j+MmZnftYRIBm/N+0wM54NWctEby3FKTNylR1x1oLqAorYRuVqgFqfnk4bI6ek7ge70Ws1LY2ViE4L1Zw5f6cm1xnrLwGq/ns2dhReyjRVOO4rYSbzEzhcM2YlrFGBdIX6Op/BF8IVpjkQXd3V8r71uroxz804de7Y/95ex1W1X8sPNlp0EmUUmTx/IyfptHYX2lnBfAkAaPddPCUlBwN0g8m2wR3jBRiTCky+u5vJODz0KusmyqZA46WIbrad3GzxpPDW4VLoGekc4Ww8a1b3hAQ+NxOxz0Sa4ApPmShtwn10SC5FXQvZEuYJ3K/YqSf8AyUOQ4SVpnWAeV+Mkn8Rnt92VuTz9+a3OdUkDUScZ3h1u2wGnHlNqjR704GK5ui+glfAbGv3j46abT513hk+Dyj2TCFNUdYlSWlEjyyg8vgrKefrhO+iw5lgRJDY533wdyL2duuCTo0g4xKoZeoUuqE9ep7XKi54szHXiSCuI9YsOl4nVmC6I84fkbIRkK21mywTLj+t7sTyANwxrGzm8yZgn0xAWQo1Jr2k2yUibhCNLz/xm2+tLiT43RuTot5QHubab7OztPytPc4rERozis6s+uZ2smQk5Z7k2bDH380JTBFEZBDatun2WSsa58uitUYiQKGoB4KRxKk4F1F9JQ5KB23NFbRsbWZX1vStXkjtlexEyZU1s1fCg2UIDcsgLGpgeuhc01yv9xQZ5MQmhx70vo6+FFhDWZ7Bm+sOtvQxQvHi8wKvK4Y7VAZR889TwzHbdk0xYv3enPryGDoDf9QltW1psTW7QZsaWseLEdmkQRl4x5IUhCNqhufyGTP27pKEMHifII2wOQ16tGu7qNTqiXzhY+nSZr5geLodm1G3sFgGV0S2pP5qkN6Y7enwtAMUg81t6PEHNsO20SMUbtkYcOG4BSxLDZuTstk+lJtsQVk5Fhb38S6Vs3ByzHv6iIbryBiZbuLH8qd9OZdnk8cCvWz/7P0A1R9mhmz6bmH4rGP3/qKIzDbT/oZf8Pei1VBe3IBy1HCBosHcaVdGwffGmK4+QKWFNxY/KDT9ERl4fXzCH6AaY5kdApvUE3iN4pjHsDh6W7/7nxmht8IhKaAqA/z/LMG855v0I04JAAv8I5GFPtYux8aMnd3Fkh9xdZFiRcpMUjcDr1S4hugG2C8Kl13ToEjmA8Y4yDIFxSMzVtTusjovV4wCe0Bcm7BjK1bai0NPWnswWXHqpTw/iX/ltrw9wUUfLyMtoJ1cwqAX9s09onKew2Zxn0068jC2ccq9uuHCZj5wPRc6tMd32mR+a6OWbnD0eVI684iy7AsI7+ROp8CRRglzL12Fi90hm7YH0E/RVxaMB4Repue2G9bjKG6dFz2K04hoHMn/IQMICQLslPNh7yzDtwsDHzIr64KmHgbCT29MA0D0fT37/UIy1qvc1BFO5nQxN9SPFHc69xuvBnunOzUJYM9Bcl0VU3qThSIDF1UTk1aMrAQubIh/Q0vLzFtitOQ5tRcBDI96V4vU9kl//0qxSyR7VmiHMsRkAegL1zPE9eAE37eDwbeY0BEScXMaEiwO4E3VabpCkz5WN7XzH5QbC8oec+b3y3QhZFZT6vskJ/FNdoOjxqX26Iplu0D4DsOviLdKcR3RKt6hojDvPW+cOkKKZsU2rV1K5z4ketvEEb+UDO3IoBzhMfBjYSCNAf3h0er6oQsMf02Tb0lAfGZSZoBNWi2p0r8tBMwvRpM9waxLPkg5pz60ionhIwKVHTJ8tTwmCc2BHWyzM8Rfu8WQxKyH4UTFICOIY2X/HoZdYRQlgWbjOaSyWHXiB1uIt5G2SEDQmfkse+4f+UmOgEv4eHw6eMIq3j4fyT689s1Kh7RlE/y7VCxD6LcJYFOphpbja0f5HsYhO0CtwH6GiwnjKudxJNyKHblNeuoR9lzbepoFLGOqI0EJhHTn8DEW/kshguBmk/VwjNlQ2CIQXWVNLK/Gsg/jbO/wQRlvUF5XQ9mNvOqjPutoOEGwqd9utHgMDOt3Ak8IlcBKYYUhr3JFDWusqoTxthZvSKD1QBhK4idh0vy7MhiF0P0FGVx0VNFelQL2cD52CVxOkYI90zupHzZHScalrqcgs/guws3U1H8EMmk57A7hnfhtGqv93RdOyfvbin4jDJWHZjRd4RW0+C4GQhcNGN7GzG02vH560mhEB4H2k1+PWWurh+eDNRQ+jcQsQcuoVZdunN7AuARHWK59cqMeIGLVXn4rSTsg5VY91rxhcYe8eOhkYYnTiePwLGHGlX8htgDapULJMurAz7Lqwb+EcLJHE6TpKzXgiIdBUs6o/auMUAWNwQf0XPlnc5/yFbc2HZ2hHs0x/56X45MqwbpVDx8H3wOOw65Q9fapdc9lzzN4PaxHIYrD6DCKTdKvvjREiaybMURqtvmZfujANe37Tstekf5WMVfBV03QAbB027aJWTy7Iwaf3FQwr300Iv5GIRYf1ie4N63sHWQwfGzia6Su459b7r83RU/Wx7hK09pgQr32qeTWs5jFVOdzbiare6/MucbVC2rDAHXIbHSO+LcF/RD/NZewL3LqFNitxOEOdB+TyuT0r06VmeHHNCtUJD65QNyhkxF84mQB7UceytwP7bnoxoGxGrGDXRViWW9/Odmw5NT3bScj9lLDgNnlPIf14ScfWeceD42Nde43Oav+G8kknAGUp00kodHPNpvHlXLmGQk8M9ol7dHc4lEltKBfMsL/6cjXtoezW2FWTadRzfxBIeb5ob+g5BEtS+FfkCxc8ELPi3hz+cjmWRSmNyS1hKuVwBrz1lgfK3WHn2EwAVbNpv3Y19m2CvXKbNaYmx/un9TUGO/SfFB3qznXLwxXg+xBH8WKoZg1Qf0I+5VMnc2USltN744kPIMyycHilkfbSTqgrqCY/0TEXLwLJXMDMMMYsDbU2ruLBPPt25fdJhpNjWSWbvcfqeSnt0+sq7I9qpZm2blhJDx3RvgybUTclPou1aW7Cuq72qsRoiMEy8WpxvZNE15dxhPWl9sbR+SzFq+y8Xy6/FOrf0c5tiKo/rB9aNr03bvf+1xFz5glwQXZWqC125m02lfxP+a/ewmqpe0wkj5hGRshyKGA1xSI1Nycxy1alq6wxmUNdUQVVm7TaWFGGlSs92qE7WMIsvdEa7R+a4Nm+0CLH2MpqHSkgXJ0HtmQU6j9GbRWG72pNIiTOY8K5jI0Pae4MeOT/3X7iWaX4TVZdEQOoQkQaTuPNEckf2nJHLhswnk3Viw4Sr/RyWFs8UXXS/BnU4juZTEKmIlhVr8jMxYP6I7U+eSnTwUdfb56ImPrKxvcgiS28ApugcxUnOTyHKZM1jyMXsHVrz+GXuJnwAGDfUz+dGbNo6ACGw/CtCaCysdUpOExMQ5kcensqr+oA17FtV5xUgVuKYocF//yeraVja9qWeQto68NPTs/ffl8Tv/aObr5eBpEE1sz/Ug9PvIZd4z31PJSGbHkd0VDhnQhBi52n9M5emxTLRsC8QGsJGHJr1o7dzkHliSKkAbDBI321DCZEVg+t/EYJKlU1PgDE4jqAoQWtOMKl/I4BFZjCPPyx5F37aGGNkzmr/11MxPcbETlifJdhhrOlIDUMPici6+4ID6TlIKaSawltmxLdppYK6ucAFda5UYDWkgb0i7TaVywhUOVHRP+BpuCdvd0WL5mJzmyq7c233If2UIx32nvDQFjUi+S6+PCdy65d90R33wQX4A7/sWePPwuTLsV2wSf54cPx/K8MyK2wSAt/vuuMcOBWPyyInJ8/lh2GT/BL2qOFy/Gc6NURmhBSDr/aOZDtfa2dcCXk0T+n3FPMNro69J2xTHAnGPwaQOOOmBqYh6shpJj+HG8pibAKzK/xWAXYjRiFLy74WMqe0PMv64Z2R91FYZIhPKRmQmO5yz7oFP3POrR//pkCnZn/ND1oyS1V3J/+a9ScNTH+tdf3yH3ld1z7SMRJ85mAc2E740Zz7c4aX/FbANS0IG0dh5U5VANUJznkY6mmRC29RMZY30kwMYNcWzjKlbOlz2ewn7+FfwthXP4ZSbeefTT9NmKedaQhfI7s5/iVsLFRiEtsa6UXBVx0JbqIwl4OnEMoayMxoBeqfT9bgPSYB+5cxTUFmUXbDqWDaQMIaaQwdjvfsfeBkwQdDeAotEOXO9DWfcQZWxkHodmQw7VawdZfs3/Rd7VmPH6uHA4bvG93HhehX0AWE4iSixbXZ/dn2nkF3TpWLHTw9l19XgewYXyq+bt6hK80BNtyQNv00U/Z1e1l1C7XgL+8ZUfQlMyeoeXK+0okN2oNw0DJtLMDHwGaQou9Uo717mPBWgbMXew/T5LXL/Z+zbOlnP4XB8GPL8CtpNWT2E18tDWQJh9wkRb7pn2Ql/p73MymkKV/df0hjCLaV43703PT8RnguXBHOuOd51eOdyrP6QIUA1ZxITc7K38DnESIURv6fcE4Fm+aMCXqY7HXjRAieOibOtHJlDFX6nQg2lakN1xURfP1C/O7u/C5UoXts+E959lfdDbT2U41a8FYTxjbdmolCrlYmynmIwXyayFFKVncL2VGRplZ3+KOJzOIbzTnVHKiLsHOpYCUWnmh5Nk4z/fcZdemyXQemRB+JtbTN6MqaqCIAtmjKOOQXymzk1uuvqcViRLrEORZSMhLpGDzUcY3R+KOsMY8mILVxSBkFtwmF1m/gu1Kyf/cc7cEhkBXcxi44e6erN/JnjnCkBGBqD0WTm21PKap04FvsvC44J7NyaTQWRQmNByv9QtFWIUiSy+13TrtNlwEhZHY4rP0KQIzUZVBUed5trFEazIcSU12MdQRPiXS82fL5bjZ/soozdSnc1JPvIX2HEmrwFkYsoW98eEi1KZa3/wRrn4gjQUKEwPFZoOMkdSbJ/wCCfPMWKSMmPQBmdAqiyywMj8Ctbj2tNz0PrsSD5N8bkb9XKM/r6jbqAt1IgzBhTtIJz9zf1FolHyBWLYZfGYRCRDdqqCuD3+QqFKcr/6jaP5Fs/G/xCoObkBJNiWfBpGgaHqy6+etFoS0np4+96FuApghlKFRI9lkaLfc/Hphjsqg3O304hhHB6Dw/VlQ3SqZOnyPpizRf3KO2EtoctDYUxLd3i44ePK+v7FNntCXT85jkufhvMkV/g8agIQbH+brBK7gxPgAsxEmrZStRQWPVvIU2hI7cROz9JhWmubgwuFUs+6Crcdo3ao1V18IZgzXI8lYjGdYj7KdFF5gNwMzDUoCv2eaGiKCawicSjQe/S1P9ykt1Wi65evLd+eaPfRbXKbfsSQNm6FihlNQEzNuncOqJut5RNMAk7k/oYFkYF7CcslDrTZGRk5IPcAyBlVzogzJU6OZqdc9fWSWZ95Ke42xK7CtWZjRwD+b3zlENxtx2tZymqOYpQ5bQxDkI0OzHu1p90s0M6GRzSARiXG0D3yZNEWZAzbjPQzhNEHGWAaIPeqLRVYOHv7OPoJKD6UrJYb+LZ/ywRrybk042arayRNQi7WHO/6VOvp0/8eGBkHXQsARc7UQZ/yZVr+gxBQ/fMnNfAXHF+iPcqy43MfGVmMEeEmL6x+ec+U07TMyOXEV0A481kH7brz0XQzBK0O8dYDwrl3vEEc74TRsULpdkSozxssO4bgw96Q1X89nZygdX1Wxh6LCvU+H8a1NIGFDdFOSAPuiPa+IZ+BbXvQQjUyMTKQzQToRzfnpaINpdcJ64E9LRe9Scy1WuPr0lxwIvUspbhM89iFdI9YH3SaaEEy9Fa4O0d7dV7UlDOvXmY8QLqRRXhWS0NrtB7udz416ksXbf+34N+uWDDqVTp9TUMJaV9HaYRjThkU452HB4hrnn7ypsCCQ1dJEYYF//dvgRkr0ydBnj8s2MzFSfdBb/TsSIDqAfI/aYDpaSa4+3nBovvwPs+VL75wJSa1Lg642G5A+GKtPxVipsDpc45W9kMRT2fHnm24QES+dnQf88W9Cj9Z57LakEQhMVLe9+JewKBz68tvaUMwntuRAOOiu2VTZn28DU8UYtWtWV70lE1TiZxTp2xHxdWk/7UXSRkwIx82FqyCeQQ97U0+YZbQkxyU3c02FRgLydW19e/8ncLE0VycFCfrldKhuErPvcFnoXFV39GAmjSX/7AL8WHFl3sdq9l+/y0X9jWo3tb19SVAWOj26E2nohWb/POtGLRxdEGb/RzXr+9AeBN5vPgUdlIosYnPMuoZNmSSfF7nHHew1LeVi9WzYqW+1FeB5AEmlYFrMR2Li+CwZxLM/yrdgNsnUmL0oJp+h+CApe59EQZNoQtOjG3BkOgrhgMVeLpljJaMcJdXd;" vertex="1" parent="1">
          <mxGeometry x="1439.22" y="233" width="57" height="57" as="geometry" />
        </mxCell>
        <mxCell id="shK0o6eYTKU5Cj1UoSUi-34" value="" style="shape=image;verticalLabelPosition=bottom;labelBackgroundColor=default;verticalAlign=top;aspect=fixed;imageAspect=0;image=data:image/jpeg,/9j/4AAQSkZJRgABAQAAAQABAAD/2wCEAAoHCBYSEhgWFRYYGRgaGRoYGhgaGBkaGhwYHBoaGRwcGhkeIS4lHB4rHxwYJjgmLC8xNTU1GiQ7QDszPy40NTEBDAwMEA8QHxISHzQnJCw1ND02NDQ0NjQ1NDQ1NDQ0NDY0NDY0NDQ0NDQ0NDQ0NDQxNDQ0NDQ0NDE0NDQ0NDQ0NP/AABEIAL0BCwMBIgACEQEDEQH/xAAcAAABBQEBAQAAAAAAAAAAAAAAAQQFBgcDAgj/xABIEAACAQIDBAcEBQgIBgMAAAABAgADEQQSIQUxQVEGEyJhcYGRBzKxwRRCkqHRFyNSU1RicuEVFjM1Y6Ky8DRzgpOjwiQlQ//EABoBAAIDAQEAAAAAAAAAAAAAAAACAQMEBQb/xAArEQADAAIBAwIHAAEFAAAAAAAAAQIDERIEITFBUQUTFCIyYXHBI1KBobH/2gAMAwEAAhEDEQA/ANmhCEACEIQAIQhAAhCEACEIQAIQhAAhCEACEIQAIQhAAhCEACEIQAIQhAAhCEACEIQAIQhAAhCEACEIQAIRLwvAAgYl5HbexT0cLVqU1VnRGYBtAbam/leCWwfYkrwlf6MdIUxlNCezVyguhFiGGjEfpC/LdcSwAyWnL0xZpUtoWEISBghEJiEwA9RJH0dpo1U0gGDAEm6kCw5HjH4kJ7Ja15PUIQkkBCEQmACwnJKqtuYHwN/hOl4ALCEIAEIQgAQjOtWCkgsB5xxSJI1gB0hCEACEIQA8wvIPpfjHo4R3ptle6gNyuwEieh+16zu1Ks+c2LBrAEWNiO+WLFTl0ims8zah+WXOLEEWVlwQhCAHmRm2sU9KmGS28XBF7389JJxntLBCsmUkjUG4kzra2Jabl8fJEYXpCzGzUzuvdWv9xtO+0MT9Jwlbqw2bIwAIsb23DnG39AsgbKykkWF9DJvBYbq6apyH3yynKacmfHORpzZnWwdjYp6YZMqqDnQsTmzb7pbUBtxvoZoGycaK1NWtZtzDkw0Yet5VNvPicO/U4cHJULMpUXZSTd1B3KLknzPKSnRDZVfDo3XODnObLckhuJLcbyzK+c8m1+hMC4VwSf7LRCEJmNxxrLcbyO8GxEY7NYupZmJa5UXy2A4aACOdoZurbL72U20vGHR1mZGLCy30Fra8TAjfc77PwtVCxqMr3N1IXK3/AFa29I4bFKGC313btLxwxtI8YdzUzEgre4iPaXYdab2ySEWIIscUSV3pViEKpQdmVaxZbqSpNhfKGG74yxRltDALWADAXU5lJHutuuPK8la33ApGCGGro+Cw1SpSaiEKupOhR/eDBhn1NmJ35pe8G96aknMcouw4kaE+olbwfRPK1QsUTrAVLUlKuQeNzuPhLB9FSnSVPdRFAGuWwUWFyJNtAPYsYbPqi2UNmsWt2sxtfTXzEfRE9gEbYutkXyjkyG22x0HM/KJkrjLYHr6Veln3nUee4X0jnZuJzoD5eY0kLh/cfldD8ZIbE/s1/ib4ynHldUBMwnnMJ6moAhCIYAUb2lY/LSSiDq5zMOOVd33/AAkT0cxgpVkduICsf4ha/rJzpj0afEnPTILcQx4AW7Plf1kbsnZZ+lBHQlRmBuDbRbDXx4906GKsfyXPrpnJ6mMnz5pI0Nd09ThhqYRVW5NhYEm5PjO95zzqrwLCEIEniUH2hdJXwz0qdMqLgs19bgaBSBqBxvL+ZmXS3opWr4l6ysCDawIOgAt72sS+Wuxq6JYnlTyvsWToXtx8bSZmUqFIW5NwTa5Ct9YDvHrHu1caQ4VSRl1JHPlOHQ/Zr4bApTYBXAY23gFmLAX4743xOGdG7YO/fwPnKszpStA1Dy1rsvQe0NsEWDre9hdd+vdxk6srWx6HWVMx1VN3Iufwj+ltZncinTLpnyZ1ZdCNGuDroY+HlU7ZnyuZrSJieWawuZ6BjLaqFqFQLvym3peWN6WyF5OVTbFIMFzXubXG4eJ8p1obQpu2RWBa17Dl3TOMPVqutgAo/wB85N9HNmN1yvqct7nW2vfxmOOoqr1o01gmZ3suOJCsjBtxFj4H4SL2ZRxBbt4hWpjcOrHWMvDO5Nie8KLyv+0HaGJwr0atN7UiGRwVBXPcFC191xmF7jdH/Qna9fFIWqU1VBYK4uMx42U8O+btGPffRbRCEWQMJGG1cQ1OmWW2a4Av3mP5CdIqbsKYRSwz3a3AAGV5XSh8fI+NJ0t+Brh9q1S6KQCCbN2beliZMbTXNRcWv2Tpa9/KVVdl4hWLKBvuBbX4y4daBlB0LfG0o6eqcvmXdQoTXAr/AEZYMxORlsttUK7z4Szzmzgb9PGe7zRKSWjO3vuKY3r4YPvjiBjNJ9mQMF2coBAO+dcPhggsD93OexX9Oc8YogjKTa4Pj3mQoS8ICM+lYgsR9GTJmtmGIS9r78uTTwvJuna2kqmGwYFVStRGAa9gxB0lhwZcXDEHtNa36P1fO0YB7CEIAc2jbEYlEOpGY6D+Z4TxisQwdUVGbMDd7gKo7zxPdGnUrR7bsGbgSbKvhfu4+kWuW1pA9JbY9p3YAvob6DdrzjuVw4N8VURyzqiNmG9cxG6w3hfHfLENI7WhIp1va7HSESLIHEMS09RpWrEEiAHuvWVBdj/vzkQdpZnAI7PLmDp6d/xnvaZLJmP1d/gd/pIkrb/Z17+/7z4TNlp8tF0StbLHUCU6TFQAoVm03bpXOhyn6Ohvq7s53cWjipWY0WpFgucFAeRbS9vlPGxuj1TD1EJcFV32J1sOXjNeG5rG+/cx5pucq0totYg0Fg0UuGJoUWcnKhYGx3XB75Bba6SthqqoKQChgHYn6p3FQO6+vdIfaObDYwkAMS+cAA635jna8sO09mpjqKuujFdL8Rvyty148DMit1tJaaGxXPL71tEtTq0666FXXxDDmPlOGzMc1V6qmi1NUfKrNYBxa5IHAXlS2Bsivh8Uo7Soc2ZSOyVseI7J4cjLwzZSDfebW/CX46dLutDZZma+x7THIixAYssKxJ4M9yD6SIzU+znFu0WRgLcDmHEWiXXGWxpnlSRJ0cSj3ysGykq1iDZhvBtuOo9ZHbVrlai24C/3yJ6P4NlYqtRglw7HQs7DdqfdHPwkhtlW6wGxtl5Tn9Xkp4OUrvtF8Y0snFiV8eagClQNb7+PCT6Ss4ZLuotvYenGWcCL8NvJe6sjPMy0pFJkZtHHdUhc8NAOZ4C8f1dxlS6TO5ZRZsii9+BadUzklsfG0qrkqpV7XZdbX/StuPjbjJPFYdWZWI1AIB5X3+Miuj2C6umCR2nsT3DgJYG3QAgqex1DBizGxvbT5SWpDtTmmIBawYX5R2IALOdaqFBJ3Ce412jSD02B5QXkWm0toTC4tKl8s9DDKNSMx5nU/wApXsDUNOpbylmBut+6NU8X2EiufZldodKEqPUVEfNTNiLKM2/cSe6SexdqfSUYmmyFGylWIOtgwsRv7JU+cyrH41qRxjq+VusSwBsx7TX03kWtLh7McU1XD1HYkk1OJJNgAL346iUzTb0zpdR08RHKX7F6hEEWWGIIyxS9rxEezw6A7xeADCmVLWNtbi1+fCQm0MHVw9ygzpv3gMvjfS3feS+K2hTpOqMFXNqGNgB8wZBe0LaYTB5VIPWnL3FR2m8iPjK7U0i3BNO0l6jrAbEv+cxDX4hAeyOOrD3vLSSGCeoa7EuvVMvYp5LMCN5L31B5WlY6GYWpTweZncrVIyU2YkKmpzC+oLctwFtJa8Al3P7ot6y3HCmN6KM9NZuG96JQQMAIGQMM8fWWnTZ2FwqljzsBuHfKbsLEYjF4lXUumGVmNgQF7kIBuTrrLJtrBtifzTdmjYM7aXbW4VRw3amOtm0qKKFpZLAA9m2otoTbee+I13EctvfoOXqBbAnUmwEi9tYTEVGQ4eoiZb5s6lgSd0abdqsldW1sFBXlcNr52IkvhazVLG65eQJufHlM0dSqyPG/KZoeNzKr3HqDQT3EBizYVCSL2lhKtU5Q6rTIswy3c662N7bu6Sc4YhstjuF9SOAi0tolPXdEYdhAWanUdHGma+YEciG3yTpqVQZmzEDVjYXPO26c6mIFrBhm0HO3Mxht3FdXQJ1NyBw3cpXSmJbSJTq3ryyVCLcEAeM7SE6OVSyE3OW9gDwk3GxNVKpLWyKTT0wnKpQVhqJ1Ma4nFCn7xAubDiT5Swg7JTCziz3Y8hp58Z1WoDx13242kHizVJNnVKYuS+9jrygu4euiRr4haYuxt+HjHdFwy3G46g8xwMgMVhfpdCwuCCMrNcX537jJXZOGNKkqFi2XS9reQ7hIWmtktNdmSE8MtxYz0ISSCt7UwLB7qpII++TeCBCLm32nYtK3X6WojshRuyxW+m8G26WJVk7JGenGF8qetj3aexqdUoSiXWor3ZQdBe9vUSQw2GWmLKAJm21toYjGVSKOYNoFUMQB5jj3yf6PNjA4p1G0QKXz6m37p4yXh4+X3J+o5Jdt7ekXQRYgiyovEiExZB7b7fYNTIN+lrmU58vy55DTPJ6I3aGCw74l3rvbsoRd8oNrq2m/gvrHWDpYbE0OrYJURWZVzajLfS1+60i32PTa2asTbcSQfnFTZSKLCuQO4gfOcv6ulW1KNzlOUtvt/wBE9iGUuoW2VF0tu5aeUc7NIyk3FySSPhK2uzlGoxDfa/nFTAhSCMQ1xqO0N/eLzS/iO0loxLpdU62XKBnDBuWQEm/fzhi3KozLqQpIHeBpN01ylUK+xzxtZFU53CDnmykX7+EidnYnD0M+V0yE3L5r3Y8CeJlExtPrnNR6zFjxvYeQ4Tn/AEeN3XPz97jz3zJk6hbTTK/m67GhbSxmHrIR1qZhqpB1zcPWNsDjKVMqwqouYWdC248wLSi/0cP1z/a/nA7PH65/tfzlLqHat62Hz6U8TXaNZXF1II5g3nUTNOjJahiECVCwdgpQm4IJ1t3gazSxN+LIrnZM1yWzlVqqoJJAA3kkADxJkUdt0ahamlRWYGzBQTlHO+6Ur2nYh3qrRZ2WllDADQM1yDc8baad8puCdqAYUsS6ZveysBebYwcp2Z76jhWjYsVikornZ1VRvZrgDx0uY0qdIMDUTLUrowvfQMB8JkVagrm713Y82ct8TPH0NP1jfaj/AEia0xH1bT3JtmyNqYO2ShVTQ3sWINz/ABWvJ0GfOy4JNLVG7jmmz9CsU9XBo1RixuyhiNSo0B7+OvdKsmFY128FuPO8je/JYjIvaG0KdMElgSu4DU35d0YdNsY9HCM1NspJCluKg3ue7gL98zHZuIbDlsrklzc5iN/zmasiils6nT9FWeHUs0bYu0QGZqj2J1F92/W58xHeI27giWDVkvuYXI175mVfHVXuBWKA7wqqLjzEi3wFySajkk3JvxiXnlv7TXh+FUl/qV3/AEbFR27giQq10udAA5k1RdSOyQRzBv8AfMC/o4frH8L7/vl49m1V0qNRDlqYQtlP1TfeLbrwjLyehOq+HrHDtN9vc0uc6lQAEkgAakncB3z0DMP6Q7RxGLrF2rFFBKqikgKAbHjqbjfLjmIv6nGHHl86Gha4AfQpxIUakjmdNZI7QwOGxDKzVEFr3ysozeJ8ZjX0ar+0P9o/jF+j1f2h/tH8YTTT3JOVTkSVLsja8FhcJRbMhphrWvnUm3iTJRCrdoWII0YG4t4iYB1FX9of7TfjJLo/jsRha6utZnFwCjElWBIuLX0N+MHTb2xFEytT2N0EWeENwD3T3Ak8yI25RBCtYXFx5GSxkdtr3B4/KZOtW8Ffwsw/miAWgovoNTfdPXVryHpPc6ph2YZgpI56TykzdPUps6lVM+Rv1a8h6TzTwy3Og1OunwnZltvi0hdl/iHxEmOXNJ+5Fa4ss1CmFUKBYAADynRogiz2UpKUjkeTM9s4BFq1KYFlDaac7NG2Qch6SX6Ri2Kf/p/0icsJs/Mmd2CJfQne3co4zy+WbrLSXo2Z3P3Mjcg5D0iVKCspFhr3SYFDDnc1UaFs+UEWva5A4XjfG4A07MCHQ+6w3Hx5GJWK5XJPf8By0P8AohhENYtlF0Ts6fpXHwv6y8So9Cx2qp7kH3vLbO/8O38hNl0eCie1bDK2ER7DMtRQD+618w8CQPSZLabN7Tlvs5z+i9M/+RR85jU9B0j+w5nV9rCJFEl8R0erJhVxTZera1gD2gCbAkTQ6ldmZ1NPbRDhZ9F7Pw60qSIoChVCgDdoJ880Fu6jm6j1In0esxdW+6Ru6JeWNdp4Va1F6bC6shUjuImJtTBIJ4a+ZE3Z90w+qLMw/eYf5jOR1fhM9V8Gf5T/AA827olo62fgKmIfLTXMbX7gOZMebS6PYjDpmdezzUhreMyqKa2kdis+ObUU0mQz0wSCfqm48bTSPZ7hVWg7gDMzEE8wALDw1Mzuad0DW2DHezH/ADW+Uu6b8jB8WesP/JZSJiHtGwC0doOF0FRVqkcAzXDW81v5mbhMg9rK2xqHnQX7qj/jNzPOIo4EJ6poWYKoJYkAAakk7gB3xVpMzBAO0TlA5te1oDHgiWP2fYFK2Ppq4uEDPbmVHZvz1+Ur1RCrFWBBBIIO8EbwZcvZWl8cT+jSc+pQfOBDNjiwhJFEkVt7+yvyYSVkZtwXoN5fETP1K3hpfpj4/wAkQtFc5AHH4ySxeKKIFy5TpccLeMjNk1stQCw1va/OSOPwzsczWtoAAb2ubcpwenmpw1Ubb/wbMrTtKvB6xbrVUZRdh3EWHGMcMO2v8Q+MksJSaj7xGU7+484zpENXBG4m/wAY2XHuoquzbW1/kWK0qS8FhEUwEUz0ZiKF0hW+OK/phPvFvlHmMwLVnYBsqoQiLlY33AnTdrxjPpc2TFq44Ih9GaPK20Gp3qIAUq2bNxVrdpb8NZwqUc75e/cr0tvYzpuFtRBOZSwZSB223ZFbcBc6XnXCUx26GbMGQvbfkddbX5xtVp0mYPnyjeVsSedr8T37+et44oqlJalZbhWUrTDAg3IsbXNyBzlMefTS/wDBUP8AoYNKp71HoCfnLUJWehg/Nv8AxD/SJZp2OhWsCLZ8FV9oyX2bX7sh9KiGYvQptUYKiszHcqqWOm/QTcendPNs3Ej/AAyfQg/KY30bfLi6Xe9vVWHznZ6Z6hmDqp3a/ZJ4LZnUUTXq0esO40XpVlZVG989rLx1Om6W6rs6jjNklqKlMoZlTOSqup1W2605dJmK4PEE5vcC6kfWqBfnHHRpKNPB0qFRVZ6iVa6hlBygDeL7uEWqbSr9kxKTc+mjNdmLmr0hzqUx61Fn0Ss+fujy5sZhx/j0/wDWs+ghI6p7pDdGtJiNMSxKnr6icetcD/uMPnNuMxPbC5cXWG786+vcWvunM6lbSPRfCq1dL9Fv2Fh6uCNUIgqOyq1OxADZbZlvfQgG/fJXaW0KjpUXqgysmUMrhr1j2SndY6eUqdEUcI9NxXdywzdlTlVWBGYjNdiDY5eNpIbd2vh6+ROtfKTcsisire5uwJ7RJse6RNJTrwTeG7y8tN79dP0K9tTZjYZkVmDFlDG3A31F762mjdCFtgaffmPq7TONqYNaL5UqB9BchbAE8N+uhmmdEBbA0f4b+pJi4EubLviLb6eNve37a9ybEyX2vLbFUG50nHo4PzmtTLPbInbwrfu1R99MzWzhojvZ5sbPWTEuyKlNyFDEAu4U+7c/V3+UsH9EYOntJKWVe0vXqMhJvcvmNTN7twx0FuEzPB4l1emUbtI10ubqpJ10Y5bG5BB0INjNQo7YwlLCrhXqUlc0mGUO70lJ7XVmrvCXNgCSbC19IDLS7sgOn2xUNSpiaNVHGZetQFSULABW0+qdPWe/ZKt8ZVPKj8WQfKU3GVnao7M4LMSGKkZGHIW0yiwt4CXj2RJ+frnlTUerX+UhB6GrwhCMKJInbWIQIULqHZbqpIzEKQSQOO6S0oXS/wDvPC2F/wA1VFha+oa5ueAGtpVmW8dfwaPyQoNo/p45mXKzHT77RhC/KeTV3KaltHV4p+USlXEswsWuOUMJUVWDsQqrdiSbAC28nlGtKrffvjPb5/8AiVrC/YI0toLjXWNgqrzzybfcS1Mw9IvFGqrqGUhlIBBGoINrEHlOrSF6Hf3fhv8Akp/pHCTZnrjlme9LMQlWqr02VlylcykEZlY3B7xcesYYHaT0bgWZDvRtVP4SH2UPzR0066t2tLE/myRz003846nm+rpxnenoob+4n12lS95cOl+8ki/hGmLxbVWBY7tw3ADkBI5HtHCtfdMl5bpab7ENstfRPFIq5GZQ7uxVSRmYKq3IHdr6S0iZdsz+88FdbdmtY6dq4fdxFiLTUBPTdGtYJ/hdPgr3TLFIuErU2ZQ9SjVCKTqxVCTaYUjkEMDYixBBtY8xyM1b2jgnE4QAXNq4Ava91UHXwMyVNw8BOv0vhow9X+SH1TaFV1yvUdlNrhmJBtqNJ7G0audXztnVMiniEsRlHdYmMLT2pmtSta0Y3T87JfouVGOw5YgKtQMSdwCgsSfszeMJiUqorowZWF1YbiJ8/bLB63QXOSrxtoKNQk37hrbjNo6Cf3bhv4P/AGaYer/JHQ6P8WTWKrpTQu7BVUXZibAAcTMZ6QlWxdZlIKs2YEbiGVSCO7WaZ06H/wBbif8Aln4iZRib3W4I/N0zYm+nVqAfO05vUr7Tv/C3/qv+HNGtO8bT2j2mF6PRS9djtNX6KYlDhqdNWUslNM6g6rmUEXHDfMnJ0PLf6a/z8pcvZ+D9MxQIIISiLE33IttfCx85p6Xyzk/GX9kr9mh3mY+2Fgy4cgglXdSAQSCVBseR0mmmYT0u/tsXof8Ai73tp7jra/A/hNjOAVoGdVnGela0UY6TRvZIVU4gsQL9UouQLk5zYczM5BvJzo779HQ/8XT1tpojaXH1rm/heSgfg3yEIRhRJB7T2CK+KpYguR1aOmW2hzgre/mZOQkNJrTAgD0e/f8Auif1f/f+6WCEyfQ4PYt+dfuV/wDq/wDv/dFxPR/rKT0y/voVvYXF7a9+6T8JM9FhmlSXdEPLbWmxlsnA/R6FOiCWFNFTMdL5Ra9o9IiwmsrKdh+hapSyCo1+tercgfXyjLbuCiH9S/8AFP2RLhCZsnS4slcqXcjiin/1M/xf8oijoaR/+p+yJb4RPocHsRxRWaHRcJiMPWzm9Fai2sLNnJN+615ZQIsJqmVKUrwTohdsbBTFVqFVmYGiXsBazB1sbypH2WU+GIqAcBlU2HAXmjwlk3U+GLWOb8ozj8llP9of7KfhD8llP9of7KfhNHhH+ffuJ9Pj9ih7N9nVOixY1qjXR0sQotnRkJ3bwGMtmxNnDC4dKIYsEXLmNrnUm5t4yQhK6qqe2x4hStIj9t7OGKw9SgWKiohXMN4vxlZxnQNXKEVWXLTRD2Qb5VC37pdoRKlUtMux5axvlL0yg/k7H68/ZEPydj9efsiX6EX5Uexo+uz/AO4oI9no1/Pty90Sw7J2AuGxFasrMTVCDKbWXKoXf5CTsJMwp8FWXPky65vehLShbX6BtX+kkVVBq11rJdTZbKwKtrr7xl/hHKTJPyV1/wBfT+w34w/JXX/X0/sN+M1qEAMlHssxH6+n9hvxk1svoC9JKYaspZMSK5spsVFMJlGu+4vfvmgwkaASLCEkAhCEACEIQAIQhAAhCEACEIQAIQhAAhCEACEIQAIQhAAhCEACEIQAIQhAAhCEACEIQAIQhAAhCEACEIQA/9k=;" vertex="1" parent="1">
          <mxGeometry x="1435.94" y="291.88" width="63.57" height="45" as="geometry" />
        </mxCell>
        <mxCell id="shK0o6eYTKU5Cj1UoSUi-35" value="" style="shape=image;verticalLabelPosition=bottom;labelBackgroundColor=default;verticalAlign=top;aspect=fixed;imageAspect=0;image=data:image/jpeg,/9j/4AAQSkZJRgABAQAAAQABAAD/2wCEAAkGBxASEhUSEhMWFhUVFxUXFRYXFRcWFRkXFRYWFhUVFxYYHSggGBolHhUVITEhJSkrLi8uGB8zODMtNygtLisBCgoKDg0OGxAQGi0lICUrLS8tLS0tLS0tLS8tLS0tLS0rLy0tLS0vLS0tLS0tLS0tLS0tLS0tLS0tLS0tLS0tLf/AABEIAOEA4QMBIgACEQEDEQH/xAAbAAEAAgMBAQAAAAAAAAAAAAAAAQUCAwQGB//EAEIQAAEDAgMDCAgDBgYDAQAAAAEAAgMEEQUSITFBUQYTImFxgbHwFDIzQlJykaFik9EjVLLB4fEVQ1NjgpI1c6IH/8QAGgEBAAIDAQAAAAAAAAAAAAAAAAECAwQFBv/EADIRAAICAAMFCAIBBAMBAAAAAAABAhESITEDQVFhcRMygZGhwdHwIrFCBHKS8VLC4SP/2gAMAwEAAhEDEQA/APrqIi2jUChpusSUagozREQBERAERYkoDJFhZSCgMlKhSgR8srvaP+Z3iVoW+u9o/wCZ3iVoXcWiPGz7z6sIiIVJRb4o7anb5G7v13WWh5FzbYoUrLONLMhERSVCIiAKUWxjOq5OwfzKN0SlZrULa4WNnC31/XYtThZEw0EUqEIPrKwLlk4LEBcM9oGhZoiAIiIAiIgCxasliQgJJvqf7oAgClEgFKhSgR8srvaP+Z3iVoW+u9o/5neJWldxaI8bPvPqwtkAG/78OI86LUFnK8HcBxtsv1DcoeeQjSzDn6WvcDz3BYrXURZmubci7SLt0IvvC5MIqXPaWP8AaRnI/rtsf3hRiSko8fteWfnwL9m5Qc+FWuT0fnl1rijtcbC600NSJY2yAWzC9uGpH8ltk2HsPguHAfYR9h/icocnjUd1P0a+SVBdjKe9SivNTfsixRc2I1YijL9p2MHF59UKMNgcyMB5Jc673Em/SdqQOoKcf5YeV/Hnn5Mr2b7PG+NLnx8sl4nQumOXK7Na4I/vbvWhGu3bQpaKRdHdOWkZ3jaOi2+p6zZcTnXUPeTt8jgiRjRacrYUIikofWURFwz2gRFR8tMTdTUU8zNHhuVh4OeQxp7i6/cjdKwlbor67HqmomfTYc1pMZtPUyaxRu3sYB68g+gUDklUu1lxSrL95jLImX6mAEWVzybwllJTRwN91ozHe551e49pv9laKqjxLXWh4yokxOg/aPf6dTDV4yBlTG34hbSQDW99ewar1OH10c8bJonBzHi7XDh2biNhHUuhfPYjW0tbUUFC2PLLlqY3SE5IGO6MpDB6wzCwA2cNto7o7x9EReTHJSqdrNidUX/7WSFncwArTUNxShHOCT06Bur2OaGVLWjaWObpJbU2Op+6nFyIrmeyRcWE4lFUxMnhdmY8XB39YI3EHQhdqsQFKhSgR8srvaO+Z3iVoAXRWj9o75neJXOSu2tEeNn3n1YJWuKdjiQ1zSWmzgDcgjcVsXFV4ax5zi8cm57Oif8AlxUScl3Vf378ltmoN1Ntc6vz3+Xk9DuXBVRNZIJy9rBkLJM3vD3bfiCiGaaMO5/IWtbm5xm+25zfi7FpoqczETzDbrHGfVazc5w3vO3zpinPFSSz1zyqt7/WWua0us+z2fZ4pSksNVap4rWivztr8aTauk9n+KOf7OCR44uAYw9hdtWuGtfG0A0rw0fAWSWHYFarJW7OV3i9F8X6le22dV2arnKd/tK8/wDj4alW3m6h7JGvBbHc5LdLONjng8FZrgr8Puedj6Mo2Hc/8MnEFaQDVMaS9zG6tljbo4vG1hdub1daqpOLaq5PPhe7fpW9btVZklCO0UZKVRWTtW46vdrizp0reUsOV7jiQdII42mTXpvabNaN5ze8eoLuWuCFrGhrAABuC2LLBSr8n8eHya20lBv8FS5u2+b3LovV5kqERWMYREQH1lEXLiVayCJ80hsyNpc7jYC9h17lwz2gr6+GBhkmkbGwe84gDs12nqXgeW/K6jqqKWKB0jicjmvEMgjvHI1+riBYdE6q15P4Gastr69ud7+lBA7WKCM6s6J0c8ixJPVv2eyA0tu2W3W4WVM5IsqizkwmvZUQxzRkFr2h2m4katPAg3BHUupeNdSjDq6Iw9GmrXGN8Q9Vk4F2SMG7NYggfpb2itF2Q1QXkMKeJ8WqZmasp4GUxcNhkL+ceAd+XYVnWQYvUudHeKjgu4Z2O52oc29gWnRrLjvF1e4NhUNLE2GFtmjXXVznHa5x3uPFRqTod6IvI8q3PqqmLDWOLGPYZqpzTZ3MtdlEYO7M7Q9XVcKzdFUrKXDuUlHRVtW1jy6lkyy3iY6Rkc50lb0RsNr3GmgG5e4wjGqaqbnp5WyDfY9IX2ZmnVveFvw+higjEULGsY3Y1osO08T1nVUPKHkuHn0mktDWMuWPb0WycY5RscHWtc9SorRZtM9OiqOTGMirp2zZcrrlkrN7JGaPb/PsIVu1Wu0Roz5bX+0f8zvErQt9b7R3zO8StBXdWiPGT7z6mMkrW6uLWji4hvitXpkP+rF+Yz9VlPTseLPa1wGoDhfXitH+F0/+jH/0CpLHeVVzv4ZeHZV+WK+SVfs58YcHtiYCC2SVjSQbgs2nUdis1V4tG2NsLmgNbHOwuAFgGOuHH7/dWqrDvyvXL397Mm2rsoVpcv2vC6w2ERFlNYnaqqmOSplZufG2X/lmyPPerRVkDQ+rlf8ADE2E8CXOzkLHtKuPX2fsbGwvDtOGHP8AyjXjdHZ6bD/qx/mM/VZxzsd6r2P+Vwd4Ln/wun/0Y/8AoFtp6OJhuyNjSdCWtAUrHedevwislsa/HFfNL2bN6IiuYQiIgPrK8p/+l60WQ+q+anY/5DK2/gF6tVXKTCxVU0sBtd7eiTewe0hzCba2zALhS0PaxyaZZ2toFkqLktirp4g2UZKiIZZ4za4c3QuFvdO3vV2CidkNVkUOP4XNPU0ZAHMwyPmkN+lna20TQ3fqT52+gRFNCwiIgC8+3DJRiZqQBzTqURF1xcPbLmAy7bEHb1L0ChGrFhGm6wJXBjuMxUcLppToNGtHrPd7rGjeT9tqixRTckejWYnG31BPG8cM8keaT7gL1gXneROGyxQOknFp6mR08o+EvtlZ3NA03EleiCR0LPU+W13tH/M7xK0LfXe0f8zvErQu6tEeLn3n1ZKxUrnnw50rwHOuy2kbdLu4yHe3qVZyaWSv79+C2ygpyqTpcavwS3t7raXNHO6rjnLoWtc9paQ949QaaWO93YsMOqywiCY2cNI3H1ZGe7Y/F1K2bCIwGZA0bg0ADtFtFXYhzb3iBzA/MC8m/qtGme+3U6LC1JVNvPTk73ZX56p56WbUXCV7NReHXX8k0m8W5XWqVJ5Z4km+4oq0YfMz2czsvwyND/vtWDKaaQAmpblPvRNAv2Pur9pLTC/OPyjF2ENVtI10nflhf7rmdGIV4j6DBmld6rB/E/g1aoqSWKMCMsc8vzy579In1rO3bvoojZHTyMaATztwZXG7y/SzHHrVooinNtyeaypbt/i3x0rJb7tOa2cYxgrTzt1+Wq0TdJZ5Xd5t6HBTYoxzsjwY5Phd0b/K7YV3rTU0rJBle0OHX/I7ltY3YB2ALJHEspO+fzu8vIw7R7N04Jp71qvB6+DtriwAoXVGwNFz/Sx03buviudx18/yUp2Uca1IRSikqfWFgFmoIXDPaFRjPJ+Koc2W74pmepLE4tfs2Ot6zeoqtdh+MtNmVlO4bi+Ah1t18pse1epAUqMKJxM8p6Jjn7zSfkv/AFT0THP3mk/Jf+q9WiYRfJHlPRMc/eaT8l/6p6Jjn7zSfkv/AFXq0TCL5I8p6Jjn7zSfkv8A1UspsZ31FKddf2L9n12r1LgsQFGEXyR5d1DjR09KpW/iEDi6/EBxst2F8kmMlFRUzPqqhvqvksGM/wDVENGffuXpUU4UMTClQpUkI+WV3tH/ADO8StC313tH/M7xK0LuLRHjZ959WStrJC0hw10A+wB71pWTXW/RGrIi6OmsnYGGWQaNaXBo22bqSqXCmOcHTPFny9K3ws9xg7tVYudfz9lCx9n+Sk9339ZGZ7f8HFLWrfJbul0/BIwk2HsPguHAfYR9h/icu9wuLLRh9PzUbY73yjba19Sdneji+0T3U/Vr4ZCmuwlDe5Rfkpr3QxCkEsZYdDtYeDx6pWGF1LnxguBD2EsePxs2ldiK2D88S4V14eXyV7T/AOeB8bXLj55X0QW2IDq37dey3fbrWoaKZX3N/N+KlpvIrGlmHu3bh5/RQihSVbsIiID6yiIuGe0CIiAhSiIAiIgCIiAIiICFkoRGwj5bXe0f8zvErQuit9o/5neJWi67i0R42fefUhSoRTRQlQiJQJUKbohNkIpS6UQFCIlAIiJQCIiUD2/OO4n6lOcdxP1KhFyj0ZPOO4n6lOcdxP1KhEBPOO4n6lTzjuJ+pWKIDLnHcT9So5x3E/UqEQknnHcT9SnOO4n6lQiEE847ifqU5x3E/UqEQE847ifqVlzjuJ+pWCISmUUgBJ43PisMo4LOTae0+KhbBy2Y5RwTKOCyRAY5RwTKOCyRAY5RwUho4LJQgILRwUZRwWSlAYZRwTKOCyRAY5RwTKOCyRAY5RwUqUQF8iItc6YUBZNG/wA/3WJKE1RKIuPEMTggF5pGs4Zjqexu09yBJt0jsRedZyypHOY1nPOzuaxrhE4NJcbDV1uKvKmpZG0vke1jRa7nODWi5sNSoUk9GTKEo5NG5F4jlPj8LpaUxP5xsMwmlcy7mtZcMuSOpzvJXq6LFaeVwbFNG9xFw0OBdbjl221UKabos9lJJOjsRS5pG3z3qCrFKCIiEFFJtPafFQpk2ntPioWwcwIiIAAoBW5rQBc/r1d61uNzdQnZZxrXUhFxYpX8wGucwlhNnuHuA7HEbxdVMOJxxz1Ujn3Zany2N73jJAjG8lVltIxdfVk3fTIyQ2E5xckt2W+3ijGuv5X03Zno0Wiimc9jXOYWFwuWk3I4XW9XMTVOgiLYxh2Db4IErNaLN4INnDw+qwIRMNBERCC+UAopJWudTQEoiouVFbIBHTQm01QS1rvgYBeSTuHnRQ2kiYxcnRqrcWmnkdT0Vhk0mqCLsjPwsHvv8PuOjDeTVNEc5bzsp1dLN03k8RfRvcu/C8Pjp4mxRizWjvJ3uPEldahR3yzf66fJaU90cl++vxoecqBzuJRtPq00LpOrnJTkGnyi6vamnZI0skY17Ta7XNDmm2o0OipMN/8AI1d98VPbsykH7r0KRzvr/wCewnlSXBfPueJ5T4BC2WlETObbNMIZWsu1rmXD7EDTY13kL1VFhdPC4PihjY4C2YMGa2y2bbaw+y7FARQSdh7WTSVm4uuLu7h+q1Ernoq6OZpdG7MA5zCbEdJhs4a9a6FKKyvQIiKSpRSbT2nxUKZNp7T4qFsHMCzjIHnz/VYo999SoZZNLMrMQxQwyND22hdpzt/Vk4SDc21tUwure+Soa43DJAGaDQFoO0bVqxDD6mQvAmjEbtMhha7TgSdvaq/DYnUDsspzRSlv7UAjLINA143A8VhcpKWfd8Pbde9m1HZwls2otOVaK+N70li3Urvrr6VzQQQRcHQg7CDtBXmcGwiFtXOA3SLmzGDqAZG5ieu25enCo8Kmaa2qs4G/M2sRrkYQ63Gx2q+0Sco3x9n8FNhOS2e0wv8Aju/uiv02XqqJcSyVMjZHARMgbJqBoS8i99pJ2WVlU1DI2l7yGtaLknztXmH4VNWP9J0ib0ebbI3OSxt7Pe0m2t9nktpJqlHNkf08IytzdR0vnqkt9+GWrL/Cax8zS9zMjSf2YJ6Rj3OcN11YtkLTmHniq3D6epaSZpg8W0AjDLHjceC7gVaNuOft7ZFNpSm8NVyv3SZ1SPFszgCSNBuA4lcpKEorJUUlKwiIhUvkRFrnTC85hg53EKmU7IWRwM/5DPJ330716Nee5Le1rQdvpTj3FrbKr1ReOkunuj0ClFCsVPO4geZxCCU6NqI3QOO4Pac8d+s7AvRLgx7CxUwujJs7R0bvhe3Vrv5dhK5+TuLmdpjlGWoi6MzN9/jHFp29/YqrKVcS7VwT4ZP2+P8AZcLzuM8p3U7ntFLO/L7+S0J0vfOL6dy9EilpvRlU0tVZ875KY++na6IxPqMzhNmgBflMjWktcLCxBHHbcL31JPnY1+VzMwByvFnC+5w3FVHJHCXU0L2OABM0jhYg9HRrNnU0K9Vdmmo5mTbyjKTpePEIiK5iRRSbT2nxULJ+09p8Vitg5YWqepjZbO9jb7M7gL9l1tWippI5LCRjH22Z2g2vwujvcSsP8tCjoMYEMnMyzskY65jmztJH4JSNh6/ItZ6+ke0tdNCWuFiDIyxH1VPQYI2aTnZKdsMbbiOLIGOd+KS3h5NscFpP3eH8tn6LDs8dbq3a/wC+l50bO3eyxLW6zqqvluvjWSfiUtHTGWR1K2oeYGNDxzZBc4O/yy8bhr23VrPyfpiwNazJl9WSPoyA8c+0ntuqekrY4p5JooHGnsIi+Ngygt1c8NG1nWr2bHaZrA/nA7N6rWdKRx4Bu2/bZUh2dPFW/wAuV7uhm23b4lgvdov5Vndfy1u86KikpzLM5lTMHtp3gMa6zQ42uHvHvWGnk39E6qjAuXx8fWH1XmaGGF9Q/wBKgyvmPOQiQbrWLb/FsNvJuHcn6Q/5LNeo3+t1bZYq/FLXe3fK/Ap/UYMSUm9FVKNZrOs6zd3W/wADno8TdPLna8MgZca5c0pta+uoYNvnS6a4HUG44jYvLUeCRxS8zLTiRj7mOXISRYXMcltnUfI9LTU7I2hjGhrRewGzU3P3KtsnL+X326V13lP6lbNNYNN2S04vO2+NrlklRtREWU1QiIgL5ERa50wvN0p5nEpWH1aqNkrOGeIFr2jrt0l6RVHKXDHzRtfEbTwu5yE9Y2sPU4afRVksr4ff0ZNm86e/L49S3ULgwPFmVMecDK4dGSM+sx42tI7jZWCsmmrRVpxdMKnxrAxM5s0TzFUM9SUbx8Dx7zfPUbhEaTVMRk07R5qPlI+DoV8RiOznmAvp3ddxq3sP2VxTYpTyC8c0bux7T9rrscL6HZvC8lyroaNoEbKaF9TN0YmtaGm52yOy26I23PDttRtxV38+heKjN1VdNPX5PWtcDqDcdWqlVuAYW2lgZCDfKLuPFx1cey+zqsrJXV1mY3V5BERCCjk1J7SsVMm09p8VC2DmMIiICpq8cEbnN9HqXZfeZDdh6wb7Fwsq3V5yMzRwNtzpNhI8nZGLE2ZxK78Vo5p3iK+SC15CD+0eb+yHAcT1rDAqbm5KkBmVvODJpYWDB6vELDLFKWF6ffT95rruQezhs3KPeSTWemaX+Wdqu710tYYmsaGtADQLADYAqXCaaNtXUkNaMvM2sB0czCX24XKvlQYTUMNZVgOBzc3bXbzbMsluNjoVadXHr7Mx7G8O0/t/7w18LLXEqBk7Mj+1rh6zXbnNO4qkjx18DvR6hkkkgtldEAS9h9UlpIOdekVBWYW2erkD2utzDMrwCLPEhsWO+IKNomqcdf2TsJRacdp3VnzTy091v60zvw3FOdJbzE8Vhe8keQHW1gb7VYLiwkThpbPYlps14Prs3PI3FdqyRdrMw7RJSaXpmvv+giIpKBERAXyIpaPqtc6iRipWT2kbVgUsNFHi2CPMnpNK8RVFrOv7OUfDKB4/0tph5UtjIZWRup37LkF0Dj+GRtx9dnFejWEjA4WcAQdoIuPoVXDnadF1JPKS9n96+Bz0+IwPF2SxuH4XtPgVjVYrTRi8k0Te17b9wvcrkm5L0Lzc00XcMv8ADZZU3JuijN208V+JbmP/ANXT8uXqR+HP0+Thk5SST9CgiMh2c88FkDeu51cRwH3XZguCCEulkeZah/ryu4fCwe63q/sLcC2gUqVHe/v3xJc8qiqXr4v4pcgoCzAt58/1WBKlMpVEoiIQUUm09p8VCmTae0+KhbBzAURZxsN7DafshKVmtStkjXNNna+ePFYEJdhqivxeCaRoZE4MDjaR/vhn+31nYqCmwRhnnjjJjdFzBieNrXc2Sb9RO1euWtkLQ5zg0BzrZiBqcugud9ljnslJpv7k/LW+pn2X9RLZxcVw9cSefHJNVpXK08KLnMjedy57dLJq2/EXW9EWRZIwPNgoilo+m9BVhrSdixXQ5wA087R/dc6hEyVZEoiKSpfIDvG79URa51DaX6Xd3D+ZWolQpRIlsIiIVCIiAKWlQoJQlOgpREICIiAopNp7T4qFMm09p8VC2DmBZteQQ4dQ+1lggKEpnU6QWDnWJOwbh1rlJQlESomUrCIiFQiIgDWk6BZh1t3nyFioJRqyydIlQiIVCIiAvkRFrnTCIiAIiIAiIgCIiAIiIAiIgKKTae0+KhEWwcwIiIAiIgCIiAIiIAiIgCIiAIiID//Z;clipPath=inset(0% 0% 0% 0% round 50%);" vertex="1" parent="1">
          <mxGeometry x="1063.12" y="425" width="52.98" height="52.98" as="geometry" />
        </mxCell>
        <mxCell id="shK0o6eYTKU5Cj1UoSUi-36" value="" style="shape=image;verticalLabelPosition=bottom;labelBackgroundColor=default;verticalAlign=top;aspect=fixed;imageAspect=0;image=data:image/jpeg,/9j/4AAQSkZJRgABAQAAAQABAAD/2wCEAAkGBxISEhUSEhIVFRUVEBUVFRUVFRUVFRUVFRUWFhUVFRUYHSggGBolHRUVITEhJikrLi4uFx8zODMsNygtLisBCgoKDg0OGBAQGi8lHSUtLS0tLS0tLS0tMi0rKy0tLS0tLS0tLS0tLS8tLy0tKy0tKy0tLS0rLS01LS0tLS8tK//AABEIAOEA4QMBIgACEQEDEQH/xAAcAAACAgMBAQAAAAAAAAAAAAABAgAEAwUGBwj/xABBEAACAQIEAwUFBgYABQQDAAABAgADEQQSITEFQVEGImFxgRMykaGxBxRCwdHwI1JicpLhFYKisvFTY5PCFjND/8QAGgEAAgMBAQAAAAAAAAAAAAAAAAECAwQFBv/EAC4RAAICAQMCBQEIAwAAAAAAAAABAhEDBBIxIUEFE1FhcSIUMoGRscHR8EKh4f/aAAwDAQACEQMRAD8A4YXjJAJLzq0jl2wsIJLyZoqQWyW8YtzHvFaFIdsGcw5pFEhipBYbwA3gMiwpBbGJhBiWgEKC2FjFzRjEYRUFkDQkzHaEQpDsYtJeFBCVhSC2LITJIBeKkSIPOQmMREJiodkvEJMe8RoUhpsGaE1DFMF4hkJPWKSesJMWFDMsEMkqLbLBMBMhMl5rMQY2URIYgoDGSFrRQYDGSPpMN4QYBQzNADAZBEIcMI4mIwM+2sAMjLaYjMjGU2xa8rmAJGcyCVfvJOy/UywalsoI1PyislTHvGBiVKgG5kSsp2IgKmOVhSQwWiJJALQWkkAgMEUiOVikxEkIRIFkvMt9ID4MBizI4igQAe0Ee0kpLRryCQSGajKODFvAICYCJCBEhDxDGtIYoMFSpl1MBD3hBvMdTUG3MTX0qpXb1ETY0jY+3Xa4lfE6so8vrFWkr6jQ8xFNLIwJ1G8QJI2IiON5AYbSREq8P2PmIa5/iL6fWDh/P0hrD+Ivp9ZDsT7i4m2cX2A1j01pk6A335yYo2cHy+sNOuuawWxPlAkuCYnEEMAOW8tNNZWa5Y+PyvaNUrkgDw18YrHRcRw2x2mQGVcEtgWP7tvCuKBNrW6GOwosM0QxmWYzASAxigxisFoEgGS0dVEVukAGvJDlklJaMYJLQNNJlDFMhMF4DCJJEaC8CJCwEjaixiVkDC0wUq+XRuW0jY6CtTIcp25GCpYMG5H9mKELm50HKZFRipUjY6GIZhBsSVvYfvWW3tUTTccplpjQX6axUogEkfCMTYMKDlsRa23lM14UUnYE+UsJgHPIDzP6QI2V0UDb1jFB8Npdp8OPNh84Tw88mHzgFlIqDvr5xco5AfAS4+CfwPkf1lZ0K7gjziJJlanhQM19byviUCkKvn58hL5itSBIPOFE0ynimsAg9YKwAQDn+fOQYYsSWuJPu6rqTe0RItUXOQX6SBZUzu+2g/fOGlXYNlaFhRatFMl4pjAMRozGK0Bj3kgglJaZC0kUyTSZSNpFBkJkEQBYyocUT7ovM9UGx8pWwlUDQ6axMa4HTEa2YWmz4XwGvjanssPTLva51ACrcC7MdANR+V5rcXYrf4T1r7BqiZcUp9/+CfEpaoB8Df8AyErnLbFsnCO6SNDQ+yniYGv3c9AKrX8jdLfOU8Z9n/EqV74YsOtN6b/ABs3yn0C0GeZlqJIveniz5krYGqjZalJ0bpURkP8A1ASxRwgGra+HKfRmIRHGV1DDowDD4Gc3xPsVgqu1M0j1pHL/ANJuvylkdSu6KZaZ9meSUyBpa3lHLCdjX+z91rJlqCpRNRA/4KioWGY2Oh0vrf0mxp9iKacRpgAnDim1YqxJGZCoCXO4uyNruAwlvnw9SvyZ+hwWIoOgBdGXMLrmUrmHUX3GomNGvPQftAwFTEEuMqUaFNmLubB3NrIg3J0Gu2tr3Fp5ulcXtr02Nr2vvtHjyblZHJDa6LMDC8AfygC/WWEUVq+BB93Q/L/UoVqZTRh+hm6AiVKYYWOsVDs0ZaVcaNB0v+/zmyxOGKeI6/kZVdQRYxMsRjLKo0ItKq99wQNBb5TP9zXqYz1FQWHwH5xEh2WKTMdLOTmJsOn+pkYQADRWhMjCA0GSS0kqLQyARtIs0GUUiKY5MxVSQLjUwBGKsr3uD6f6mLOre8LHqPzg+8N1t6CTIz67/C/ykCfBmTCjrebrs5xurgq64ila4GVlPuuhtmRugNhryIB5TddmPssx9ez1rYWmdf4gLVSNDpSBGX/mKnwnpfCPsw4fRsaiPXbrVbu+iJZbed5XLLBdCaxT5Nh2d7Y4TGqDSqBagF2ovYVF66fiH9Q08tpt2q9Ax/5Tb4mZMHg6NBctKmlNR+FFVFHothMdXidNfxA+CjN8xp85hltvobYQnLolfwKc5/DbzI/K8Hsn5kelz9bTA/GRyRj5kL9LwUOIVH2pgDqWPy01MhuRc9NkStql8ozthW/mGv8AT/uWKaG3eNza17W0lXhXE6dZqiK6s1PLmCm9s2ewJ2v3Dpy5zXVkepxELUd1pU8MlWiiOUWpU9o61jUykGpkBod093+JsbyVUZ7sv8V4PRxAC1qYcDYEsLeWUi0oYPs1hqKslJCge9yDdtRbRmuRblr4wdoOPNhqLVzbKpUAEG3ecICxFyBdgSQDYcjNjwvH+3phxl1/lJZSOTKxAup3Gg0jTk1XYlOHlNSfJwn/AOLYdq7CnmKroxfJlzKADlRFUDbpqbnnNXxbhyDMoG17Gd9j+CMWZqLhWe7FWvlJO5BG3lbnOZx/ZvF2JyL4nMNBzMi5TT5N2H7O4V0p8nBI0yibrtzhgmJGTdqSNYKFF9VFiPevluT1uOU6njvYmnTw6rRUtXBRc2Y99mZVYEE2VdSdBpbznS81Um+55/ynbS7HnDqDcHYzU4mjlNuXKeh9qOx/3SitX2udswDi1l1/l579flOPxVIOtufLzkoyU1aDa4umc5is9xlvbw6+MyimAb21/e0zNEgSsF4CZGi3gNBUQO0JkKXjGC8kb2fjJKS0BiyXgmgykgvIZXbF8gImx0Znpg7idL9lnDUfilDNqE9pUAPNkpsV+Bs3/LOROJbp8jNx2V4vUwmKpYnLm9m2q7FlZSjgeOVmtfnaQl1TSJx6NH069QKNT5ma+vj2OlMep/ITFgMfQxtIVaFQOptsdVPR13VvAzMKDdB8ZzJXwdTC8fMijVpu3vMT9PhtFFDkNTLmMqU6K5q9Vaa+JCjyF9SfKcdxn7Q0S6YOnf8A9xwQvmqbn1t5RwxSlwW5NdHGqR0ePq0MMntMS4Ucl3Zj0AGrGcD2i7ZVcRenSHsaO2Ue+w/qYbDwHxM57G42pWc1Krs7ndmPyA2A8BpMBabceCMPk4+fV5Mr6vod/wDZPTOfEPrlCUx4EksR8AD8Z6Gyi4JGovY9L7zmfs+agMMFoZnsb1qhQoGrMBmVc2+UWGmgAHMzprzNmdzZowqoJGr4tw9KtN6VRcyOpUjwP0Pj6xeAYL2FJKd2YIgQMwF2C2AJsLX9AJuLXkErTovnLfFJrr6mJQSb+GnjeZah0KjViLAefM9BPFu2f2n4ipWejgm9lRRihrAA1KpBsxQm4ROhGp3uIKX2rYlMLTo+yVqilM9Ysc1RFIvdbaOwFi9+ptJV3IJV0O77RdlfvApvns1FStrXDgMpsTe4/F/lOucXcHkLn12HyvOb4b2swz16VHNpVw1OojGwXNUGYU26MVKn1tvOpdRHLdSTIx222jl+1XCKmNy0VcU6anNUcrmuR7qKtxfe51FrDrPLOL8POGr1KJYPkIGYC17gMNOR1nqPbPtOuEp5UsarDuDkP6m8PqZ4/VrNUYsxJZiSSeZO5mnT7q9jPnq/c1uPSzX66+vP9+Mq5pseJp3Qeh+v7E1d5oKojwRc0GaImhjAzxS0W8YzNeSDNJKSwWQiS8l5oMwomGphgdtPpLBEqPSK6qdJFkkJUVha+oB/estUqwbzmFcV1ENOuL2C7mRG0XsJiqlJs9Ko9Nv5kZka3S6kG06rC9q8c1MBsXVNxvmsdz+Iazj5uMJ7i+UdJ8kW2ixWxDOSzMWbmzEsT6nWKrdZ0vZnswK1FsQ50DFVW9r23JlLHcOQnSyAfiJNtDMWTxDFDJsd/Johock4b1Xwaq8F5Yq8OdVLoVqINyhzW8xuvrKwImuGSM1cWZJ45Q6SR2vBONYivSTCUQtClTpgVHp39ow/FZj7rOcxuNdzedlhe0Se1ZXGVSf4fl0PjPJuE8TqYd89O39SsLqw6EfnvPQ+B9oKFYDLZKn4k0Bv4Ee9+9BOXrlmhNTj9z4/U6WilinHZL7394Ow+9p/Na/X96TJU7ykA7qRccri15oHqCY8Nj3peK/y8/SY4a5X9SpGyWkdfSeaUex+HS9GojI6d0kMxINt7E2I2I0tYzR1OzNX72uEvfPYhwNPZ839BfTrPbcY2ExNvaZcw0BJyVB4X3I8JxvaHjOGoNbB5alX2ZU1A3tMlzqM+wsRsOepE175bfo63x/I6hkpbaa5NV2o4ZhcMFp02OcDvrmDKi20zHcMdNL7dNL+ucPxQq4elUBuHoU3v/cgP5zwRa4JOY94k5ibnvE6kk77+s3tDjOJSkqJiHRVUKqgKAoA90ADQTRPpGMbv3FpfDsmZzlW13w+K9unUf7RsSDjmTW60aY201zEa+s0AFpjx+KqVKgLuzG+pYk8oVM06eTcfgx+JaRaecY31atmPG6o3l9JprTc4n3G/tM1AMvMKEKxSYWixE0EmIYSYkBma8kFoZUWkjAQCMpl5kJaVKl3NhoAf3eXDFFQbX1iY0YqdEDleOIlTEgaDU/KYgzsbjQfKIdFibXAN3B4Ej5/7mstL3DH3Hr+R/KMTOn4Nxd0RqV+7YsOvjpz5mVRSbE5jmNNUI7x1Sx6j8T+HjylbBYgU6isRcag23yspViPGzGbTD08tJ1DZlUAobEaVMpv8CNd5xNfhjjk8nrVel9/77nV0WWU4qHp+nYXhfCalWoz4dvZpSH8StUPdFxciwHeuN118d9dzi+wFZgaqV6LXBbuhlXxsdZtOw+FpPhqgqaZMY75s2QowAVWzAi3da3Qg22nT0C9KqaXs0TDBVWmRoc7bra9gLkjYakb3l2NyaUm3dEZQjcopKjxzF4CrRytVQ5GAZXSzI6kXBRxcEHqLzLTro65bADl0Hl+s9lxmCVqL01SmMytlDLenna5zMotfvG5trvPLO0/ZWrhlXEKllYA1KYbP7Jj+HNbvDx9Nd5LJOf+TtG7wvNgwTacab7/ALfBqsL2ixtEFRVzKNhVX2gtys3vfObqljcbiqGem9IAqQ6qjo4IuGyNnOumnmJzajPp5H6/pN/2JqFTUp9GDD1Fj/2iYNVCMY70la9jsZ8SS3I5tsGlr93qWa7HXpfabPCdnXWgMUrFrpf2dsv8Mai3Mtrfy8temqdmKTOTmbIWuaelvEX3y+E6MIBTyhRpbW2w8JHNr+PL/H+DG2keRYXvZjbQnabcP3fr5/v8pOP4P7viTYdyp3h4Hnb1+omCu4IuD6TbCW+Kku51cMo7Uk+xrqp748z9JZTaVbXa/SWQdJv0yaieV8cnGWoST4XX82V8a1kPw+JmpJmw4nU0A6m/w/8AM1pMvOShuUxwloIE0KRDaQSGAzLlkkvJKiwBENo0BMuMwJWGHOa4PO8smRBECAaYBvYQ3jAwEQAImTDVMrA8uflMVpBADdVBOjwqXQr1w1E+opof/rOSwlbMuU7j6TquGVu7Rf8ApNNv7kOg/wAfZ/5Tm+KxvEn6M2+HOsrXsbTsrkatUw9QkJWVKyjSxanZXVgQQwIC3BGwM9IFFcgS11y5bG5uALWJOp06zyPFB6TB6fv0antE/qX8SeRXT0ne9lCKgbELVep7Y5gGtoCF7rWG6FSo6DxJJz6PJuht9DTqIbZWbmkxQhGNwdEY7n+lj/N48/ODiOAFZVBZgA2oBIDj8SuAbMCNNbxsVh1qo1NxdWFiPAzFhqRoUwl2emigAtrUUKLXY/jFh5+c1FXRq+55L2p4KcFidL+zcXpnwuTbzBJHw6zN2fqfxiRzp3+BH6zsO0XDKWNwdTEUXZ838VLm4Bpgo4QcrhdRe11E4Psk5NTXfI17eDCYtSqxyj7dDvaPO54ZY5cxO/ottL9NvL11E1NJ5bpVCdBudpxUyqSOb7dYe9FanNHF/I6H52nH+y6T0r7ScDlwlVxtancf1GoguPP9Z55hmAtmBI0uAbEjmAbG09L4bGUIShLszleJSjPHjyLnqv0f7ldU6xmEv8RxKVGGWmtMAaZR1/nPPzt+s1GOqkd0DvHSw38Z0IytHJrqa7F1MzE8hoPSYbS5jOH1KS03cWWqhZDf+U2ZSOTC4uPEeNqRMaafVE6roAwCGQmMmCQwEyXgBkkgvJKSwcSKITBeXmcMdbRBCpgILwLJGEABMuEwtSs4p0kLsQSFG9gLn6TGikkAAkk2AAJJJ2AA3MvVsI+HrhWOVgV1RjbvAEd4eBGnjISlXHI0iiwKMRsysQR0INiDO47H8LqYrDVWpastemqp0YqS7XOwtk+HhOTo8NeqCy5e7ZTfS7bkDTkLTpPs57T/AHCu9KqrGnWZFYaXp1AbK+ptl7xv4WPKxozKOWEody3FLZNSOx4t2QrpSFUMrui3ZFvqLXIUn3iOWg5zmeFY9aBZHJGGrkXKm3s3JBvcbKbC/T4z2Cu1Q6BbeJ2E857VcATDMop3anUVgyNa9xbawG4+k5E8fktThx3OnCfm/TL8DssLVARQXzaAZmIux2BJFhcy4rXBB1Fv39Z5JhsY1JPZPnqUA11K/wD7aBsVOn4kszC24vpawnfYTtBTq0y2HdKrhNFL5SWtoH0uvw9Jsx5o5FaM88coPqbTG4IVFVQxp5XDDJoNLixA0IsTpte177HjewPAQuNxmZQadNjSUEAg5mzbeAVNfGb7jXEG+7ColZcObKxaqvuqRqpUg97Xa24tG7AIzJXxTAr95xDVUB0PsgAtO/mBf1EJpNpEseSUVKu/Q3v/AAah/wCmPibfC8zJhET3VC+QEzVK1pXaobG/j8Op8JFQguERc5PlnPdq+HvigmEU2FSpndiL5KVKxLW5ksaYA6k9DKFf7OcNlAWpWBG9srX/ALu6APITrsAlyz2sWsB1yi9vqT6zYKAJdGbSpFTgnyeEdrOBPgbZ2LU2JCGxXvb5SNr25g8jOXvnUvubZDbxYZfiuZfSfSHGKCVKbI6qystmVgCrDoQd543xLgVLD1mppeysrC5vcDvLqehNpN6hKP1clUsVPoayjwmnkOcd4i+5GXTS3kOv630GDwgqEg1FSyg3fRdXRSCeVgzNf+gjnOlx2ZlKpu2nWy/iPw09ROer1HpNlZStrFRf5sR71/yt4RabJKSdvqxNFStTKMVO4Nv3+kxEx7C0UTcIjWi3jMJjaAzLeGY5JSWljeAiLGvLzKAtCIANY0BghvATFBgIdGtLWEzVGVFIBNxck2IFzYjx+crKk3nZ2hgzc4hyrBu73mRbWGuZed785Tmltg3V/HUceS5gabJmDZQTY3U6FhpfXa438fPSrxLBJUBdmy2Ug6XvYXBP0+E6yjUwR916DedRCfmZcX2HI0fQpOL9onGe6mmaNiaoo9h/tDqXXD4ur/Dy5UrZSzKRYKKpB1W2ma1xYXJ1I9GxVegKLPmFYGmSSLVLrbkFvpOOQLyK+hH5Toey3EFTPTc2zMGU9TaxW/U2FvXwvb9qjklW2rJwTjyeepiqbKPaAq1h3h163GhmvxPDEqsAjJUYnQZTnPkFvcz2YYLD12b2lGkxHVVJI2Ou+/1kp4SjhyPZ0qdMZhmKqFNupI1PX0meOjkn943PVJrg4jsz9nlyKmLFwPdpklv8r6W8P/E72uMg7gsVGg5EDl8t5sJrOKYoIrN0B+l/35zZGCgjLKbk7YHxaZQxYAEC1+d+g3JmsfjFJmCuyrr7pYAm2gv89PGcFTw1S+YvUJO93J53tqdo44UCb26amUPUIhZ6dh+JUT7tRW0/CQbfCZ/vykaGeW0ODhWuFAIm2wlarTFg1xfZrn53vBaqPcDr8birg8v2Z57xrCtWrNUDAAgKBa+gH/mX8bxpNqtemtjsXVbedzeayv2jwa71lP8AaGf/ALQZGc55OkIv8hMrf8KYCwYbX2Pzmj4j2VxNRs+emx2A7y2HIDQ+M3FbtnhV90O3klv+4iafHduqh0o0lT+pzmb0AsB85bghqYu4x/Mg6OWxdFqblHFmU2I6H0mK8avWZ2LuSzMSSTuSdzMV52VddSBlNSYmMGaRjGFGS8EkkpLSy7SLEMMvMoRHBiQwAjSW0kvDEA6EWiMxgMCiAAgKwkGSA6O87IUMItNWpsvtmSzliA4JsSoW+i3HLewnS1KVxa2/+p4+p6zNTxLr7rsv9rEfSc3LoHOTlv8AzLFOlVHqNHD1KbipTdlI2sRt0sdx4S9iuJ4qoCC4F+arZviTp6TyhOK1xtXq/wDyP+sYcZxP/r1P8zILQ5VxIl5h61wvjOJooKZOdVHdzXzAfy5uY89fG0x4zEvVN3Ppy2tPK/8AjeJH/wDep/kZeweOxlXRKtViFvo6DvEd1bHXfS5I5+FyWizNU5IPMs79UjZJ5rxLiOJpkKcTUJygmzkDXVbWty/XYzXNj6x3rVT51H/WQXhs3/kg3o9fH7+H+pgxHEaNP36qL/cyj5XnkD1Wb3mJ8yT9YoEmvC13l/r/AKPzD0Hi3EeGEMXWnUY3P8NLuT/eALHxJnnt4TEvN2DAsSpNv5IN2EmIIxgKy8BTFMYxCYgQQsUiZBMbRjMkkloZSWGYwrJIJcZQySARssABaQmQmLAaIJM0OWACAyAyQ2jbQAS0YCSQwAhgzSWiiADFrwWgMF4DCx+gHwFh9IBJJeAAvBeMYpgMhMWSQwGC8maCRhAAEwXgMBgMhMUyXgMBmaGC8kpJlmQQyS4y9yRpJIwYsWSSIY5iwyQGLHaSSAEgMkkBhaJDJAAGLJJAAwGSSAAitJJESRDFMMkY2CSGSAjG0WSSA2LAZJIDMskkkpJn/9k=;clipPath=inset(33.11% 19.78% 9.11% 22.89% round 50%);" vertex="1" parent="1">
          <mxGeometry x="1263" y="418.75" width="54.57" height="54.99" as="geometry" />
        </mxCell>
        <mxCell id="shK0o6eYTKU5Cj1UoSUi-39" value="&lt;div&gt;Bacteriología&lt;/div&gt;&lt;div&gt;&lt;br&gt;&lt;/div&gt;&lt;div&gt;Virológia&lt;/div&gt;&lt;div&gt;&lt;br&gt;&lt;/div&gt;&lt;div&gt;Micología&lt;br&gt;&lt;/div&gt;&lt;div&gt;&lt;br&gt;&lt;/div&gt;&lt;div&gt;Parasitológia &lt;br&gt;&lt;/div&gt;&lt;div&gt;&lt;br&gt;&lt;/div&gt;" style="text;html=1;strokeColor=none;fillColor=none;align=center;verticalAlign=middle;whiteSpace=wrap;rounded=0;" vertex="1" parent="1">
          <mxGeometry x="878" y="201.74" width="98" height="116" as="geometry" />
        </mxCell>
      </root>
    </mxGraphModel>
  </diagram>
</mxfile>
